<svg xmlns="http://www.w3.org/2000/svg" viewBox="0 0 48 48">
  <path fill="#fff" d="M16.61 4.612c-3.17 3.404-2.295 8.843-2.295 8.843s3.235 3.838 9.593 3.838c6.357 0 9.595-3.838 9.595-3.838s.862-5.366-2.24-8.774c1.94-1.08 3.083-2.64 2.61-3.7-.535-1.19-2.9-1.3-5.29-.24-.89.4-1.645.9-2.234 1.43-.75-.13-1.54-.22-2.45-.22-.84 0-1.59.08-2.3.2-.58-.525-1.32-1.01-2.19-1.4-2.39-1.065-4.76-.96-5.3.236-.464 1.04.616 2.56 2.483 3.637zm24.05 24.78c-.495-.105-.967-.164-1.424-.21 0-.125.023-.246.023-.377 0-2.015-.29-3.938-.75-5.764.98.09 2.24-.14 3.51-.7 2.39-1.06 3.9-2.9 3.36-4.09-.53-1.2-2.9-1.3-5.29-.24-1.12.5-2.03 1.17-2.64 1.86-.47-1.09-.99-2.142-1.61-3.1-1.81 1.51-5.24 3.765-10.02 4.266v19.3s-.018 1.92-1.92 1.92c-1.908 0-1.92-1.92-1.92-1.92v-19.3c-4.787-.5-8.21-2.76-10.02-4.263-.59.92-1.1 1.92-1.557 2.96-.614-.64-1.476-1.25-2.516-1.716-2.39-1.064-4.757-.957-5.29.237-.534 1.194.974 3.025 3.365 4.09 1.19.53 2.37.77 3.323.728-.46 1.824-.75 3.74-.75 5.746 0 .13.022.254.025.39-.4.042-.82.103-1.24.194-3.115.644-5.5 2.256-5.325 3.586.176 1.34 2.846 1.89 5.97 1.24.407-.08.806-.19 1.186-.31.55 2.446 1.43 4.72 2.646 6.673-.72.363-1.47.9-2.16 1.597-1.91 1.91-2.686 4.235-1.73 5.19.955.957 3.277.18 5.187-1.726.56-.56 1.01-1.152 1.36-1.74 2.61 2.56 5.88 4.09 9.45 4.09 3.62 0 6.94-1.572 9.562-4.193.35.62.823 1.248 1.414 1.84 1.905 1.913 4.233 2.688 5.19 1.73.954-.953.18-3.274-1.73-5.185-.74-.744-1.54-1.306-2.307-1.676 1.206-1.95 2.075-4.22 2.62-6.66.43.134.88.263 1.35.36 3.12.65 5.794.096 5.973-1.237.167-1.328-2.22-2.94-5.337-3.584z"/>
</svg>
