<svg class="icon icon--github" xmlns="http://www.w3.org/2000/svg" viewBox="0 0 48 48">
  <path fill="#F0F0F0" d="M24 .503C10.745.503 0 11.29 0 24.597 0 35.243 6.876 44.273 16.412 47.46c1.2.22 1.638-.525 1.638-1.16 0-.574-.022-2.475-.033-4.487-6.673 1.457-8.084-2.84-8.084-2.84C8.84 36.19 7.27 35.448 7.27 35.448c-2.183-1.494.163-1.465.163-1.465 2.41.167 3.678 2.482 3.678 2.482 2.15 3.68 5.62 2.617 6.99 2 .22-1.553.84-2.618 1.527-3.22C14.29 34.64 8.69 32.57 8.69 23.34c0-2.632.934-4.78 2.47-6.466-.248-.612-1.074-3.063.234-6.38 0 0 2.013-.647 6.6 2.472 1.912-.536 3.965-.8 6.005-.81 2.03.01 4.09.277 6 .813 4.58-3.12 6.593-2.47 6.593-2.47 1.312 3.31.486 5.76.24 6.37 1.537 1.68 2.467 3.83 2.467 6.46 0 9.254-5.613 11.293-10.96 11.89.864.746 1.63 2.21 1.63 4.46 0 3.22-.03 5.815-.03 6.61 0 .642.435 1.392 1.652 1.157 9.53-3.19 16.4-12.22 16.4-22.86C48 11.29 37.252.5 24 .5z"/>
</svg>
