<svg class="icon icon--key" xmlns="http://www.w3.org/2000/svg" viewBox="0 0 48 48">
  <path fill="#F0F0F0" d="M34.298 1.75c-7.567 0-13.7 6.128-13.7 13.69 0 1.05.118 2.065.343 3.043L0 39.405v3.422l3.425 3.423h6.85l3.425-3.423v-3.422h3.425v-3.423h3.425V32.56h6.85l3.79-3.786c1 .23 2.04.352 3.11.352 7.567 0 13.7-6.128 13.7-13.69C48 7.873 41.862 1.75 34.3 1.75zM20.55 25.714L3.425 42.827v-3.422L20.55 22.29v3.424zm17.125-10.268c-1.89 0-3.425-1.535-3.425-3.423 0-1.887 1.536-3.423 3.425-3.423 1.89 0 3.425 1.536 3.425 3.423 0 1.888-1.536 3.423-3.425 3.423z"/>
</svg>
