<svg xmlns="http://www.w3.org/2000/svg" class="section-logo" viewBox="0 0 32 32">
  <circle cx="16" cy="16" r="16" fill="#fff"/>
  <g fill="#d32f2f">
    <path d="M19.746 5.782v3.134l-1.667 1.666v2.124h.44v-1.942l1.22-1.226v1.408h.44V8.068l1.63 1.63.31-.31-1.95-1.94V5.78h-.44zm-.492 8.993v3.583l-.934.933-.806-.8-.314.31 1.647 1.65h2.382v-.44h-2.21l-.4-.4 1.96-1.96-.31-.31-.59.59v-3.15h-.44zm4.736.69v2.31l-1.19-1.188-.31.31 1.5 1.5v1.34h.444v-4.272h-.443zm-.56 5.298v1.812h.44v-1.813h-.44zm-4.165 1.598l-1.422 1.43h-1.08v.44h2.24l.567.57.31-.31-.696-.69h-.716l1.112-1.11-.31-.31z" style="line-height:normal;text-indent:0;text-align:start;text-decoration-line:none;text-decoration-style:solid;text-decoration-color:#000000;text-transform:none;block-progression:tb;isolation:auto;mix-blend-mode:normal" white-space="normal" overflow="visible" color="#000" font-family="sans-serif" solid-color="#000000"/>
    <path d="M10.666 17.633c.17-.853.607-1.433 1.448-1.927.538-.317.752-.363.914-.2.142.143.183.43.085.594-.045.073-.333.306-.64.516-.64.44-.762.6-.864 1.13-.12.62-.29.76-.73.6-.26-.097-.31-.264-.22-.713zm-1.37-7.53c-.292-.285-.155-.587.377-.83.812-.368 1.46-.924 1.725-1.478.29-.604.523-.736.852-.484.685.53-.813 2.55-2.13 2.87-.443.11-.653.09-.823-.07zm.26 4.398c-.075-.04-.214-.21-.31-.37-.28-.48-.512-.62-1.31-.77-.228-.04-.323-.1-.37-.21-.092-.22-.046-.5.106-.63.115-.09.204-.1.653-.01.838.16 1.442.64 1.798 1.43.09.2.093.27.017.41-.116.21-.396.29-.577.18zm2.224 10.34c-.19-.09-.3-.24-.3-.41-.01-.23-.317-1.03-.54-1.39-.305-.49-.856-1.02-1.235-1.19-.178-.08-.522-.17-.762-.2-.538-.08-.644-.13-.726-.36-.074-.2-.024-.38.16-.55.116-.1.2-.11.565-.08 1.23.1 2.32.86 2.982 2.1.456.85.644 1.78.403 2-.204.19-.35.22-.544.11zm2.59 1.99c.195-.05.376-.16.48-.28l.166-.19.02-1.86c.01-1.02.013-5.6.003-10.16l-.02-8.3-.16-.3c-.28-.54-.74-.71-1.83-.69-1.52.02-2.44.43-2.99 1.3-.23.36-.37.46-.89.58-.73.18-1.56.68-1.89 1.15-.67.93-.95 1.83-.78 2.44.05.19.07.378.04.42-.03.05-.19.18-.36.3-.4.27-.6.67-.82 1.558-.26 1.08-.18 2.44.2 3.42.35.906 1.44 1.8 2.17 1.79.26-.003.57.12.64.247.2.37-.06.763-.49.763-.62 0-1.44-.31-2.01-.766-.21-.16-.4-.28-.43-.255-.1.06-.36 1.03-.43 1.58-.15 1.13.26 2.35 1.04 3.16.33.34 1.01.65 1.632.75.39.06.456.12.845.71.914 1.38 2.407 2.4 3.914 2.67.58.1 1.47.09 1.887-.02z"/>
    <path d="M17.38 5.004L16.202 6.18v11.332c-.268.162-.45.452-.45.782 0 .333.18.623.45.785v6.76L17.36 27h6.494l1.653-1.652c.07.02.147.033.226.033.502 0 .914-.41.914-.91s-.412-.91-.917-.91c-.505 0-.917.41-.917.92 0 .09.013.16.033.23l-1.384 1.39H22.42v-3.8l3.207-3.2v1.82c-.27.16-.455.45-.455.79 0 .51.412.92.914.92s.914-.41.914-.91c0-.33-.18-.62-.452-.78v-7.35l-2.113-2.11.336-.34v-3.1l-1.29-1.29c.02-.07.04-.15.04-.24 0-.5-.41-.91-.91-.91-.08 0-.16.01-.23.03l-.59-.6H17.4zm.382.924h3.633l.333.333c-.017.08-.03.15-.03.23 0 .5.413.92.918.92.075 0 .15-.01.22-.03l1.027 1.02v2.34l-1.603 1.6-.17.17c-.068-.01-.138-.03-.21-.03-.502 0-.914.42-.914.92 0 .51.412.92.917.92.502 0 .914-.41.914-.91 0-.08-.013-.16-.036-.24l.16-.16.89-.88 1.84 1.85v4.14L21.73 22v4.08h-3.98l-.62-.62v-6.38c.27-.16.455-.453.455-.788 0-.336-.186-.627-.457-.788V6.564l.636-.637zm4.85.117c.244 0 .436.192.436.435 0 .244-.192.436-.436.436-.24 0-.435-.192-.435-.436 0-.243.194-.435.435-.435zm-.74 6.903c.245 0 .437.192.437.435 0 .244-.2.436-.44.436s-.44-.2-.44-.44c0-.25.19-.44.43-.44zm-5.203 4.91c.24 0 .43.192.43.435s-.19.436-.44.436-.44-.2-.44-.44.19-.44.43-.44zm9.42 3.393c.24 0 .43.2.43.44s-.2.44-.44.44-.44-.19-.44-.43.19-.43.43-.43zm-.36 2.78c.24 0 .43.2.43.44s-.19.44-.44.44-.44-.19-.44-.43.19-.43.43-.43zm-2.08-1.55c-.14 0-.28.06-.38.16-.21.21-.21.55 0 .76.2.21.54.21.75 0 .21-.2.21-.54 0-.75-.11-.1-.24-.15-.38-.15zm0 .28c.06 0 .13.03.18.08.1.1.1.26 0 .36-.1.1-.26.1-.36 0-.1-.1-.1-.26 0-.36.05-.05.11-.07.18-.07zM22.3 9.33c-.29 0-.53.24-.53.534 0 .293.24.533.534.533.293 0 .534-.24.534-.533 0-.294-.24-.534-.532-.534zm0 .28c.14 0 .258.112.258.254 0 .142-.11.254-.252.254-.142 0-.254-.112-.254-.254 0-.142.112-.254.254-.254zm-4.01 2.837c-.29 0-.53.24-.53.534 0 .3.24.54.54.54.292 0 .533-.24.533-.53 0-.29-.24-.53-.534-.53zm0 .28c.14 0 .256.112.256.254 0 .15-.114.26-.256.26-.142 0-.254-.11-.254-.25s.11-.25.25-.25zm1.68-1.906c-.29 0-.53.24-.53.54 0 .3.24.54.534.54.295 0 .536-.24.536-.53 0-.29-.24-.53-.534-.53zm0 .28c.147 0 .26.12.26.26s-.113.26-.255.26c-.14 0-.253-.11-.253-.25s.11-.25.253-.25zm-.5 2.88c-.294 0-.534.24-.534.54 0 .3.24.54.533.54.29 0 .53-.24.53-.53 0-.29-.24-.53-.53-.53zm0 .28c.14 0 .254.11.254.26 0 .15-.11.26-.252.26-.14 0-.253-.11-.253-.25s.11-.25.25-.25zm1.16 2.52c-.295 0-.536.24-.536.54 0 .3.24.54.536.54.293 0 .534-.24.534-.53 0-.29-.24-.53-.536-.53zm0 .28c.14 0 .252.12.252.26s-.113.26-.255.26c-.145 0-.257-.11-.257-.25s.113-.25.255-.25zm-.607 7.36c-.293 0-.534.24-.534.54 0 .29.24.54.53.54.29 0 .53-.24.53-.53 0-.29-.24-.53-.53-.53zm0 .28c.143 0 .255.11.255.26 0 .14-.112.26-.254.26-.14 0-.25-.11-.25-.25s.11-.25.253-.25zm-.32-2.99c-.29 0-.53.24-.53.54 0 .3.24.54.535.54.294 0 .535-.24.535-.53 0-.29-.24-.53-.537-.53zm0 .28c.144 0 .256.11.256.26 0 .14-.11.26-.26.26-.14 0-.26-.11-.26-.25s.11-.25.25-.25zm1.967-2.29c-.294 0-.535.24-.535.54 0 .3.244.54.537.54.295 0 .536-.24.536-.53 0-.29-.24-.53-.532-.53zm0 .28c.14 0 .253.11.253.26 0 .14-.114.26-.256.26-.142 0-.254-.11-.254-.25s.112-.25.254-.25zm2.553-5.4c-.137 0-.276.06-.38.16-.206.21-.206.55 0 .76.21.21.55.21.758 0 .21-.2.21-.54 0-.75-.1-.1-.24-.16-.37-.16zm0 .28c.064 0 .13.03.18.08.1.1.1.26 0 .36-.1.1-.26.1-.36 0-.1-.1-.1-.26 0-.36.053-.05.115-.07.18-.07zM22.4 15.98c-.136 0-.275.05-.377.157-.21.21-.21.548 0 .756.21.21.547.21.755 0 .208-.207.208-.546 0-.752-.102-.1-.24-.16-.376-.16zm0 .28c.065 0 .127.025.18.075.103.1.103.257 0 .36-.1.098-.257.098-.36 0-.1-.103-.1-.26 0-.36.05-.053.114-.076.18-.076z" style="line-height:normal;text-indent:0;text-align:start;text-decoration-line:none;text-decoration-style:solid;text-decoration-color:#000000;text-transform:none;block-progression:tb;isolation:auto;mix-blend-mode:normal" white-space="normal" overflow="visible" color="#000" font-family="sans-serif" solid-color="#000000"/>
  </g>
</svg>
