<svg class="legal_section" xmlns="http://www.w3.org/2000/svg" viewBox="0 0 48 48">
  <path fill="#F0F0F0" d="M23.248 48c-2.325 0-4.29-.675-5.843-2.007-1.563-1.34-2.357-2.91-2.357-4.656 0-.85.31-1.583.923-2.178.63-.61 1.41-.93 2.26-.93.85 0 1.61.3 2.21.87.59.56.89 1.3.89 2.2 0 .53-.08 1.11-.26 1.74-.17.62-.2.93-.2 1.09 0 .17.05.37.37.6.6.41 1.32.61 2.21.61 1.07 0 2.01-.37 2.9-1.13.88-.75 1.3-1.52 1.3-2.35 0-.93-.25-1.73-.76-2.45-.86-1.21-2.49-2.63-4.83-4.21-3.76-2.51-6.26-4.68-7.65-6.63-1.075-1.54-1.62-3.19-1.62-4.91 0-1.74.57-3.47 1.7-5.14.966-1.44 2.393-2.73 4.25-3.85-.994-1.07-1.74-2.07-2.22-2.99-.604-1.16-.912-2.36-.912-3.57 0-2.24.89-4.18 2.648-5.76C19.97.8 22.166 0 24.726 0c2.36 0 4.34.66 5.895 1.962 1.57 1.317 2.36 2.855 2.36 4.572 0 .875-.33 1.658-.98 2.328l-.02.014c-.37.372-1.06.814-2.21.814-.9 0-1.69-.294-2.285-.85-.59-.554-.89-1.215-.89-1.967 0-.325.08-.816.25-1.546.09-.345.13-.663.13-.95 0-.484-.173-.856-.55-1.17-.39-.325-.945-.483-1.7-.483-1.17 0-2.132.354-2.94 1.083-.81.732-1.202 1.598-1.202 2.65 0 .944.22 1.723.64 2.314.808 1.13 2.205 2.34 4.156 3.61 3.96 2.56 6.73 4.91 8.213 6.98 1.1 1.56 1.652 3.21 1.652 4.92 0 1.72-.56 3.45-1.66 5.14-.95 1.46-2.39 2.78-4.28 3.93 1.04 1.1 1.78 2.07 2.24 2.93.57 1.08.85 2.26.85 3.5 0 2.33-.89 4.31-2.65 5.88-1.76 1.57-3.95 2.37-6.51 2.37zm-2.334-31.297c-2.27 1.358-3.376 2.915-3.376 4.75 0 1.066.306 2.02.936 2.918.938 1.31 2.79 2.91 5.5 4.75 1.145.78 2.182 1.54 3.087 2.26 2.31-1.38 3.44-2.92 3.44-4.69 0-.96-.38-2-1.14-3.09-.79-1.13-2.49-2.61-5.04-4.4-1.33-.91-2.47-1.75-3.39-2.48z"/>
</svg>
