<svg class="legal_section" xmlns="http://www.w3.org/2000/svg" viewBox="0 0 32 32">
  <path fill="#f0f0f0" d="M13.52 32c6.32 0 10.84-6.24 10.84-11.16 0-3.52-1.6-6.24-4.92-9.32-4.28-3.92-5.68-5.48-5.68-7.48 0-1.48 1.08-2.4 2.36-2.4.84 0 2.04.32 3.28 1.16.32.24.56.32 1.12.32.76 0 1.32-.72 1.32-1.28C21.84 1.12 21 0 18.76 0 13.04 0 8.12 5.72 8.12 10.48c0 4.16 2.36 6.84 5.2 9.68 2.24 2.24 5.56 5.32 5.56 7.68 0 1.6-1.56 2.48-2.76 2.48-.96 0-1.96-.2-3.4-1.4-.28-.24-.52-.36-1-.36-.88 0-1.4.72-1.4 1.44 0 1.16 1.32 2 3.2 2zm1.6-13.92c-4.8-4.8-5.04-7.6-5.04-9.36 0-2 .76-3.16 2.08-4.28 0 3.28 1.08 5 5.36 9.08 3.12 2.96 4.88 5.44 4.88 9.08 0 1.64-.32 3.2-1.92 4.64 0-3.24-1.4-5.16-5.36-9.16z" />
</svg>
