<svg xmlns="http://www.w3.org/2000/svg" class="section-logo" viewBox="0 0 32 32">
  <path d="M32 16a16 16 0 0 1-16 16A16 16 0 0 1 0 16 16 16 0 0 1 16 0a16 16 0 0 1 16 16zM8.5 19.75H11V18.5H8.5v1.25zm3.75 0h2.5V18.5h-2.5v1.25zM13.5 16h-5v1.25h5V16zM11 14.75h1.25l2.5-2.5H13.5l-2.5 2.5zm3.75 2.5h3.75V16h-3.75v1.25zm10-7.5H7.25C6.625 9.75 6 10.375 6 11v10c0 .625.625 1.25 1.25 1.25h17.5c.625 0 1.25-.625 1.25-1.25V11c0-.625-.625-1.25-1.25-1.25zm0 5v5.625s0 .625-.625.625H7.875c-.625 0-.625-.625-.625-.625V14.75H8.5l2.5-2.5H7.25v-.625s0-.625.625-.625h16.25c.625 0 .625.625.625.625v.625h-7.5l-2.5 2.5h10z"/>
</svg>
