<svg xmlns="http://www.w3.org/2000/svg" class="section-logo" viewBox="0 0 32 32">
  <path fill-rule="evenodd" d="M32 16a16 16 0 0 1-16 16A16 16 0 0 1 0 16 16 16 0 0 1 16 0a16 16 0 0 1 16 16zM19 9.423c-1.406.814-2.892 1.877-4.268 3.253-.878.88-1.586 1.734-2.156 2.535l-3.484.645L5 19.95l3.65.113 2.57-2.57c-.908 1.88-.988 3.126-.988 3.126l1.15 1.147s1.285-.122 3.178-1.038l-2.625 2.62.115 3.65 4.094-4.092.647-3.502c.81-.566 1.665-1.27 2.535-2.14 1.375-1.375 2.438-2.86 3.253-4.266-.898-.182-1.72-.556-2.37-1.204-.65-.652-1.028-1.475-1.208-2.373zm1.355-.727c.098.88.39 1.588.875 2.07.484.488 1.19.78 2.073.876C24.593 9.037 25 7 25 7s-2.038.407-4.645 1.696z"/>
</svg>
