<svg xmlns="http://www.w3.org/2000/svg" width="100" height="75" viewBox="0 0 16.66667 12.5">
  <path fill="#f0f0f0" d="M4.85762 11.57144c-.01083.01333-.0225.01667-.03917.025.015.015 0 .005.02667.01333v.0125h.01333v-.0125l.04-.01333c-.01166-.0125-.0225-.01667-.03916-.025m.3016-.06418c-.0334.03167-.135.03334-.1834.05v.01418h.0783c.0316-.03334.1083-.03334.1583-.05167v-.0125h-.0566m.1833-.05168c-.0167.0166-.025.02-.0525.025v.0133H5.34c.015-.0167.0234-.0184.0525-.025v-.0125H5.34m3.495-.0892c.015.0141 0 .005.0267.0125-.015-.015 0-.005-.02663-.0125m.11833-.025v.0116h-.0667v.0133h.07916v-.0134h.01332c-.0167-.0142 0-.005-.0267-.0125m-.95335-.4109c.08.0167.13915.0533.22332.0642 0 .0433.09165-.005.09165.0383.0458 0 .0833.025.1433.0275.0708.0042.14165 0 .2125 0 .08665-.0025.1725-.0083.2583-.0142l.1058-.0334c.0475-.0167.06336-.0559.105-.0559.0517-.035.09336-.0867.1567-.1025 0-.1167-.1517-.04-.1967-.1284-.14-.0317-.17082-.065-.32-.065-.05 0-.08332-.0284-.125-.0292-.06915 0-.13332.0291-.2.0291-.03082 0-.12665-.0025-.12665.025-.04667 0-.07667.0392-.11833.0392-.045.0866-.2083.0583-.2083.2041M1.716 9.662c-.03085.06084.1033.1892.1583.23086.02084 0 .09167.03163.09167.05.05416.025.15.03914.195-.0117-.09167-.0375-.16-.08668-.24833-.11668-.03334-.04167-.03334-.04834-.09167-.06334-.02083-.04-.05833-.07668-.105-.08918m.14417 0c0 .06834.12083.08.15833.11502.03.03167.09.055.14166.065 0-.06166-.0725-.05666-.10333-.1025-.03835 0-.05335-.015-.05335-.05002-.035-.045-.09583-.035-.14417-.02667m7.06912.3334c-.01417.055-.08333.1017-.13.13-.025.0142-.05.03-.07917.035-.00583.03-.01666.0442-.03916.0642 0 .035-.03918.0042-.03918.05-.0275 0-.0217.0333-.0217.055.0016.0833-.1367.07-.1584.0083-.0267-.07-.0817-.1167-.1334-.165-.0317-.0467-.04-.0417-.0917-.0517-.0384-.0467-.0434-.0617-.105-.0767-.0167-.0334-.1442-.0692-.1442-.09-.0567 0-.1084-.05-.17-.0642 0-.0375-.235-.0625-.235-.1034-.1134 0-.2084-.0692-.3334-.0834-.1309-.0142-.2692-.07-.3867-.07-.1609 0-.3834-.03-.5625-.0534-.0834-.0117 0 .0291-.075.0166-.0392-.0058-.0684-.0167-.1083-.0184-.1-.0067-.2017-.0109-.3.0083-.0384.0058-.2642.0017-.2642.0208-.08 0-.1225.025-.1959.03-.0583.0033-.4975.0358-.4975.0475-.1667 0-.2983.05-.475.0583-.0458.0033-.4017.05-.4017.0583-.0275 0-.17.0033-.17.025-.0934 0-.15.025-.2225.025-.0334 0-.38.0367-.38.0517-.045 0-.47.0283-.47.05-.14 0-.2334.0392-.3667.0392 0 .0333-.2617.05-.2617.0775-.0584.0083-.1125.01-.1309.0642-.02 0 0 .0767.0125.0767 0 .1641.0517.3142.0525.5 0 .2633.05.5292.0459.8151 0 .055-.0334.0792-.025.13.0116.0633.1708-.0225.2233-.0275.0416-.0033.0941-.03.105.0192.015.0633-.0584.05-.1067.0625-.1467.0333-.1.0366-.0584.1417.1291-.0434.2633-.1034.3916-.1034 0-.02.3333-.0775.38-.0775 0-.0284.2708-.0642.3141-.0642 0-.0417.3141-.0484.3141-.0775.0358 0 .3141-.0417.3141-.0634.155 0 .315-.0442.4833-.0817.1583-.0358.275-.0333.4166-.075.2266-.065.4608-.1042.6891-.16.0583-.015.4416-.0667.4416-.08.1367 0 .2191-.05.3525-.05.3783-.1208.8041-.21 1.1958-.2534.0633-.0083.1275-.0117.1917-.0108.0633 0 .0858.0366.1525.0275.0566-.0083.05-.0584.0966-.0584.0333-.05.1141-.1034.17-.1034 0-.0417.2483-.0684.2483-.1025.1525 0 .2941-.0484.4641-.01.0766.0166.1525.035.23.05.0333.05.0833.0616.1433.075 0 .0141.1416.0775.1566.0775.0417.0817.14.0108.2084.0141.1516.0058.2441-.0142.3808-.0142.1516 0 .3033-.0501.4583-.0501.135 0 .2683-.0391.41-.0391.0916 0 .1833-.025.275-.0267.125-.0025.25 0 .375 0 .3766 0 .7025-.0633 1.075-.0633.1816 0 .3666-.0384.535-.0384.1375 0 .275-.05.4058-.05.3775 0 .7416-.0525 1.1116-.0525.15 0 .3316-.0392.4833-.0392.1525 0 .315-.055.4775-.0417.2316.0183.1516-.15.1516-.3226V9.646c0-.1067.0283-.1884.0067-.2876-.0167-.0692-.1333.0058-.1783.0283-.055.0267-.1167.0434-.1692.0559 0 .035-.1691.0442-.1691.07835-.0284 0-.2617.055-.2617.0633-.1417 0-.2692.0392-.4142.0392-.1817 0-.3617-.0083-.5417-.0083-.0725 0-.1442 0-.2142.0133-.0642.01162-.155-.01088-.1917.0083-.1083 0-.1958.01162-.3416.01162 0 .025-.5167.02-.58.02083-.375.0058-.75.0433-1.1083.0433-.2 0-.4.025-.6.0083-.0583-.0033-.5-.0625-.5-.0208-.13-.0083-.9417-.06-.9417.025-.0367 0-.2358.0633-.2358.0891-.0917 0-.2417.1225-.3525.1792m6.7666-.8067c0-.09835-.1834-.0358-.1834-.09-.0883 0-.1475-.025-.2333-.025 0-.05-.4459-.0283-.4459-.0775-.0384-.0058-.1442-.0142-.1442.025-.0209 0-.1317.0417-.1317.0517-.1142 0-.2233.09-.3533.09 0 .0583-.38.0583-.38.1025-.1109.0083-.215.0517-.3084.0517-.0683 0-.125.0383-.2025.0383 0 .0283-.3667.0875-.4333.0958-.0892.01-.125.0442-.2217.0442 0 .03837-.2617.01336-.2617.0767.0967 0 .1867.0292.2875.0125.1391-.0225.3125-.025.4358-.025.1817 0 .3558-.025.5225-.025.1833 0 .3667.0017.5483.0025.1667 0 .335 0 .5-.0275.0808-.0125.15-.0275.2333-.0275 0-.015.1266-.03833.15-.03833.05 0 .1391-.0167.1633-.06334.0441 0 .125-.045.1833-.06337 0-.0308.1-.04664.13-.05164 0-.0233.1125-.0667.1433-.0767M11.375 8.906c0 .0083-.01418.0225-.01668.02083.03334.01665.02084-.0083.04333-.0083-.0125-.0117-.0083-.0067-.02667-.0117m-9.9591-.1924c0 .0892.17083.13753.2225.2042.12.04.22833.19336.34.19336 0 .025.205.1141.24166.1216.14334.0275.285.1358.4525.1467 0-.0367-.09333-.0684-.13083-.0892-.0516 0-.1083-.0584-.1433-.1025-.0766 0-.2725-.2467-.3141-.3192-.0291-.05-.03-.1734-.09-.1642-.0525.0083-.065.0358-.1316.0358 0 .0583-.3917-.0234-.445-.025m-.3541-.1542c.005.0533.03.1166.0791.1416.0183.0542.045.1183.0916.1417.01.0391.0517.1333.0917.1525.0167.05.0308.105.0783.1283.0125.05.06.1525.1042.1858.0233.0166.1042.1191.1042.1475.05.0366.055.0416.1084.06.0833.0283.1858-.0058.2717-.01.0375.05.065.15.1183.1667.0233.0458.0725.0416.105.09.0767 0 .125.0641.2083.0641 0 .0333.1984.035.24.03.0959-.0134.2192-.0309.325-.0309.1275 0 .2392-.0384.3609-.0384.055 0 .5917-.0667.5917-.0775.0933 0 .155-.0384.2458-.0384.13 0 .2692-.0383.3967-.0383 0-.0058.2309-.0384.2559-.0384.055 0 .07-.0292.12-.0309.05-.0025.1334.0283.175-.0083-.2291.0025-.46-.025-.6883-.025-.0366 0-.2666-.0125-.2666-.0267-.1433 0-.2533.0133-.4017.0133-.1166 0-.1916-.025-.2858-.025-.1392 0-.2775 0-.415.0042-.1083 0-.2192.0025-.3266-.0142-.09-.015-.1633-.0433-.2333-.0433 0-.0017-.3275-.1401-.3666-.1401 0-.0167-.1-.045-.1317-.05-.0233-.0475-.1567-.0709-.1567-.1034-.045 0-.1142-.0467-.1375-.0767-.0567-.0734-.175-.0859-.23-.1667-.0442 0-.06-.0384-.0875-.0684-.0475-.0525-.0858-.0292-.1233-.0917-.0416-.0725-.1458-.1708-.2225-.1858m6.4277-.076c.1667-.0025.3525.0516.4967.0516 0 .04.1567.0125.1567.05.0617 0 .0975.0475.17.0525 0-.1083-.2083-.0858-.2083-.1283-.0375 0-.21-.0666-.21-.09-.0875 0-.165-.0517-.2558-.0517-.055 0-.1184.0058-.19 0-.025.0667.0233.0558.0391.115M.1435 8.291c-.00166.04.01418.25587.065.25587.01918.08333.06084.13668.0725.20502.01667.0958.085.1666.105.2633.01917.0933.11167.175.11167.275.02667 0 .02.1291.065.1291.00667.0383.04334.1667.06667.1667.01335.055.105.3583.13.3583 0 .035.06835.2442.0917.2442.00832.0566.07165.3083.105.3083.01165.0783.03915.11.03915.1792.0333 0 .065.15.065.1792.0383 0 .0166.1025.0525.1025.0125.0833.05.1025.0583.1725.0058.0333.095.2884.1.2884 0 .0416.0466.23.0775.23 0 .0633.05.1058.0666.1725.015.0683.065.1166.065.1733.0383 0 .0533.2058.0916.2058 0 .1333.2617.0392.2617.0125.1316-.0142.24-.0817.3583-.0934.0533-.0058.375-.0734.375-.0984.1441 0 .2108-.0459.3533-.0667.04-.0058.1966-.0192.1966-.0484.08 0 .1833-.03.2775-.0534.0667-.0167.495-.1.495-.1134.0275 0 .1417-.0167.1417-.0392.0667 0 .1042-.05.1717-.05 0-.0042.2833-.0517.3141-.0517 0-.005.2383-.0775.2616-.0775 0-.0225.2916-.0892.3275-.0892 0-.0217.3383-.0859.3791-.09 0-.0184.3033-.0767.3416-.0767 0-.0184.46-.0642.5083-.0642 0-.0167.3542-.0642.3934-.0642 0-.025.3641-.0809.4191-.0892 0-.0334.3275-.0209.3275-.0767.0166 0 .1566-.0141.1566-.025.0608 0 .0367-.0233.1-.0316.0783-.0108.0525.0584.1108.0584 0 .0558.0467.0725.0917.1017.0358.0416.0458.0767.1042.0767 0 .0358.04-.0083.04.025.11 0 .1775.0733.2875.0833.1433.01.2208.0516.3808.0083.0267 0 .1959-.0025.1959-.0267.0733 0 .0933-.0384.1583-.0384 0-.02.1-.0317.1166-.0642.0558 0 .0783-.0633.1308-.0892 0-.0275.0608-.125.0975-.1467.1016-.0583.105.0433.1916.0667.1416.0417.3-.035.4433-.035.1458 0 .2533-.0517.3917-.0517.0975 0 .16-.0125.25-.0125.0866 0 .1225-.025.2-.0275.2224-.0067.3883-.0083.5916-.0208.3983-.0217.775-.1059 1.15-.1059.2042 0 .4317-.0125.655-.0125.1666 0 .39-.0383.5583-.0383 0-.025 1.1308-.0383 1.2116-.0383.0333 0 .4108-.0442.4108-.0517.16 0 .2966-.0384.4516-.0384.15 0 .3025-.025.4517-.05-.0275-.08-.3934-.1192-.3934-.1667-.0542 0-.0767-.0517-.1417-.0608-.0667-.0083-.045.0291-.05.0808-.0058.055-.0542.0725-.11.0833-.0692.0117-.125-.0017-.1858.0017-.1034.0058-.175.0225-.2717.0225-.05 0-.445.0142-.445.0392-.7517 0-1.39.0808-2.1367.1367-.1.0083-.2.005-.2983.005 0 .0316-.1583.025-.1967.025-.1641.0141-.325.0416-.5058.0333-.1792-.0083-.36.0183-.5417.0183-.0917 0-.195.0125-.2667.0125-.0667 0-.1584.025-.2267.025-.1875 0-.3917.025-.575.0667-.1042.0233-.2167.0166-.3217.0191l-.1667.005c0 .0133-.0684.03-.0834.0217-.0525-.0334-.2583.145-.2833.1833-.0567 0-.11.0767-.1709.0767 0 .025-.1567.0516-.19.0516-.0434 0-.4775.0217-.4775-.0133-.0584 0-.1167-.0384-.1692-.0384 0-.0025-.1633-.0642-.1833-.0642 0 .0025-.1316-.1025-.1441-.1025 0-.0809-.0517-.08-.1217-.0725-.0775.0083-.155-.0083-.2333.0025-.1083.0125-.2333.045-.325.045 0 .0275-.6542.1533-.7208.1533 0 .0291-.3292.0817-.3833.0867-.2384.0209-.4559.0684-.6892.1192-.1867.0417-.4.1284-.59.1284 0 .0308-.3475.06-.4067.075-.065.0166-.4584.0708-.4584.0917-.065 0-.1083.025-.195.025-.1125.0333-.2292.0558-.3433.0808-.0584.0133-.4034.0717-.4034.0867-.1166 0-.1941.0642-.3.0642-.025 0-.2891.05-.2891.0775-.1142 0-.2084.09-.3267.09 0 .0141-.1042.0458-.13.0525 0 .045-.1167.05-.15.0141-.0584-.0634.0358-.0817.0833-.0917.0025-.0692-.0358-.1-.045-.1534-.0042-.025-.0975-.2434-.1108-.2434 0-.0167-.0667-.1542-.0792-.1542 0-.0467-.0525-.0917-.0525-.1417-.0417 0-.035-.1283-.0792-.1283 0-.0184-.0275-.1151-.0525-.1151-.0317-.095-.1167-.1834-.1167-.2567-.0267 0-.0984-.1725-.1059-.2167-.0367 0-.07-.2059-.1042-.2059 0-.035-.0967-.2309-.1183-.2309 0-.0317-.1-.2434-.1167-.2434 0-.0834-.1058-.1442-.1058-.2434-.0583 0-.0817-.2692-.13-.2692 0-.1017-.1308-.2151-.1308-.3084-.0267 0-.0917-.215-.0917-.2434-.03 0-.105-.1667-.105-.205-.0333 0-.0641-.115-.0775-.1542-.0316 0 .0059-.025-.025-.025-.0369-.0677-.0044-.141-.091-.141m15.2499.1167c-.0559-.0067-.3917-.0367-.3917-.0525-.1634 0-.3084 0-.4767-.0217-.2-.025-.4034-.0375-.6059-.05-.1308-.01-.2517-.0559-.3783-.0559-.1184 0-.2334-.0667-.3109.0167-.0717.075-.215.1-.2834.2017-.0383.0083-.1417.0558-.1583.09-.0733.025-.0983.0583-.1625.0767-.025.0067-.15.0616-.15.0767-.0417.01-.165.0525-.1833.09-.0583 0-.2225.0366-.25.0892-.1375.0125-.1875.0533-.3.0725-.1317.0208-.2058.0683-.3283.0683 0 .0458-.3.0433-.3.0883-.2142.0333-.4117.0733-.6183.1367-.1117.0333-.2225.0683-.3334.1025-.0291.0083-.1475.0567-.1475.0683-.1.025-.1583.0775-.2616.0775 0 .045-.2617.0467-.2617.115.0634.0125.1125-.025.17-.0133 0 .0166.1684 0 .205.0017.1559.0033.3084-.0142.4634-.0142.14 0 .2725-.005.42-.0192.145-.0134.275.025.4025.0266.0983 0 .2083-.0067.3033-.0334.0616 0 .4166.0184.4166-.025.1142 0 .2167-.0367.32-.0417.2067-.0083.3892-.055.5917-.0967.1733-.0366.3483-.0683.52-.1166.0533-.015.1167-.0275.16-.0275.0458 0 .0767-.025.125-.025 0-.0108.3417-.0792.3858-.0833.1267-.0141.22-.07.3417-.0917.1042-.0192.1525-.0683.2417-.0683 0-.0417.2867-.0984.2867-.1542.0517-.0167.0942-.0767.1442-.0767.025-.0359.1059-.09.1442-.09.0417-.0542.0892-.0609.1309-.115.07-.0142.1308-.0484.1308-.1284m-8.09-.1416c0 .0667.015.0917.0775.0917.0334-.0567.0234-.065.0967-.065h.1725c.0833 0 .3717.0317.3717-.1167-.075.0083-.14.0434-.21.065-.0633.02-.11-.025-.1716-.0292-.1058-.0067-.225.04-.3375.0558m-5.3961 3.479c.1317 0 .0667-.6442.0667-.7442-.0417 0-.0359-.7051-.0792-.7051 0-.025-.0033-.1142-.025-.1142 0-.07.0083-.1234-.0467-.1667-.0475-.0375-.0384-.0734-.0917-.115-.0334-.025-.0717-.1017-.0717-.1417-.0192 0-.105-.15-.105-.1792-.0267-.0367-.05-.0584-.065-.1017-.0192-.055-.0792-.0817-.0792-.1417-.0184 0-.1084-.1633-.1184-.205-.0358 0-.1192-.1709-.1308-.205-.0467-.0308-.1042-.145-.1042-.1917-.0467-.0682-.1042-.1216-.1042-.1916-.0167 0-.0917-.1542-.1309-.18 0-.0375-.0558-.1167-.0916-.1417 0-.06-.0917-.1125-.1-.1717-.0213-.1153-.1271-.212-.1888-.302 0-.03-.0833-.205-.1167-.205 0 .0942.0208.175.025.2642.0041.0884-.025.1684-.025.2542 0 .15-.05.2134.025.3526 0 .0784.0916.1334.0916.2192.0367 0 .105.1875.105.23.0283 0 .1167.2334.1167.2684.0225 0 .095.1767.1058.2184.0533 0 .0541.2434.1166.2434 0 .07.0791.1084.0791.1792.035 0 .0625.2059.105.2059 0 .025.0833.2051.1058.2051.0275.1084.1166.1984.1166.2951.0333 0 .1225.2351.145.2942.025 0 .1058.1834.1058.2051.0283 0 .1041.1959.1041.2309.0283 0 .1183.1942.1183.2308.0216 0 .0558.1284.0783.1284 0 .0542.0566.105.065.1792M7.124 7.188c0 .175-.04.3667-.04.52505-.0134 0-.0017.1-.0059.1417-.0109.1117-.0025.2225-.0117.33337 0 .02-.025.1025.005.1025.0108.06338.035.0717-.0392.0892 0-.03-.0933-.0525-.1058-.1025-.0667-.015-.0917-.04833-.165-.03-.03.0083-.1625.03335-.1625.06835.02914.0058.1583-.0058.1583.01333.05586 0 .1.05.15585.05.0475.06253.075.0667.15334.08336.0558.01.0625.03.0966.0716.0558 0 .1042.0209.1567.0384.0983.115.145.1692.2716.26502.0558.0417.0916.1584.1475.1584.015-.09583-.0459-.1-.0867-.1767-.0475-.08832-.1375-.1117-.1617-.20834-.025-.01167-.0959-.10335-.1059-.1417-.0725-.01083-.1442-.03833-.1442-.10833 0-.0767-.0525-.1167-.0525-.1984-.0467 0 .0083-.4892.0267-.55 0-.0267.0033-.1417.025-.1417 0-.1083-.0042-.1884-.025-.3084-.035.0033-.0608.0192-.0917.025m4.7642 1.4877c-.0358.1034-.445.145-.445.23.1308 0 .2083-.0641.3142-.0641 0-.0183.25-.0833.3-.0916 0-.0083.2167-.0775.25-.0892.0383-.0125.2225-.1.2225-.115.0417 0 .1108-.025.1308-.0642.0642-.0208.1167-.0892.17-.0892.0267-.05.1167-.0466.1442-.1017.0633 0 .11-.1025.1708-.1025.0233-.0466.1083-.0691.1308-.1166.0634 0 .1192-.1167.1642-.1525.05-.0416.045-.0791.0917-.12.0333-.0266.0708-.0416.0708-.085.0458-.0225.0308-.0583.0783-.09.0166-.065.035-.05.0516-.115.0334-.0166.0833-.1166.0917-.1541.0367-.0166.0783-.0792.0783-.115.0334 0 .03-.07.025-.1025-.095-.0167-.1933-.02-.2917-.0192-.195 0-.4067-.0133-.6.0134-.1108.0167-.0858.1183-.1167.21-.0267.0833-.0625.1583-.0767.245-.04 0-.0558.1809-.105.205-.0392.115-.1.2501-.1967.3201-.0117.0484-.0525.1284-.1041.1284-.0417.0583-.0775.0917-.1442.1417-.1183.115-.2308.2617-.4058.2942M5.2507 7.111c.05 0 .15833-.075.15833-.12836-.0917.0125-.15836.0333-.15836.1275m1.65-.1667c-.2217 0-.36.1267-.5634.1667 0 .025-.1291.06666-.1566.07666-.0367.07084-.0867.08835-.15.13335-.065.05.1183.1617.15.1875.0333.05.1333.1375.1958.1533.04334.06337.1.0892.15834.1542.1084.025.2109.17254.2867.25505.045.035.1417.18586.1634.075.0225-.11-.0058-.19584-.0058-.3117 0-.175.0209-.37337.0459-.57006.0083-.05835.015-.065.0725-.0775-.0042-.0375-.0225-.0725-.0333-.10837-.0266-.0875.0434-.16334.0467-.25002-.0767.0192-.1358.17086-.105.24337.0667 0-.0225.1625-.065.0383-.035 0-.04-.13086-.04-.1667m-1.885-.17668c-.1216.2667.1359.08667 0 0M.2636 7.1375c.005.1217.11665.2167.11665.3084.04334.01917.08.1042.08.14002.0525.025.04167.08.07834.115.0416.04168.0525.12253.105.16087.05.0375.0416.1033.0916.1417.0358.025.0791.0983.0916.1466.045.0333.1225.0975.1433.14.025 0 .0216.05.0666.0642.0333.0516.0417.0275.0833.0766.0292.0333.0983.0892.1383.0892.0208.0391.0783.0541.125.0641.0983.0225.15.065.2558.065 0 .0217.2366-.0083.275-.0125 0-.0067.1-.0717.1183-.075.0583-.0083.0767.04.0767.0808 0 .0616.0391.0917.0391.1608.0167 0 .07.1042.0775.1275.0525.0133.1033.095.1442.1283.0392.0766.2217.1917.2883.1917 0 .0275.1166.0366.1166.065.0583 0 .0958.0291.1708.0383 0 .0233.3383.0383.3933.0383 0 .0067.3892.0417.45.0417.1084 0 .2183-.0125.3283-.015.1234-.0033.2417.025.3634.025.2208 0 .4058.0125.6308.0125.0416 0 .2291-.01.2291.025.0708 0 .2942.0333.3317.0083.045-.0284.1625-.0083.2183-.0083.0833 0 .1192 0 .1967.0033.1966.01.37.0367.575.0367.1691 0 .3566.0375.5216.0775.065.0167.3433.0467.3433.0892.0916 0 .1625.06.2616.0766 0 .0108.1917.1025.2225.1025 0 .0142.1583.0917.1967.1017.025.05.1.075.1433.1275.0533 0 .0941.0983.1583.1167 0-.0892-.0384-.1567-.0792-.2317-.0117-.0442-.05-.1142-.0792-.1417-.0459-.0442-.0567-.1084-.1167-.1525 0-.0717-.125-.1275-.145-.2051-.1183-.0784-.175-.2167-.2867-.3084-.0208-.0584-.0933-.08-.1441-.1217-.0692-.0559-.0667-.1167-.1309-.1601 0-.0042-.1025-.0834-.125-.1025-.0467-.0392-.075-.0792-.1108-.1284l-.1567-.05c-.0684 0-.075-.055-.1442-.0775-.0367-.0117-.1442-.05-.1442-.0775-.0725-.0233-.1-.0525-.1667-.0467-.0883.0083-.1692.0025-.2583-.0067-.0867-.0083-.1-.0383-.1-.125.0367 0-.0083-.0383.0267-.0383.0367-.0392.0733-.0209.1167-.0058.0816.0292.175-.0367.25-.0584.1333-.04-.045-.1-.0792-.1667-.05 0-.1542-.1167-.1917-.1584-.0583-.0642-.1266-.0917-.1875-.1625-.055 0-.1475-.1125-.1833-.1533 0 0-.105-.065-.105-.0892-.0817-.02-.1117-.075-.1958-.1025-.02-.0401-.1083-.0884-.1583-.1067-.0917-.0334-.0917.2083-.155.2083 0 .0383-.1084.2317-.105.2317 0 .0533-.0167.1125-.0375.1725-.0292.0867-.0542.1417.0433.17.1358.0416.3583-.1059.4716.0416.025.0334.0467.0217.0734.0517 0 .0217.0466.12.0733.1333.0634.0333.19.0725.0834.1525-.0541.0417-.1666.0067-.2191-.0183-.0267-.0125-.0809-.0334-.095-.0625 0-.1059.0808-.0534.1433-.025 0-.13-.1333-.2026-.2442-.2142-.0166 0-.1366.0083-.1366.0225l-.3266-.0124c.0283-.1984.0775-.3309.1167-.5251.0484-.025.0725-.1542.1059-.1542 0-.0525.0416-.07.0533-.1283.0417-.0208.045-.0833.0392-.1283-.0667.0125-.0559-.0059-.1167-.0134-.0417.07-.1.0883-.1709.0767 0 .0483-.065.2567-.0783.2567 0 .0858-.075.1725-.1042.2559-.0233.0691-.085.1083-.0833.18 0 .0875-.0108.0958-.0917.0708-.0608-.0167-.165-.0183-.2166-.0183 0-.0475-.14-.01-.1667 0-.0883.0333-.1483.0383-.2433.0383-.06 0-.1067-.0083-.18 0-.0667 0-.0942.0125-.1634.0125-.125 0-.225.1542-.255.2817.0933 0 .1517-.1416.2558-.1416.0208 0 .1116-.0042.1116-.025.0608 0 .1167-.0134.19-.0134.1108 0 .2725.0517.3333-.0383.0459 0 .0692-.0267.125-.0333.0317-.0033.065-.005.0984-.005.0067.0183.0334.0767 0 .0767 0 .0275-.1416.0333-.1708.0391 0 .0117-.045.0375-.065.0375 0 .0292-.1125.035-.1308.0892-.0209 0-.0784.0584-.0917.0775-.0417 0-.0933.025-.1442.0384-.0417.0134-.075.0567-.0834.0984-.01.0617-.0416.1234-.0475.1834.0434 0 .2359-.1917.2359-.2167.0583 0 .095-.0392.17-.0517 0-.0317.155-.0583.1966-.0642 0-.0167.0967-.0584.125-.0692.0834-.0292.0959-.0309.1234-.1109.0733 0 .075.0083.0791.0833.0042.0975.0133.1959.0133.2884.0225 0 .055.1383.0567.17.0033.0608-.0034.1317.0208.19.02.05-.0733.0975.015.1267.0133-.0609.0142-.0984.0142-.1534.0208 0 .025-.1167.025-.1417.0283 0 .0367-.2309.04-.2684.0108-.0333.025-.0667.0333-.1.0167-.0733-.0292-.0308-.0608-.0775-.025-.0367.0125-.0525.0216-.09.0141-.0583.025-.04.0833-.04.0683.0808.085.075.1933.0666.0734-.005.125-.0283.2142-.015.1066.0167.0958.1283-.0134.1 0-.0366-.1867 0-.2134 0-.0867 0-.1058-.0058-.1417.075-.0108.025-.0225.1692-.0375.1692-.0108.1026-.0267.1651-.0267.2692-.0192 0-.0392.1267-.0392.1542-.035 0-.0067.1467-.025.1792-.0883.0434-.0783.0667-.1583-.025-.0417 0-.0109-.155-.0125-.1667-.0525 0 0-.4233-.0784-.4233 0-.0775.0184-.1967-.1-.1767-.025 0-.0391.0125-.0433.0359l-.0784.0133c0 .045-.0783.0067-.0783.0517-.0975 0-.1934.1025-.2884.1025 0 .0366-.1625.135-.1967.18-.0025 0-.0267.1017-.0517.1233-.0667.0584-.0833.0684-.1708.0684 0-.1067.0525-.1459.0666-.2434.0217 0 .0525-.2167.0525-.2559.0183 0 .0292-.0525.065-.0642.0108-.04.0383-.0642.0733-.0642.0442 0 .1833-.025.2025-.0892-.105-.0391-.2617-.0208-.3667.0125 0-.0042-.1775.0717-.2017.1034-.0133.0283-.0375.0417-.0725.0383 0 .0334-.0183.0542-.05.0642-.0467.0559-.1208.0917-.15.1534-.0267.0609-.0891.1317-.0983.025.0108-.0291.0058-.0416-.015-.0366 0-.075-.0117-.0125-.0333-.0558-.0358-.0691.06-.085.06-.1117.0683-.0366.1083-.0191.1308-.1025.0383-.0191.0383-.0892.0667-.0892 0-.0558.0641-.0916.0641-.1541.0467-.0684.0567-.1142.1442-.1142 0-.025.1016-.025.1308-.025 0-.0333.3416-.0183.385-.0167.1108.005.165-.0484.2833-.0484 0 .025.0266-.0058.0583 0 .0833.0166.1417.02.2292.0125.025-.1084.1016-.1834.1391-.2901.0167-.0442.0867-.3117.0959-.3117-.0058-.0234-.0133-.045-.0233-.0667-.0117-.0367.01-.0417.01-.0875.0125-.0375.05-.1417-.0133-.1417-.0392.0892-.13.0583-.1433-.0184-.0217-.1184-.0559.0167-.1317.02 0-.0917.065-.12-.0608-.1617-.11-.0358-.2167-.0692-.3317-.0692 0-.0283-.54-.0542-.6267-.0534-.4359.0067-.7667.0542-1.2084.1384-.1275.0225-.235.0416-.3642.0416 0 .0334-.1442.0059-.1442.0392-.1875 0-.3109.1033-.5059.1333-.0833.0117-.1316.0459-.2141.0459 0 .0067-.2858.0308-.33.0333-.2625.0192-.4916.0184-.7558.0184m12.4748-.3975c-.1458.0116-.2366.0517-.3725.0517-.1333 0-.28.0133-.4116.0375.0309.0917.075.135.0917.2167.04.0208.0467.155.0784.155 0 .0625.05.1133.0584.1733.0166.1042.0458.1667.0458.3017-.0017.0459 0 .3717-.025.3717 0 .06-.0233.2084-.0791.2501-.0167.0117-.0667.0692-.0667.0834-.045.0142-.1042.0767-.1167.115-.015 0-.0958.0584-.105.0767-.0333 0-.1308.0892-.1308.115.1025-.01.15-.1.2358-.1275 0-.0117.1025-.0633.1217-.085.0516-.0583.1125-.0817.1666-.1333.0808-.0767.1417-.1617.2133-.2442.0417-.05.07-.0583.0875-.1267.0417-.0266.0783-.0883.0783-.1275.0217 0 .08-.1333.0859-.1667.015-.09.075-.17.1-.2567.0483-.1608.0766-.2917.0766-.4609.025 0 .04-.2166.0392-.2442-.0083 0-.0433-.0316-.0783-.0391 0 .025-.075.0167-.0916.0642m-7.475.205c.0466-.0017.1033-.0134.1433-.0384.0133-.0267.09-.0767.1183-.0767.0067-.0134.2233-.1667.1108-.1667-.0416 0-.0875.0417-.1108.0767-.0417.0108-.14.0683-.1583.1025-.0667.03-.1417-.0084-.1033.1025m5.7083-.3201c0 .1134.1983.1376.25.1934.02.02.0866.0667.1166.075.0641.0183.0891.0917.1691.1025.0167-.08-.0083-.13-.025-.205-.05-.01-.1083-.0525-.1442-.0525 0-.0433-.3-.1-.3667-.115m-6.035.14c.0134-.0717.0309-.1167 0-.1792-.0266.0067-.0416.0217-.0441.05-.0016.0142-.0858.1167-.0333.1167 0 .0416.0633.0125.0775.0125m1.7667-.205c0 .06.0617 0 0 0m-1.6617 0v.0642c.0692-.0183.0867-.065 0-.065m.1833.1417c-.0109.1334.0433.0717.1266.03.0417-.0208.0667-.06.0958-.095.055-.0375.1225-.0525.1834-.0767-.0208-.0208-.0333-.0266-.065-.0333-.0566-.0083-.0683.0334-.1191.0334 0 .0234-.0459.0192-.065.0384-.0334.0316-.1034.09-.1584.1025m1.1783-.1534c.0683 0 .1142-.0884.1183-.1534-.0692.0166-.11.0816-.1184.1533M5.4993 6.42c0 .0725.115.02167.13084-.025l-.13084.025m.7583.23v-.07752c-.10832.02167-.14165.03917-.23332.115 0 .04502-.05333.0642-.06667.1167-.0333 0-.0066.05-.0391.05 0 .05-.0625.07918-.0583.12752 0 .03083-.0583.07334-.0583.01416-.0166 0 0-.06667 0-.09-.075.01416-.0641.025-.0933.09167-.0225.05334-.0466.105-.05.1642.1.04416.17.125.2867.12834.0617-.07168.0959-.13835.1834-.1667.05-.01666.075-.04583.1309-.06417.0184-.03333.1059-.02917.1059-.0625.035 0 .3667-.09752.3667-.12835l.2358-.0375c.0125-.035 0-.0525-.0391-.05168-.01-.05668.0067-.07334-.0583-.08-.125-.0125-.0541.10584-.1641.11834-.0125-.065.0167-.15-.0583-.1583-.075-.0083-.0833 0-.1-.0725.0367 0 .115-.155.1192-.205-.0833 0-.1066.1359-.1533.1967-.0441.0584-.0833.0625-.1366.0309-.0133-.0083-.0916.0417-.1166.0417m-.5633-.2692c0 .0917.0617 0 0 0m1.5583.1417c-.0083.03-.025.05-.0533.05-.0233.0701-.0633.0917-.065.1792.025 0 .0617-.0783.105-.0891 0 .0267.005.05-.0083.0917-.0166.0484-.0183.12-.0216.1642-.0033.0559.0033.1317.0033.1667.0392-.0108.04-.0433.0442-.0816 0-.0308.0167-.05.0483-.0583.0059-.015-.0183-.0667-.0191-.0792-.0016-.055.0542-.0725.1-.0808.0767-.0141.075-.0391.1042-.1108.0267-.0667.0917-.06.1034-.1534-.0784.0125-.0834.0209-.1225.0892-.055.0967-.0609.0059-.0609-.05.0667-.0416.0867-.1308.1708-.15.0642-.015.05-.0733.0375-.1334-.0583-.0208-.06.0067-.11.0334-.0967.0483-.1475.1834-.2567.2109m2.1867-.1667c-.0167.0917-.0767.1167-.1183.1834-.03.0475-.0833.0442-.105.0859-.0417 0-.0725.0275-.1308.0375 0 .0267-.135.04-.1708.05-.3958.1267-.7775.0917-1.2042.1034-.0083.0534-.0233.1209-.0542.1667-.0292.045-.0542 0-.0633-.0266-.0442 0-.0442.0359-.0792.06-.05.0334-.045.0417-.0567.1025-.0133.0625-.03.0417-.0875.0417 0 .1067-.0225.2067-.0533.3067-.0117.0384-.0167.2584-.0384.2584 0 .0767-.0133.165-.0133.2584v.1458c0 .1117.1417.025.21.0067.185 0 .2959.0225.4634-.0266.105-.03.5617-.1467.625-.0525.0792.1183-.355.0725-.355.1441-.0467 0-.2558.1501-.2442.1584.0359.0308.0867.0466.125.0466 0 .0283.1084.05.1317.05.0733 0 .0783.0633.15.095.05.0225.26.055.1417.1384-.075.0534-.1583.0367-.2525.0367 0-.015-.0833-.0383-.105-.0383 0-.04-.3808-.0966-.4367-.1041-.05-.0083-.1017-.0108-.1533-.0117 0 .065.105.15.1583.1917 0 .0433.0416.0833.0516.1417.0583.0375.0883.1317.12.18.0216.0333.0366.0391.0366.0833 0 .04.0384.06.0667.095.0167 0 .0867.1084.11.1284.0684.0583.0892.1183.1642.1792 0 .0583.0984.1083.1184.1667.03 0 .0584.1117.0917.1283.0225.065.065.0958.065.1525.0392 0 .0059.07.0467.0833.0442.0142.2833-.3084.35-.3567.0333-.025.075-.015.075-.06.0308 0 .0125-.025.0525-.025.0217-.0333.0792-.0775.1167-.0775 0-.0433.26-.125.3142-.1417.0208-.04.1183-.0467.1183-.075.025-.0083.1558-.0525.1558-.065.1017 0 .2034-.0817.3084-.0959.1108-.0166.1691-.075.2941-.0958 0-.0667.3142-.075.3142-.1283.1183 0 .1783-.0567.3-.0767 0-.05.1975-.0484.1975-.1025.0416 0 .135-.035.1566-.0776.0225 0 .1183-.025.1183-.05.0392-.0142.0784-.0267.1167-.0392.0333-.0442.0333-.05.0917-.0642.0167-.0333.1084-.1025.145-.1025.0434-.0317.0817-.1792.1309-.1792.0083-.0383.0417-.1417.0667-.1417.0067-.03.0934-.23.0917-.23 0-.0883.03-.1975.0317-.3017.0017-.0475-.0375-.2109-.0725-.2109 0-.0633-.0783-.1333-.0783-.1917-.0083 0-.0284-.0366-.0392-.0525 0-.0525-.0767-.075-.105-.115-.0683-.0467-.1317-.1475-.2233-.1533-.0109.0616-.005.125-.0083.1883-.0042.0783-.0942.0583-.15.0383-.025-.0083-.05-.0108-.0775-.0083-.035-.0583-.0359-.0867-.105-.1033 0-.0192-.1025-.0584-.1184-.09-.0958-.0234-.1417-.0975-.235-.1275-.0333-.0667-.1417-.0584-.1708-.1167-.0383 0-.04-.025-.0783-.025-.0384-.0584-.0817-.0567-.1558-.0692-.0975-.015-.0583-.1084-.1442-.1359-.0375-.0558-.08-.0475-.1183-.1025-.0517-.0125-.0725-.0633-.1167-.0633-.0292-.0567-.1001-.0308-.1559-.0142-.0858.025-.1667.0625-.2567.0692-.0983.0084-.1958.0142-.2942.0217m-2.423-.129c.0142.015 0 .005.025.0134-.0142-.015 0-.0058-.025-.0133m-1.5835.0132c-.0058.0208-.01.0416-.0141.0633.0584-.0058.1442-.035.1442-.0892-.0475 0-.0875.0166-.1316.025m.5625-.0384c.05-.0084.0617.0016.0783-.05-.05.01-.06 0-.0775.05m2.095-.025c.0808-.015.0792-.0392.0792-.0892-.0525.0141-.0783.0416-.0783.09m2.6192.2567c.0484.0141.3917.11.3917.115.11 0 .1859.0616.3017.09.0183.0358.06668.0517.105.0517.02168.04.0783.0608.1183.0891.0975 0 .1308.1358.25.1542-.01-.09-.0783-.1501-.1058-.2309-.0475-.0225-.10332-.2167-.1442-.2167 0-.0617-.0625-.13-.07832-.1917-.0017 0-.0617-.1084-.1025-.1334-.0234-.0142-.0584-.0209-.0809-.0209-.0142-.0292-.0375-.0392-.065-.0392-.01833-.025-.105-.0609-.105-.0767-.0417-.0333-.0917-.0867-.1167-.0125-.0317.015-.0417.04-.0467.0708-.0125.0583-.08.0958-.125.135-.0308.0916-.1958.1283-.1958.2167m-3.1683-.4859c-.0117.0333-.0192.1-.0584.11-.05.0125-.0625.035-.05.0858.025.0933-.0533.1133-.075.2.0867 0 .1584-.1084.1584-.1917-.0033 0 .0634-.175.065-.2051h-.04m-2.4083.3201l-.0125.1283c.0167.0125.0392.0317.0392.0517.0358 0 .025-.0559.025-.09.0366 0 .0583-.0384.0916-.0384 0-.0109.0191-.0392.0275-.0517.0333 0 .0916-.1134.1041-.1534.05-.025.0975-.0734.105-.1284.0333 0-.0084-.0375-.0525-.0317-.07.0083-.05.0584-.1042.0584-.0309.02-.0617.0416-.0917.0633 0 .0208.015.1025-.0134.1025-.025.0667-.0417.0892-.1183.09m2.7367-.3832c-.0025.0375-.0217.065-.0267.1017.0625-.0058.0783-.0475.0791-.1025h-.0525m-.0392 0c-.0475 0-.1584.0042-.175.0617-.0084.025-.0384.1567-.0609.1567-.0042.025.0133.05.0333.0633.0583.0383.0808-.035.1108-.075.0416-.0217.0333-.06.0391-.1034.045-.0217.05-.0558.0525-.1025m-1.27.0125c-.0084.1-.0984.1167-.1442.1917.105 0 .245-.0834.25-.2042-.0375 0-.0708.0067-.1058.0125m.5625-.1417c0 .0608.0933 0 0 0m-1.925.2965c.0183-.085.0358-.05.09166-.09.0441-.085.1316-.115.145-.2058-.125 0-.1317.09-.2359.1417 0 .0717-.135.1534 0 .1534m2.68336-.32c0 .09.0917 0 0 0M5.6694 6.1l-.0133.06417c.2.03333-.0275.08334-.0275.15418.07665-.0025.14665-.03334.21915-.05334.0542-.0166.0667-.0366-.0033-.0366-.0716 0-.065-.045-.0058-.0642.0584-.0192.045-.0625.1167-.0642.04.0317.125-.025.1617-.0416.0375-.0166.09418-.0216.12668-.0216 0-.0358.11084-.0383.13084-.0775.07667-.0192.05-.0442.10417-.0833.03916-.0291.105-.1058.105-.1608-.03584.005-.1967.0567-.1967.09-.08832 0-.15.1234-.25.1301-.025.0025-.14165-.0208-.14165.025-.0792 0-.2417.1033-.3284.14m-.615-.2434c0 .0317-.0067.0584-.0134.0901.0608 0-.0125.025.0667 0 0-.0542-.0167-.0784.0333-.1059.0683-.04.1391-.1083.15-.1892-.0667 0-.0917.0684-.1584.0901-.0284.0559-.1.035-.1167.1025.0133 0 .0233.0084.0383.0134m3.1808-.23c-.0417.0892-.0292.1367-.0125.23.0692 0 .0608-.23.0125-.23m-4.0975.115c-.0233.0875-.1567.0584-.1567.1417.1375-.0017.4108-.1333.4317-.2834-.095.025-.1617.1275-.275.1417m.8641-.1667c-.0167.0783-.0984.1108-.105.1917.105 0 .2524-.1917.105-.1917m3-.0142c0 .0917.0616 0 0 0m-1.6883 0c.0217-.0083.0308-.0042.025.0125-.0183-.005-.0125 0-.025-.0125m-.2875-.0134c0 .0817-.0467.0567-.1192.0642 0-.0567.0625-.0625.1183-.0642m-.08-.115c.125 0 0 .0892 0 0m.9167-.0267l-.0133.0384c-.0866-.0283-.0733 0-.1441 0-.065.085-.0817.0367-.17.025 0 .0959.0083.0859-.0684.1284-.0467.025-.0833.0667-.1333.0875-.065.0275-.0867-.01-.15-.01-.0208.0525.0067.055.0125.1034-.0233-.0083-.045-.0167-.0667-.0267-.0375-.0108-.0367.0142-.0775.0142 0 .0309-.0234.0667.0441.0834.0417.0108.1108-.0167.1392-.0583.0708-.0209.1033-.0417.1566-.0775.05 0 .0533-.0384.1183-.0384.0458 0 .1683-.0584.1833-.1017.1292 0 .24-.0584.2484-.1792l-.0783.0125m-1.807-.0384c-.0609-.01-.1834-.0059-.1834.09-.1209.0583.0083.1167-.0567.1567-.0691.0416.0717.085.075-.0167.0034-.0717.0034-.0733.0734-.115.035 0 .0916-.0775.0916-.115m3.6.6667l-.1308.0125c-.0267-.0667.0058-.0725.02-.1275.0083-.03.0042-.0667-.0208-.0917.0033-.02-.0084-.025-.04-.0117l-.0309.1167-.0458.1717c-.0183.0692-.0583.065-.0817.1233-.0083.0192-.0083.045-.0267.0584-.0334.0284-.0767-.0083-.0784-.0066-.0467.015-.1033.1617-.1033.1901-.0525 0-.035.1284-.1308.1284 0-.0542.0267-.0917.0392-.1417-.0709 0-.0667.085-.1309.1167 0 .0525-.05.085-.0667.1417.1267.0217.2667 0 .3942 0h.2084c.0625 0 .0917-.0267.1517-.0267.0559 0 .425-.075.425-.1025.0725 0 .1267-.0642.1834-.0642.025-.0366.055-.0566.0916-.0833.025-.0166.0459-.0958.0667-.0958 0-.1517.3417-.1042.4633-.1309.0625-.0133.1642-.0208.1642-.0867-.08-.0267-.1559-.075-.2225-.1542-.0359 0-.0709-.0333-.0917-.0641-.0334 0-.0725-.0334-.0959-.06-.075-.0833-.1633-.1116-.235-.1916-.0792-.0891-.1875-.1317-.2583-.2225-.0367 0-.0517-.0166-.0517-.0525-.0167.0042-.0283-.005-.0333-.025-.0267-.0358-.0417-.025-.0834-.025 0 .0192-.035.0917-.0442.125l-.075.2834c-.0059.0333.0133.1017.0133.1417-.0833.0308-.0683-.0533-.0917-.115-.0667.0466-.0375.1775-.0534.2683M5.1989 5.331c.005.02836.02335.0917-.02915.0942-.04586.0017-.195.1117-.1.1317.0858.01833.225-.2267.1283-.2267M4.49 5.2918c-.0083.0367-.02665.0625-.05164.09004-.045.02165-.0333.06916-.03915.115-.0133 0-.1166.0917-.1166.1025.0559 0 .1567-.03583.1567-.10333.0267 0 .0858-.1567.0917-.205h-.04m3.8883.3458c.0125-.07.0133-.1417.0133-.2167.0583-.0392.0533-.23-.0109-.1117-.0417.0792-.1859.3067-.0033.3292m-2.7876-.37c0 .0417-.0667.1467-.1308.1017-.0584 0-.0309-.0475.0025-.065.0416-.0217.08-.0358.1283-.0375m-1.375-.0133c-.05 0-.1567.125-.1833.1792.0641 0 .1683-.115.1833-.18m3.9275-.0133c.0083.0384.0267.1225-.0217.1367-.0417.0117-.0433-.025-.0833-.0333-.0216.0384-.0583.0775-.1041.0892-.0066.0333-.055.1275-.0783.1275-.03.0584-.0608.02-.0667-.025.0417-.0283.0784-.0725.0917-.1225-.0033-.0417.015-.0583.0533-.045.0084-.025.0217-.045.0417-.06.0608-.0483.0917-.0683.1667-.0683m-.3917 0c-.145 0-.1583.2084-.1833.3209.075.0275.0808-.0441.1117-.1025.0367-.0683.0667-.14.0717-.2183m-.7725.0134c-.005.0517-.0275.1025.0392.1025.0125-.0625.0525-.0625.0525-.1167-.0316.0017-.0608.0084-.0916.0142m-2.5525-.09c-.055 0-.1792.105-.1309.1667.0642-.0183.125-.1.1309-.1667m3.5483-.0358c0 .0558-.0083.07-.0666.0767 0-.0608-.0033-.0733.0667-.0766m-.4459 0c0 .0584-.0383.1067-.105.115 0-.0683.025-.1108.1042-.115m-2.6441.1533c.08 0 .15-.0833.17-.1667-.0775 0-.1684.0834-.17.1667m-.3142-.2042c-.0917.1067-.0684.1017.025.1017 0-.03.0475-.0266.0583-.0566.025-.0633-.0392-.0458-.0833-.0458m3.7833-.0142c.0917 0 0 .0916 0 0m-.3417.0133h-.025c-.0041-.0309.005-.0442.025-.04v.0391m-2.25-.04c.1109 0 .0059.015.0734.0334.045.0133.0167-.0083.07-.0083 0 .1067-.0817.0709-.1183.1417-.0308 0-.1141.1-.1566.025 0-.075.0683-.1.1442-.1017-.0167-.065-.0334-.0333-.0134-.09m1.3084-.05c0 .0967-.0192.1142-.1167.1142 0 .0225-.0275.0334-.0475.0417-.035.0142-.0833.1017-.0833.0083.1167-.0283.1142-.1667.2483-.1667m-1.9368-.0068c0 .0933.0917.015.0917-.0392-.0333.0067-.0583.0292-.0917.0383m1.6233-.09c.1317 0 0 .1358 0 0m-.7333-.025c-.01.0483-.01.075-.065.0892.0042.0209-.0083.025-.0392.0125.005.05-.0166.0684-.0666.0517-.0166-.0475.0017-.0692.0534-.0642.0017-.0191.0083-.0358.0192-.0516.0266-.0333.06-.0383.0983-.0383m-1.3483.3717v.0384l.1308-.0133c.0067-.0384.025-.0709.04-.1067.0125-.0284.0783-.0467.0783-.0725.0459 0 .1125-.08.1434-.1167.065 0 .1025-.0917.1309-.1284-.0333 0-.1316.0317-.1316.0775l-.105.0117c-.025.0309-.0366.0642-.0783.0642-.0166.0225-.035.0433-.0525.065-.025 0-.0133.04-.0283.0625-.0291.0433-.075.1025-.13.1167m-.825-.3584v-.04c-.0375 0-.235.0392-.235.0775.0817 0 .1467-.0275.2359-.04m2.3433.2184c-.0083.035-.035.0559-.0683.0667-.05.0183-.0333.0334-.0708.065-.06.05-.105.0534-.1483.125-.0183 0-.1183.045-.1183.05-.0525.0375-.0716.0784-.1433.0775 0-.0708.0167-.0566.0783-.0766.0084-.0309.0292-.0434.065-.0384.0025-.0209.0125-.0359.0292-.045.0792-.0317.0892-.0584.1417-.1084.0267-.0267.0334 0 .0525-.0392.0692-.0134.0459-.0217.0875-.0642.0392-.0417.115-.1167.1609-.1167.0233-.0167.0275-.0233.0275-.05.0167 0 .07-.0475.0783-.065.025 0 .1192-.0917.1308-.115.1584 0-.0366.1217-.0916.1667-.02.03-.0683.0766-.105.0766 0 .035-.0725.0816-.105.09m-2.475-.3334s-.02.0191-.0166.0208c.0225.01.0292.0025.0442-.0084-.0125-.0125-.0083-.0084-.0267-.0134m1.5333.025c.0517 0 .0775-.025.0775-.075-.06.0108-.075.01-.0783.075m-1.2967.065c.0584 0 .1084-.025.1834-.025 0-.0392.1867-.055.21-.1292-.0891 0-.1691.0333-.25.0641-.055 0-.1333.01-.1433.09m.9817-.0134c.0633 0 .2683-.0642.2417-.1584-.0116-.0391-.1391.0667-.15.0817-.0383 0-.0916.0292-.0916.0767m.1966.4875c.0166-.0692.1308-.1234.1308-.1792.075-.0359.0416-.1417.1441-.1417.0166-.075.1416-.1617.2083-.1784.0216-.0392.0616-.0542.1058-.0633.0133-.05.065-.0667.0783-.115-.0475.005-.0942.02-.1167.0641-.05.0167-.1041.035-.1416.0667-.035.0317-.2042-.0467-.1283.05.05.0642-.1283.1417-.15.2034-.0316 0-.0916.05-.0916.09-.055.0276-.1142.0917-.13.1534.0283 0 .05.0459.0917.05m2.8017-.6667c.0334 0 .0467-.0375.0134-.0375 0 .0142-.0084.025-.0134.0383m-.472-.1275c.0917 0 0 .0917 0 0m-.3917.3851c0-.0942.0517-.175.0517-.2667 0-.02-.0167-.0933.0133-.0933 0-.0458.0667-.0583.075-.0025.0109.0834-.0208.1334-.0416.2117-.0208.0725-.0083.145-.1.15m-5.445-.3958c0 .0225.065.0225.065 0h-.065m5.7208-.025c.1234 0 0 .12 0 0M5.225 4.4453v.0517c.0542-.0083.0734.0025.0917-.0517-.0333-.005-.0583-.0025-.0916 0m-1.61-.025c0 .0133-.145.03-.1716.0375-.0433.0125-.0866.0233-.13.0375-.0625.0209-.0391.035-.0391.0667.075 0 .4316-.0558.4316-.1417h-.092m-2.042-.0247c0 .025-.17084 0-.17084.0634.075.0084.1366-.0125.2083-.0125 0-.0375.1016-.0208.1316-.05-.06 0-.0959.0067-.1692 0m6.3233-.0525c0 .1125-.14837.1417-.18337.2434-.0209.0609-.1067.0667-.0484.125.0416.0417.0725.0167.1225-.0308.0366-.035.0333-.0525.0833-.0683.0108-.04.0366-.0525.0783-.0383.0041.0084.0083.015.0141.0225.075-.025.0483-.12.1416-.125 0 .1334-.1084.1917-.15.3125-.0209.0567-.0059.135-.0784.135-.05 0-.0583.0584-.1233.0642.0016-.0817.1666-.2417.0391-.2417-.0275.0567-.0834.1-.145.1142-.0083.0534-.0359.075-.0917.0767 0-.0525.01-.0816.0666-.0916.0225-.0034.0233-.0334.025-.05-.0733-.0234-.005-.0525-.0783-.0767-.0167.0666-.0167.0516-.0783.0516 0-.0834-.0017-.0317.0375-.0709.0392-.0416-.05-.1217.0542-.1217.04 0 .04 0 .0567-.0333.0208-.045.0333-.0291.0808-.07.0666-.0567.0725-.1283.1766-.1283m-.72 0c0 .0667-.0892.1608-.1567.1917 0-.0725.0667-.1867.1583-.1917m-3.4441.0516c.02.0583.005.0833.08.0733.0484-.005.0934-.0192.1384-.0334.0683-.0233.1117-.0166.175-.04 0-.1042-.32-.0066-.3942 0m-.9959-.0766c0 .0333-.4525.0717-.5034.0783-.0867.01-.1292.0383-.2025.0383 0 .0133-.1417.0266-.17.0383 0 .0433.125 0 .1567 0 0-.0217.2025-.0275.2333-.03.1116-.01.1483-.0333.2525-.0333 0-.0317.3-.0083.3-.0775l-.065-.0134m-.89-.0375c0 .06.0933 0 0 0m5.5641-.0125c0 .1108-.1025 0 0 0m-.6415.0641c-.0292.0025-.1167.0133-.1167.05-.07.0558-.0608.0375-.0417.1167-.12-.0167-.175.0467-.275.115 0 .0391-.065.09-.1033.09 0 .0233-.0309.0433-.0517.0525-.0609.0291-.0309-.0025-.0684-.025-.06-.0367-.0134.0783-.0109.1-.0917 0 .0083-.0642-.0725-.0642-.0608 0-.055.0766-.125.0766 0 .0133-.12.06-.1558.0641 0-.0775.0116-.0142.0116-.0525.0733 0 .0608-.0334.1308-.05.0292-.0384.0308-.05.08-.0584.0583-.01.0358-.0317.0783-.065.0292-.025.0667-.0384.105-.045.0083-.0309.0083-.03.0392-.0384.0333-.0333.0458-.045.1041-.0642.0216-.075.1275-.0817.1941-.125.035-.025.0817-.025.0817-.0667.0316 0 .0125-.0266.0525-.0266.0466-.0583.1191-.0833.145.0142m-5.029-.0884c0 .1209.0917 0 0 0m5.525-.0267c0 .0609.0025.075-.0667.0767 0-.06-.0033-.0733.0667-.07662m-.42-.0125c.0917 0 0 .0917 0 0m-3.5861.0388c.0583 0 .0783.01.0783-.0517-.0583 0-.0783-.0117-.0783.05m-1.4783-.0725c-.0142.0417.0033.0542.0516.0375 0-.0375-.0167-.05-.0525-.03834m.7317.0642c0 .0709.0966-.0275.1.025-.0017-.0233.1833-.0191.2141-.05.0708 0-.0784-.1033-.0784-.0266-.0884.01084-.1417.0475-.235.0517m-.6283-.0642c.015.0567.1183.03.1183 0-.0417-.0025-.0775-.00667-.1184 0m3.2333-.025c-.025.02084-.35.0642-.1958.1142.0583.0558.3392-.05.3392-.1025l-.1434-.0117m2.16-.025c.0916 0 0 .09 0 0m-4.2808 0c0 .04834.1133.025.1567.025.0166-.02667.0333-.05334.0525-.0767-.075 0-.1334.0367-.2084.05m3.2466-.0634c0 .0642-.0217.0725-.0792.1025-.0284.0083-.1034.045-.1034.065-.0767 0-.1083.0833-.1967.09 0-.0833.0984-.0783.1309-.1417.0809 0 .1475-.1084.25-.1151m-.97-.0383s-.0208.02-.0166.0216c.025.0125.0584-.0084.095-.0084 0-.0275-.0583-.0133-.0783-.0133m-.9417.0516c.005.0666.0334.0475.0917.0383 0-.025.1167-.0125.1433-.0125 0-.0142.0775-.05.1042-.045.0625.0108.0275.0108.0917.0083 0-.1359-.12-.0567-.2108-.05-.0333.0041-.0625-.02-.1033-.0284-.0216.035-.0833.09-.1166.09m-.145-.0517c-.0116.0534-.0016.06-.0583.0817-.0217.0084-.0867.0192-.0867.0467.0783.0125.135.0084.1983-.0416.0208-.0166.0192-.05.025-.0733.025 0 .0417-.02.0517-.0517-.05.0017-.0833.0284-.1308.0384m-.7208.0392c.1167 0 .0442-.085-.025-.0916 0 .0417-.1975.035-.1975.0917.0517 0 .2225-.0917.2225 0m3.8883-.1033c.05 0 .08-.02.0884.0366.0034.025.0192.1417-.0083.1417-.005.0309-.0083.0609-.0142.0917-.0533.0167-.0716-.0025-.0558-.055l-.01-.215M5.147 3.9342c-.025.025-.13083.03335-.13083.0642.05.0058.2083.025.2083-.0642H5.146m2.56665-.025c.0417 0 .065-.01666.07338.03335.00666.04164.00582.0858.005.12832 0 .0308-.02668.06-.02085.085.00667.03164.01917.0525.00833.0858-.0166 0-.0458.0667-.0533.0892-.0191 0-.0191.0125 0 .0125 0 .06665-.0375.0733-.1041.07665.0125-.05.0458-.0883.0525-.1416-.095 0-.0633.1034-.17.1034.0167-.0917.0917-.1367.1667-.2.0667-.055.0634-.03082.0417-.115-.0125-.0525-.0084-.10584 0-.15835M5.801 3.895h.06665c-.00665.025-.0333.05166-.0525.05166 0-.0392-.0133.025-.0133-.0517m1.245-.0125h.05166c0 .0816-.04.1608-.0517.2417-.005 0-.0484.1767-.0525.2058-.0317 0-.0384.1684-.0384.205.0642 0 .0834.05836.0192.07-.0375.00835-.0709.065-.0784.1025-.0083.0475-.0416.0417-.0525.09-.0108.05588-.0858.0317-.1375.0317 0 .09586-.0891.15837-.17.23088-.0941 0-.025.025-.025.09-.06.01088-.1533-.00163-.1616.06338-.0133.1084.14.0042.2.0017 0 .0859-.1416.1384-.2216.1417.0125-.075.0084-.1058-.0783-.1166-.0142.0667-.0558.0692-.105.1025-.0167.0225-.035.0442-.0525.065-.0417 0-.085-.0383-.0392-.0383.0283-.0275.0483-.0625.0875-.0833.0417-.025.0617-.07.1083-.07.035-.05.0875-.0817.1184-.1417.0859 0 .1634-.175.2225-.205.0225-.0542.0484-.1917.1109-.1917.045 0 .07-.05583.0983 0 .1391 0 .0391-.1142.03-.1625-.0125-.02834-.0034-.04168.03-.03584.06-.0125.025-.07334.02-.1225.0375 0 .015-.10167.0516-.10167 0-.0225.0084-.1417.0134-.1417.0359-.0517.0617-.0333.075-.0958l.03-.1333m-4.2283.075v.0391c.1167.0025.2167-.0417.3275-.0642.0358-.105-.2617.01-.3275.025m.55-.1275c-.0525 0-.0975.0167-.1441.0384.0417.055.1442.0275.1442-.0383m2.1725.1417c0-.075.0484-.0166.0567-.0883.0025-.025-.0066-.0416-.0166-.065l-.0666.05c0-.0625-.1-.0458-.1167 0-.0167-.01-.0208-.0191-.0267-.0375-.0775 0-.0133.0134-.0525.0134 0 .0834-.0216.0309-.0525.0892.075 0 .1.0117.1709 0 0-.05.0733-.0666.0917-.0125-.02 0-.0583.0192-.0625.0417-.0125.07.1033.0859.1583.0584.035-.0183.075-.0108.1134-.0108 0-.0275.0942-.0334.1167-.0384.0525-.0109.11-.005.1333-.0551.0234-.0483.0359-.0383.09-.0475.0334-.05.0467-.0775-.0283-.0867-.0667-.0083-.0033.0084-.075.0084-.0233.045-.0717.0267-.1183.0267 0-.0017-.1225.0583-.1433.0642-.0333.0634-.1.0867-.1708.0884m-1.695-.2042c-.0725.0184-.1458.1-.2083.1417-.0541 0-.0541.0417-.04.0892.0534 0 .0475-.0708.105-.09.0559-.0183.0684-.0642.1167-.0642.06-.0433.0983-.0708.1583-.1025-.0458-.045-.1125-.0583-.1308.025m-.0126-.2559v-.025c-.03-.0042-.0433.0042-.0391.025h.0391m6.5191 2.6777c.0292.01.1584.1.1584.1167.0525 0 .0666.035.13.0375.0316-.04.0541-.0933.0916-.1208.0417-.03.0708-.0833.1167-.1217 0-.0283.0709-.1183.0917-.1291 0-.035.0292-.0284.0367-.0684.0134-.0692-.0616-.035-.0616-.0725-.0333 0-.2058-.1084-.2225-.1417-.0308 0-.0791-.0384-.0916-.0634-.0484-.0167-.0984-.0767-.1442-.0767-.03-.0366-.075-.0583-.0917-.09-.0533 0-.0775-.0767-.1308-.0767-.0209-.0308-.0559-.0642-.0917-.0642-.0334-.0391-.0834-.1016-.1309-.1016-.0169-.0336-.0619-.0536-.0919-.0903-.0525 0-.0975-.0783-.1308-.115-.1-.0333-.245-.2-.3-.2833-.0467 0-.1833-.1083-.1833-.1525-.1083-.0791-.165-.1617-.2583-.2442-.0417-.0375-.075-.0666-.1084-.1108-.0383-.0483-.0725-.06-.1058-.1-.0716-.0892-.1475-.1583-.2225-.25-.0375-.0358-.0858-.0583-.1208-.0958-.0183-.0217-.0308-.045-.0366-.0717-.0333-.0083-.055-.0308-.0716-.06-.0267-.0467-.0717-.0692-.0717-.12-.0334 0-.0042-.0767-.0525-.0767-.0083.0817.0116.4359.0916.4359 0 .065.0416.0725.065.14.03.0867.105.125.105.205.0233 0 .0533.11.0916.1284 0 .03.0334.0983.065.1217.0542.04.0467.1058.1109.16.0883.0733.1108.1708.2041.2433 0 .0416.0333.0525.065.0766 0 .0516.08.095.1183.1283 0 .0625.1334.1617.1834.205 0 .0358.0892.115.1167.115.0225.0859.1166.15.1833.1917.0317.0517.0892.1167.145.1167.0683.0817.1617.1275.2283.2042.0525.0616.125.0883.1766.1542.03 0 .1333.0767.1433.115m-5.852-2.8298c0 .0817-.025.0667-.1041.0767 0-.07.0367-.0766.105-.0766M3.2884 3.229c-.01334.0125-.00834.00833-.02667.01333 0 .03584.0458.00583.06665 0 .0033-.02167-.01-.025-.0417-.01333m2.0291-.1533c-.0083.055-.095.1142-.1441.1217-.0775.0125-.1025.0442-.1958.0584 0 .03-.3266.1133-.4058.115 0-.0775.0717-.1025.15-.1025.0267 0 .1642-.0309.1642-.05.1516 0 .2666-.1359.4316-.1417m-1.78-.0642c-.1017-.0142-.135.0083-.2317.04167-.2317.0834.035.1.035.0734.0583-.0133.0766-.0375.1308-.0375 0-.0208.0866-.05.105-.05 0-.0583.2366-.0517.2366-.1667-.075 0-.2525.0584-.275.14m.3535-.217c0 .07.04.0383.0525 0h-.0516m1.7667-.0391c0 .1375-.3525.0833-.3525.1417-.1059 0-.2534.06-.3934.0625 0-.1033.2858-.1141.3667-.1141 0-.0291.3125-.0883.38-.0891m-2.0591-.08c.1334 0 .3308.025.4583-.025 0-.0475-.1308-.005-.1308-.0517-.0308 0-.1016.0334-.1383.0275-.05-.0083-.1709-.0116-.19.05m2.88-.1667c0-.0883-.1192-.0767-.1959-.0767 0-.0308-.0717-.0233-.0933-.0225-.0692.0025-.1.0017-.1025.075.0616.0225.0858-.0275.1525-.0225.0833.0059.1583.0434.24.0484m-1.4509-.08c.0541.0167.1883.0042.2083-.0633-.0583-.0017-.1867-.0058-.2083.0642m.3533-.0116c-.1459.0266-.2192.09-.3542.09 0 .0383-.2609.0383-.3017.0383 0 .0417-.5667.0084-.615.1917.05 0 .2617-.09.2617-.05.1167.0183.2775-.065.405-.065 0-.0358.3275-.0041.3275-.0517.025 0 .1833 0 .1833-.025.0858-.025.13.0292.13-.0775.0733.0017.1333.02.1583.09.0717 0 .1192-.0216.195-.0125 0-.0616-.1.0134-.105-.09.1233 0 .2442.0334.3667.0125l-.0092-.065c-.0208-.0025-.08-.0275-.08 0-.0833 0-.125-.015-.2083-.025-.0866-.0108-.1191 0-.2033.0059-.05.0034-.0942.03-.105-.025-.01-.0483-.0308-.035-.0725-.0191.0167.0309.025.0384.0267.0767m-.485-.0766c.0217-.0042.0784 0 .0784-.025-.0358 0-.0933.0083-.1183.0375 0 .0475-.0517.0375-.0517.0633-.0417.0042-.25.0275-.25.0642.08 0 .1192-.0142.1883-.02.05-.005.1142.0058.1534-.0334.025 0 0-.0692 0-.0884m1.4267-.0392c0 .0417.0633.0533.0983.0583.0517.0067.0642.04.125.0442 0-.1034-.2541-.14-.3366-.1317-.0725.0067-.1441 0-.2166-.0042-.0417-.0017-.1317-.0233-.125.0233.0058.0375.1558.045.1817.0475.05.0059.1.0117.15.005.0483-.0066.065-.0608.1233-.0416m-1.674-.0635c-.005.0084-.0083.0167-.0142.025.0392 0 .21.0275.21-.025-.0783 0-.125.0284-.1966 0M8.13 2.2294c-.03666.03335-.14832.0517-.18332.0517 0 .00836-.14.10587-.17.12754 0 .02167-.0892.1667-.105.1667 0 .07167-.04.14334 0 .23085.0291-.0217.0525-.0775.0525-.1025.0308 0 .0416-.0683.0583-.0917.0208-.0267.075-.0517.1083-.0608.075-.0217.1633-.015.24 0 .0083.0225.0616.1025.065.1025.0133.0433-.0167.0817 0 .1275.0958-.0309.175-.2251.185-.3192.0083-.0634.0058-.1667-.06-.1942-.0617-.025-.125-.0367-.19-.0375m-1.4275.0133c.0458 0 .0541-.0067.0666-.05-.0583 0-.0667-.0025-.0667.05m-1.3875-.0516c0 .0225.0017.1083.0567.0725.02916-.0192.0875-.0084.1225-.0084.05833 0 .08666-.0225.14833-.0391 0-.0833-.2691-.0375-.3275-.025m2.7625-.0517c.1459-.0033.3725-.0033.3834.1792 0 .0308.02.205-.0033.205 0 .0375-.03.1225-.065.14-.0308.1226-.1433.1726-.2225.2692-.0275 0-.12.0692-.1308.0901-.0708.0142-.1166.0309-.1966.0392 0-.0166-.0775-.0333-.1041-.0391-.0433-.0625-.11-.1042-.15-.1692-.0333-.0517-.0433-.3042.0183-.3042.0217-.1083.1-.1667.17-.25.0417-.0525.1217-.0942.1834-.1084 0-.035.1167-.0142.1167-.0517m-.3525-.09c0 .12-.1775.125-.275.09 0-.0317-.025.005-.025-.025-.1133-.0375.0125-.0525.06-.0525.0933 0 .1558-.0217.2417-.0125m-.4583-.0384c.1416 0 0 .1083 0 0m-1.7692-.025c.0442-.0133.0533 0 .0267.0375-.0166-.0125-.0208-.0208-.0266-.0392m.9558-.025c0 .06.0617 0 0 0m4.255-.025c-.0109.0516-.0184.1583-.0133.2042-.0167 0 .0883.2525.0775.0891-.0083-.1308.025-.2433.0275-.3717-.0267 0-.0442.0625-.0917.0767m-4.136-.0624v.0383c.0666 0 .1166 0 .1166-.0633-.0433 0-.0766.0166-.1166.025m3.1-.0376c0 .06.0134.0833.0784.1017-.0025-.0667-.0108-.1025-.0783-.1025M6.6658 1.767v.025c.02-.00166.05 0 .05-.025h-.05m-.1584.03834c.05 0 .0317 0 .0525-.025-.0275-.0209-.0433-.005-.0525.025m3.325-.09c.0025.0583.025.1233.0783.1417 0-.0834.01-.1417-.0783-.1417m-1.9766-.0126c.08 0 .0916 0 .17.0125 0 .0725-.0142.0541-.0784.0641 0-.05-.0917.0217-.0917-.0767m-.9033-.025c-.0234.0858-.145.0208-.17.1017.0691.0117.1183.0167.1775-.0334.0566-.045.0858-.0783-.0084-.0692m2.5533-.0767c.0025.0333.0333.1025.0666.1025 0-.0542-.0067-.1025-.0667-.1025m.09162-.025c.005.055.03914.0933.06664.14.04-.04 0-.1417-.0667-.1417m-.6017 0c.035.0083.0784.04.0917.065.06416.0167.1433.06333.1433.12834-.1083.00162-.17164-.10257-.26164-.10257 0-.0525-.0783-.05-.0783-.1167.0525-.0083.08335-.0333.1042.025m-.38-.05c.0666-.0025.1833-.0167.1833.0642-.0775.0084-.1833.0309-.1833-.0641m-1.4931-.0132c0 .0333-.0525.0017-.0525.0383.065.0084.09.0134.14415-.0125-.0283-.0275-.0458-.025-.09167-.025m2.73587.1275c0-.0366-.0625-.23-.08583-.1116-.0142.0709.0116.1084.0866.1117m-.6666-.1533h-.0391c0 .0217.0191.0283.0391.0383v-.0384M6.66404 1.5c.0333.095.1725.05585.25.025-.07086-.0692-.1617-.04416-.25-.025m.3275-.065c.0183.0525.06664.04.1058 0H6.991m1.075-.0125c.085 0 .14.11334.22165.15335 0 .0475-.02332.05-.00832.105.01.03087.0375.06337-.02833.07337-.03834.00585-.06167-.0108-.08084-.0108 0-.0767-.025-.05335-.06665-.1142-.0691-.0617-.1583-.06834-.1558-.1667.0567 0 .0584.0025.09.04585.0284.03834.0584.04834.1059.0692 0-.0625-.0716-.08-.0783-.15255m2.3167.0642c.0717 0 .0709-.1417.0392-.1417 0 .03917-.025.0475-.0433.08334-.0233.04833.0042.015.0042.05833M6.926 1.2418c0 .06168.0625 0 0 0m.61665-.08833c.0183.05834.1125.07667.16913.07667-.01-.05-.01333-.06834-.065-.05-.05667.01667-.04167-.01167-.105-.02667M9.1526 1.0893c-.00583.0375.00583.07667-.03917.07667-.025.06667.01917.06084.0525.115 0 .05168.06167.05835.08083.10836.01667.04417.02167.08168.075.09668-.00333-.0725-.06-.1208-.065-.1916.03583.0067.065.0225.10417.025 0-.0633-.155-.2308-.21-.2308m-1.24333-.076c0 .06.0625 0 0 0m-.55.0125v.0767c.06417 0 .27834-.075.13-.1192-.0375-.0125-.195-.035-.195.0167.025 0 .04.0192.06667.025m.83666-.0642c-.06083.02-.03333.0467-.025.1026-.0275 0-.025.0309-.0275.0517.05334.0166.07334.0166.105.0641.01667-.0042.065-.0384.065 0 .03.025.01667.06.03917.0892.06417.0316.03917.0641.09167.09.02166.0267.04166.065.07666.075.025.0083.04334-.0017.05.0291.01834.0892-.11416.0617-.15.0208-.035-.0417-.205-.1767-.145-.225.05834-.0458-.08166-.045-.09666-.0525-.05334-.025-.00833-.04-.08167-.04-.02166 0-.1-.0083-.1-.0267h-.13c0-.0225-.02833-.0391-.0475-.05-.00667-.0041-.08333-.125-.08333-.065-.13333.025-.02833.05.03917.0767-.025.0784.045.08.07833.1284.06833.0416.17083.0383.24833.0383 0 .1167-.135.0892-.225.1125-.085.0234-.20833-.015-.30833-.02-.08833-.0041-.065.0534-.14666.0617 0-.0725-.0083-.0725-.0858-.0708-.0291 0-.0583.0025-.0858.005-.0608.0033-.0866.0459-.0183.0584.0367.0083.1617.0166.1725.07.0167.0883-.0625.0108-.0625.065-.0166.0192-.0308.04-.0391.0642l-.1475.0292c-.125.025.1025.1167-.0375.1809-.0333.0192-.05.0084-.05-.0308l-.0783.0125c-.01.0533-.025.09-.0775.09 0 .0358-.1233.0117-.125.0817 0 .1183-.26.1017-.2941.225.0625-.0017.1275-.025.1834-.05s.0209-.035.0984-.0517c.1-.0225.0184-.0167.1109-.0392 0-.0292.1434-.05.1709-.055.0917-.0167.125-.0942.2225-.1 0 .0709-.1041.125-.17.1417-.0416.055-.075.0767-.1441.09-.0333.05-.0583.0434-.105.0767-.05 0-.08.0583-.105.09.1134 0 .1467-.1017.2625-.1025 0 .0617-.0583.0883-.105.1275 0 .05-.0133.0817-.0133.1167.0058 0-.0942.0567-.1.0775-.025.1067.1917.0875.1917.1275.0533 0 .0867.0617.02.0733-.0467.0084-.0775-.0183-.1358-.0141-.06.0033-.0833.0058-.1183-.0459-.025-.0025-.1308 0-.1308-.025-.0958 0-.155-.0392-.2667-.0458-.0417-.0016-.2167.0234-.2167-.0191-.035-.01-.275.075-.275.0133-.05-.0316-.0616-.0416-.0783.025-.0475.0084-.0958.03-.1441.0134-.0608-.0208-.0683-.0725-.1166 0-.0283 0-.1583-.0125-.1583.0126-.1016 0-.18.025-.2833.025-.0817 0-.1833.0392-.2533.0392 0 .0109-.56.09-.6167.09 0 .0234-.1767.0442-.2209.0467-.06.0042-.08.0058-.08.0625 0 .0684-.0833.085-.1441.1209.0783.1334-.0442.1017-.1442.1167 0 .0334-.0333.0559.0392.0634 0-.0366.1392-.0516.1708-.0516.045-.0584.125-.1025.1833-.1025 0-.0225.0959-.055.1167-.0584.025-.0042.1192-.0442.1192-.0584.065 0 .1117-.0558.1792-.0775.0625-.0192.1392-.055.1484.0267-.01 0-.0917.0275-.0917.0383-.09 0-.1567.0809-.2484.0959-.0275.005-.2358.0917-.2358.11-.0567 0-.0834.0384-.1442.0384 0 .0333-.105.0367-.105.0642-.0217 0-.2083.0775-.2083.0891-.035 0-.2884-.015-.2884.0384-.0308 0-.275.05-.275.0642-.1083 0-.1875.0641-.2883.0641 0 .02-.2167.0766-.2483.0766 0 .0267-.175.0709-.2225.0775 0 .0375-.2067.0734-.25.1276.2083 0 .3025-.0917.4983-.115 0-.0333.1875-.0608.235-.0775.0583-.02.1083-.0383.1716-.0383.055 0 .0734-.025.1184-.025 0-.05.1983-.0267.2358-.0267 0-.01.1517-.0792.1775-.0167.045.1117-.165.1217-.165.1584-.0566 0-.1566.0275-.1566.1017.0767 0 .1234-.05.1834-.05 0-.0166.0533-.0333.075-.0391.075-.0208.0917-.0142.1083-.09l.065.0117c0-.0633.0584-.0617.1184-.0767 0-.0417.1433-.0225.1433-.0642.0717-.0166.0892-.05.17-.0641.0275-.04.1109-.1025.1584-.1025 0-.0167.2033-.1275.235-.1275.1016-.1334.2558-.1367.4316-.1667 0 .1-.0917.0725-.18.0833-.0458.005-.1667.0667-.1867.1084-.0583.015-.1033.09-.1567.09 0 .0483-.1442.0225-.1442.09.0292 0 .1967.005.1967-.0392.0284 0 .0517-.0083.0667-.0375.055 0 .125-.02.1958-.025 0 .0883-.1416.0917-.2225.115-.0166.03-.0666.0292-.0666.05-.0542 0-.0567.025-.1167.0392 0 .025-.0983.0267-.1183.0642-.0216 0-.2083.0625-.2083.0775-.11 0-.305.0892-.4191.1417.0375.075.1667.0108.235.0116-.0233.0892-.1666.0634-.2483.0767 0 .0534.0692.0725.1117.0517.0734-.0367.1117-.025.1609-.0917.0383-.0533.0067-.0583.085-.0716l.1667-.0292c0-.02.0817-.0417.1083-.0467.0833-.0166.1416-.0391.2333-.055.015-.0475.075-.1025.13-.115 0 .065-.0042.065-.06.1-.0217.0134-.045.0234-.07.0284-.0017.0192-.0083.0367-.0208.0517-.0358.03-.15.0625-.15.1017.11-.0392.1692-.0817.2708-.1292.1041-.05.155.0375.0608.0617-.1.025-.1833.0816-.2708.1308-.115.0667-.25.1-.375.1417.0125.0558.0317.1017.0383.1667.0458-.0083.1958-.0459.1958-.0767.065 0 .0959-.0558.1309-.1167.075-.0067.1317-.0375.1833-.0375 0-.0217.075-.0308.1-.0192.06.0275.1 0 .1617-.0192.0167-.0334.0458-.1025.0792-.1025.0684-.0301.04.0708.04.09.1392-.0025.275-.04.4167-.0484.0642-.0033.0892-.0433.15-.0375.0717.0067.0967-.005.1667-.005.055.0108.1817-.0583.1942.0542.0108.085.1417-.065.2117-.0667.05.0525.2783.0067.125-.0542-.125-.05-.2333-.05-.375-.075-.0433-.0083-.3.0192-.3.0384-.0192 0-.13.0116-.13.0266-.0817.0117-.1142.0484-.1967.05 0-.095.0917-.0442.0917-.1267.025 0 .0291-.0642-.02-.0642-.0542 0-.0584.0467-.0584.0892-.0233-.0017-.1308-.0583-.1308-.0125-.0333 0-.1125.0033-.1308.0383h-.065c0-.075.025-.05.0916-.05.0167-.035.09-.0642.1308-.0642 0-.035.1833-.0391.1833-.0775.1334-.0317.2784-.1225.4317-.1275 0 .1051-.1833.0642-.1833.1151-.0416.0083-.2016.03-.1916.0917.01.0766.0833.0416.14.0333.1358-.0208.2566-.0434.3933-.025.0134.0033.025.0042.0384.0025.0375-.055.0666-.04.1308-.0417.0875-.0034.175-.0067.2616-.0084.1109 0 .225-.0033.3334.015.0367.0067.0792.035.1117.035 0 .0642.01.075-.0583.0834-.0617.0083-.0517-.0317-.1167-.0417-.0516-.0083-.1033-.0133-.155-.0166-.07-.0058-.2141-.0292-.2708.0267.0667 0 .1292.1.1717.1042.1284.0142.1867-.0442.3117-.0667-.0017.0375-.0167.0567-.025.09.1766.0442-.0667.0834-.0667.1167-.0383 0-.0867.0142-.105.05-.0317.0083-.1567.075-.1567.09-.0566 0-.0916.025-.1308.0775-.1216.03-.1666.1025-.2958.1025-.0275 0-.125.03-.125.0517-.04.0083-.075-.025-.1167-.0134-.055.0167-.1059.0417-.1583.0642.0383.0484.1708.0417.1708 0 .0467-.0083.2359-.0533.2359-.0917.0417-.0058.0517.0517.0525.0784-.0717.0583-.1083.06-.1967.0766 0 .0308.1125.0691.1458.075.0533.0066.0808-.0467.1416-.05 0 .085-.0666.0916-.1433.09 0 .005-.105.0441-.125.0416-.0333-.0042-.1366-.01-.1366.0358-.045 0-.0225.025-.0666.025-.0233.07-.1041.0542-.1041.1284.1183 0 .175-.1133.2875-.1275-.0033.0308-.0483.0717-.0392.1025.05.0334.0392.0359.0392.09.0917-.01.1583-.115.2358-.115 0-.0166.035-.025.0525-.025 0-.0083.1059-.0717.1309-.0775.065-.0958.2266-.0725.275-.1666.04 0 .1166-.0542.1166.025-.0667.04-.1608.0667-.2017.1225-.0625.0859-.165.1917-.2667.2109-.0367.0525-.12.055-.1384.1-.0059.0167-.0517.0484-.0725.0542-.0142.0525-.04.0384-.0784.0642-.0558.0625-.0883.0917-.1566.1142-.0083.0792-.0216.1059-.0525.1667-.0416 0-.0916.0567-.0916.1025.0375-.0041.0817-.0466.1025-.0041.025.0483.0167.0683-.0141.105-.035.0417-.0225.0709-.075.105-.0383.0375-.07.08-.0917.1284.0142 0 .2084-.095.2084-.0775.0609-.0141.0792-.0166.0792.0517-.035 0-.0608.06-.065.0892.0284-.01.1309.0217.1309 0 .0392-.02.0625-.0266.0717.0192.0083.0442-.0525.0725-.0984.0834 0 .1134.025.0859.105.0767.015.0392.0133.0867.0133.1284-.0333.0184-.0383.04-.0392.0767.0783-.0083.0942-.0333.1167-.1025.0125-.0083.0691-.0566.0608-.0725-.0083-.0191.1625-.0667.1625-.12-.075 0-.1358.0467-.2083.0517 0-.05-.0775-.045-.0917-.1025.045 0 .0633-.0125.0867.025.0142.02.05.0134.0692.0134 0-.0275.0567-.0233.0783-.0267.03-.0583.0792-.0316.0792.025.0917 0 .0083-.055.0642-.1017.085-.0033.15-.0584.2317-.0725.0866-.0167.0141.0458.0891.0458.0667 0 .0033-.0383.0458-.0383.0134-.0166.1625-.075.0667-.0866-.0283-.0041-.0141-.0458-.0141-.0666.035-.0192.0475-.0308.0917-.04 0 .0083.1791-.1367.1441 0 .055 0 .0366-.0142.0783-.0383v-.09c.0308-.0133.0433-.0083.0391.0125-.0125 0 .04168.0725.0525.09.025-.0083.0383-.0167.0583-.0358.025-.0225.0333-.0517.0392-.0817.0191-.0883.0458-.0808.1333-.1.0333-.0083.1083-.05.1083-.09.0308-.0166.08.0067.1025-.0191.0558-.0634.0392-.2642.1333-.2642.005.025.0083.0517.0142.0775.05-.0059.06665.0116.05.0525-.00835.055-.05.045-.05.1.01665 0-.05835.0875-.07835.1033 0 .0058-.04166.05-.0583.0642-.05.0391-.115.0833-.1475.1433-.0125.0216-.0417.0333-.05835.0583-.0216.03-.0391.0367-.0608.0684-.01.0133-.025.0216-.0417.025v.0883c-.0191.0067-.0791.03-.0791.0383-.055.0083-.07167.0058-.1108.0483-.0233.025-.0767.1058-.1117.1058 0 .0333.0117.0642.0475.0808.0467.0216.0475-.0317.0934-.0067.095.0525.1033-.12.1083-.1667.1067-.0334.1083-.1234.1467-.2001.02164-.0434.1633.025.06164.0958-.0517.0358-.0917.0816-.0917.1433-.0217.035-.05.0133-.0642.0641.0458 0 .065-.0225.065-.0642.0458-.015.0483-.0484.0916-.0617.0317-.0083.0667-.0125.0975-.0267.025-.01.0417-.0917.0542-.12.0016-.0042.0125-.0434.0183-.0467.075 0 .065-.0367.0667-.1026.0666.0041.0533.0266.1233.0191.0833-.0083.0516-.0533.125-.0708.0083-.1334.1066-.1417.1958-.1417.1017 0 .0209.0417.0784.0917.095.03.0042.075-.0133.1275-.0775 0-.10336.1417-.13086.1417-.0525.105.0417.075.0517.1525-.0133 0-.04.045-.04.065-.0683.0333 0 .0583 0 .0767.05 0 .07835-.0417.07835-.0892.0083 0 .035-.0359.0333-.05-.0033-.05.0641-.04.0983-.04-.0058-.0234-.0183-.0442-.0233-.0667-.0133-.0717.075-.0559.075-.1125.0642 0 .065-.0234.105.0641.015-.0108.0275-.025.0317-.0442.0083-.0417.0558-.0584.0733-.11.0225-.0667.0983-.1917.17-.1917.0375-.025.025-.045.0783-.0517.0167.05.0417.1.0267.1542-.0392.125 0 .1667-.0133.2942.0458-.0084.0625.0025.07-.0459.0083-.0558.02-.1134.0166-.17-.0066-.0667-.0216-.1483-.0216-.2334-.0525 0-.01-.1109.0059-.1417.0291-.055-.115-.1817-.15-.2042 0-.0392-.0767-.1317-.1142-.1584-.0084-.005-.0684-.0976-.0684-.0334-.02-.005-.025.0058-.0133.0316-.0108.0358.0067.05.0525.045 0 .0917.0133.2083.0133.32.0167.0584.045.1067 0 .15-.0383.035-.0616.065-.1166.0684.0016-.03.0375-.1275.0516-.1275-.0025-.0551.0042-.3218-.0391-.3218 0 .0392-.0384.0959-.0467.1376-.0167.0734-.0117.125-.0984.1442-.0034-.2184.1375-.3817.1441-.5767-.0417-.035-.0467-.0883-.0917-.1208-.0375-.0283-.0667-.0916-.0783-.135-.0775-.05-.1292-.2142-.13-.3083.1116 0 .0941.1933.1566.1933 0 .05.0617.0775.0792.1284.01668.05.09168.09.09168.14.06.0292.0683.1225.125.1667.0525.0417.0583.09.1058.1317.045.0392.10835.0967.10835.15l.1083.09587c.0458.0417.0375.075.08918.11 0 .0292.2192.2167.2625.2167.0417.04585.12086.1667.18336.1667.0375.0433.14.1667.1958.1667.0892.105.2.15.28836.2567.0542 0 .0642.0642.1167.0642.0317.0608.1.1108.1717.1166 0-.0283-.0525-.0467-.0525-.0783-.0483 0-.1141-.0875-.145-.1275-.06 0-.1333-.0975-.1766-.1442-.0142-.015-.05834-.0392-.05834-.0484-.0383-.03-.0583-.075-.0917-.0917 0-.0517-.1691-.1667-.21-.2042 0-.0641-.105-.0875-.105-.1533-.0391-.0333-.0783-.06666-.1166-.1017-.0225-.0642-.0184-.0167-.0534-.0517-.0334-.0333-.0225-.0608-.0667-.0958-.0309-.025-.0917-.0984-.0917-.1334-.1083-.0725-.1283-.2134-.2333-.2834 0-.0833-.1058-.1358-.1058-.2167-.0291-.0141-.0525-.075-.0525-.1025-.0458-.0225-.0308-.0583-.0783-.09-.0167-.0475-.035-.0942-.0525-.1417-.0583-.0275-.075-.2817-.105-.2817 0-.0633-.025-.0933-.0217-.1633.0042-.075.02-.15.0367-.2217.0167-.075.05-.05837.0892-.115.0917 0 .0783.0833.0783.1542 0 .0708.0266.105.0516.1792.0017 0 .0667.0808.0667.09.0375.0183.025.0375.0642.07.035.0292.035.0725.065.0967.0383 0 .1433.0808.1433.1275.14.1083.2533.29.3933.4042.08584.07.1583.1567.2358.2367.0467 0 .0667.0517.09585.08585.0366.045.0641.0467.1.0933.05 0 .1308.0917.1666.1284l.1108.1167c.0433.045.0808.0383.115.0891.0108 0 .11.0834.1192.1025.04 0 .1134.0784.1442.1167.0333 0 .125.0717.1433.1.0667 0 .0917.1042.1583.1042.0167.0358.125.0917.1692.1017.0458.0667.15.0733.1833.1417.1334.0417.2.125.3284.1667.0334.0433.0334.05.0917.0633.0225.0292.0267.0517.065.0517.0375.0542.0767.05.14.0642.075.0167.0733.0584.135.0892.0167.05.025.045.075.0459.0475 0 .025.0309.0692.0309.0316.0459.0716.06.1166.0892.0809 0 .1642.1.2417.1292.1692.0633.0167-.2584.0217-.2584 0-.18332-.1016-.42252-.1608-.6126-.0167-.055-.0833-.34832-.1-.34832 0-.025-.0167-.1275-.04-.1275-.0142-.09334-.0441-.1709-.0667-.27003-.0125 0-.0917-.2851-.0917-.3084-.0167 0-.0917-.2467-.0917-.2809-.0166 0-.0916-.2333-.1041-.2783-.0442-.1567-.10832-.2433-.13082-.3767-.01335 0-.105-.2334-.105-.2559-.0417 0-.05-.1542-.0917-.1542-.0083-.0375-.0667-.1792-.0917-.1792-.0142-.0583-.055-.1208-.1042-.1533 0-.04-.0558-.105-.0917-.1283 0-.0467-.0383-.075-.0525-.1167-.0183-.0533-.0725-.0975-.0866-.15-.0225-.0875-.1-.0309-.11.035.0267.0292.0033.0817.0134.115.02.0683.0383.1334.025.205-.0667.025-.125.0283-.13583-.0383-.0083-.055-.0208-.0383-.0717-.0383 0-.05-.0058-.0975-.015-.1458-.0083-.04663-.0192-.09163-.025-.13664-.0358-.0084-.0333-.015-.0383-.0517.0608-.0383.0234-.1917.0392-.1917 0-.1083-.025-.1792-.025-.2817-.0217 0-.06-.1025-.0142-.1025 0-.0217.0292-.1417-.0391-.1417-.0141.1-.0133.185-.0133.2692.0467.0133.055.0417.025.0833-.0192.0883-.0042.0266.01.1083.02.1225.0125.1033-.075.1033.0125.0725.0392.1334.0392.1984 0 .0684.0483.1542.0525.2376-.0734 0-.105-.0458-.105-.1025-.0058 0-.0392-.155-.0392-.1733 0-.0233-.0167-.0958-.0392-.0958 0-.025-.0517-.1542-.0783-.1542.0025.0542.0275.1084-.045.1001-.025 0-.05-.005-.0734-.01 0-.1192.01-.0083.0334-.0667.03-.0775-.0608-.1308-.085-.2025-.025.0084-.0458.0192-.0666.0359-.05.03-.0183.03918-.0583.06668-.0366.0233-.04 0-.0716 0-.075-.0834-.0933-.1151-.21-.1151-.0583-.075-.1116-.1109-.175-.1792-.0383-.0434-.1016-.0567-.125-.1034-.0416-.0125-.11-.0392-.1383-.0767-.02663-.0333-.1083-.075-.15-.0883-.05163-.0167-.06663-.06-.1308-.0642.0059.04.0334.0625.04.1025-.1166 0-.0983-.1208-.105-.205.0775.0034.0942.06.1567.07.045.0084.0583.0417.1083.0534.06.0125.0667-.04.0467-.0808-.0133-.0291-.0333-.0125-.0566-.0416-.0375-.05-.025 0-.0459-.0784-.0309-.02666-.1434-.1-.1434-.14-.0717 0-.0883.0317-.1317-.0567-.0333-.07166-.0525-.025-.1166-.02-.0429-.0837-.0595-.052-.1454-.052 0 .1517.2875.1642.2875.28334-.05834-.0017-.1042-.0392-.1442-.0392 0-.025-.0441-.0208-.0666-.025-.00833-.0291-.02333-.0516-.0517-.0691-.01663-.0083-.05163-.0217-.05163.005-.0691 0-.0583-.0133-.0958-.0633-.0287-.0372-.0854-.203-.1137-.103m1.9075-.1434c-.0083.0392-.1275.2884-.05.27756.04585-.0067.0267-.11085.0367-.13752.03332 0 .045-.11664.0525-.1542-.0142 0-.025.00838-.03918.0134M8.2493.7934c-.01668.0417-.00418.0642.03832.0642 0-.03667.0334-.06418-.0391-.06418M7.1493.76925c.06166 0 .075-.00417.07833.06334-.0616 0-.075.0033-.0783-.0642M8.9035.6267c.005.05253.0525.07837.0525.12837.035.01667.05333.09335.065.12835.01417.04334.05583.13502.1.09585.02082-.01833-.06084-.13-.06084-.15835-.05 0-.07667-.17252-.15667-.19335m-.825-.0125c-.0034.03.005.04167.0266.03833 0-.0275.0125.0025.0125-.025-.0142 0-.025-.00833-.0392-.01333m1.6625-.025c-.0167.08917-.0134.19002.0133.26836.0475-.04667.13-.2692-.0134-.2692m-2.2916-.025c.0916 0 .0416.08334.0791.15335.0333 0 .0633.09.0666.12918-.1084 0-.1734-.19002-.145-.2817m.9958-.065c0 .06083.1225.22085.1958.23002 0-.06167-.1267-.2117-.1959-.23003M9.31.48672c-.0083.02167-.005.03.0125.025.00835-.02084.005-.02917-.0125-.025m-1.2316-.025c0 .10667.10835 0 0 0m.4717-.01335c0 .08834.01667.02667.05.08167.01333.0225.01.0725.04166.0725.02334.06836.11834.12086.11834.1917.05166.03334.15666.14586.15666.20503.06667.05417.0875.08584.11834.1667.015-.005.025-.01335.03916-.01335l-.04-.115c-.03-.015-.06666-.07502-.06666-.10336-.06084-.04-.045-.10334-.10334-.14668-.04-.02918-.03333-.05835-.07166-.08752-.0275-.02-.03083-.0375-.03333-.07168.075-.05-.0375-.09-.09167-.09l.01333-.0767L8.5501.4484m-.94166 0c0 .07084-.00583.05167-.06667.05167 0-.06167.015-.06834.06667-.05167m1.65.18002C9.24174.54256 9.25674.3867 9.1526.3592c0 .00833-.02.14168.02666.14168 0 .03334.03083.06835.03917.11502.01416 0 .025.00833.03917.01333M8.82426.42337c.03584.00333.05667.00583.09167 0-.00833-.10334-.09167-.08667-.09167 0M7.9076.2567c.09417 0 0 .06083 0 0m.21-.1017c.11167 0 0 .13836 0 0M9.15093.11585c.04583 0 .10833.09167.04416.11084-.0667.0191-.0584-.07-.0434-.11M8.6934.0666c.09166 0 0 .09 0 0M8.26176 0c.08666 0 .05166.0775.05833.15.0066.07502.0183.14836.0333.2217.0275-.00667.0583-.03917.0633-.065.0108-.06-.01-.015-.01-.08918.07-.025.0566.02667.1041.02667.0117.0558.0667.0833.0667.1283.0441 0-.0434.0125.0641.0125.0192-.055.0283-.0917.0267-.1526.0475 0 .0525.0042.0525.05.1233 0-.0025-.0417.0083-.09.0266-.1167.0666.0525.1083.065 0-.0375.0083-.1667-.025-.1667.0458-.135.0833.0767.1166.0767 0 .0683.0083.085.0667.1283.0333.1117.0783.115.0783 0 .0633.005.1466-.0142.1691.05.0225.0233.0033.02.045.0358.0666.025.12-.0109.145-.0667.0616-.14.0916.045.0466.045.0041.08-.0225.3334.0916.3334-.0183-.07-.0167-.0384.0167-.0817.0141-.02-.0059-.0309-.0059-.065 0-.0834-.025-.1351-.0108-.2251.012-.0747.017-.0914.092-.0914.0141.0858-.0167.1583 0 .2442.0783 0 .1466-.1084.2083.0116.0516-.05.01-.1109.105-.115 0 .0858-.0134.1717-.0067.2583.005.065.0167.05.0717.0617 0 .035.01.025.0275.0517.06-.0117.0608-.0317.0783.0383.0283 0 .0308 0 .0391-.025.0167-.0534-.0042-.075.0667-.0775-.0017.1192-.075.2375-.0917.3458-.03 0-.0583.15-.0666.1917.1217 0 .1042-.0784.1234-.1817.0184-.1.0459-.1317.06-.2276.0417 0 .0517-.1292.0684-.1667.0134-.0292.045-.0384.075-.0392.0217.0541.0134.0833-.0108.1267-.0167.0333-.0083.1416-.0542.1416 0 .0725-.0358.0967-.025.18h.1434c0 .0533-.0133.0733-.0133.1166-.03 0-.0442.1192-.0133.1533.0108-.0617.0266-.0817.0266-.1417.0833-.055.0083-.1275.1166-.1275 0 .14-.0375.2775-.0775.4109 0 .0625-.0133.1033-.0083.1533.0083.11.0292.1375.0475.0133.01 0 .0392-.2209.0392-.2567.05 0-.0083-.1026.04-.1026 0-.0875.0267-.1533.1184-.1533-.0025.0816-.0567.1308-.0792.205-.0058.0208-.005.0766.0266.0766l.0125.205c.025 0 .0267-.025.0267-.0517.0284 0 .05-.0359.0917-.0384 0 .1042-.05.1417-.0525.2567h.0667c.0042-.0208 0-.0642.025-.0642.025-.0517.0133-.0517.0792-.0517 0 .0291-.0358.1667-.0525.1667-.0083.0308.05.1542.0133.1542-.0142.0566-.0608.0983-.0109.1441.0517.0475.0142.1567.025.2151.0525 0-.0133.1433-.0167.175-.0033.0333.0359.1042.0684.12 0 .0358.065.1283.0983.1533.0584.0459.0584.1609.125.1917.07.2109.1884.3142.235.5201.0083.04.1359.4034.1567.4034 0 .0892.0692.1633.085.2567.0058.0333.07.23.085.23 0 .0567.0275.0867.0383.1542.0225 0 .0583.2083.0667.2434.0266 0 .0775.2275.0775.2692.0266 0 .085.285.0916.3333.0275 0 .1083.3292.1167.3708.0291 0 .1133.4467.1316.5084.0217.075.0333.1625.0467.24.01.0533-.025.09-.07.0875-.0559-.0025-.12-.0217-.1534-.0667-.0384-.0483-.0984-.0233-.125-.075-.1025 0-.1783-.135-.3142-.1417.015.045.02.1059.065.1275.0167.05.0525.0833.0525.1284.055 0 .0392.1417.1183.1417 0 .0183.6117-.0392.6667-.0392 0-.0526.2917-.0801.3392-.0834.1433-.0133.12.0333.0958.1417-.02.0833-.0233.175-.02.26.005.0916.2834.0566.3584.055.1467-.0017.2917.0016.4384.005.075 0 .15.0025.225.0041.075.0017.07.0233.07.0917-.0334 0-.0334.14-.0667.14 0 .0383-.0708.15-.1033.1667-.015.0433-.0417.1208-.0792.1475-.0434.0333-.025.0733-.0709.1083-.045.0358-.0367.0917-.085.1167 0 .0733-.1309.0708-.1309.1525-.0142 0-.1125.105-.1183.1417.15.0233.3191.0633.4516.0633.125 0 .2383.0384.365.0384.0775 0 .8333.0475.8333.0633.1725 0 .2875.0267.4458.0309.0866.0025.0766.0383.0766.11-.0642.0467-.1067.0833-.15.1417-.0333.0417-.0817.0642-.1383.075-.0083.0583-.0384.0883-.0917.0967-.0417.0083-.1142.0642-.1309.0967-.03.0067-.1709.06-.1709.0892.0433 0 .3142.0083.3142.0392.17.015.2933.0775.4583.0775 0 .0366.0966.0116.1216.03.0416.0316.0358.1275.0416.1833.0116.1617-.0384.3251-.0392.4867 0 .0858.0042.1717.0083.2567.0033.0375.0067.075.0083.1116.0067.0558.06.0517.1083.0667.1.0333.1442.0875.2417.1.0358.0058.2433.0667.2433.0975.05 0 .0942.0416.1567.0625.0317.0391.0434.0616.0917.0775 0 .0833 0 .0983-.0783.1417-.0483 0-.0208.025-.0783.025 0 .0283-.0783.0025-.0983 0-.0283-.0042-.19-.0184-.19.0125-.095 0-.1533.0125-.2417.0125-.09 0-.1475.025-.225.025-.0617 0-.4234.0067-.4234.0391-.19 0-.38.025-.5892.025-.785 0-1.5133.1034-2.2899.1034 0 .0183-.61.0375-.6833.0375-.0208 0-.1025.0067-.1025.025h-.197c0 .0333-.2567.0267-.3.0267 0 .0467-.4983.0067-.4983.05-.1367 0-.26.0125-.3942.0333-.0833.0134-.1967 0-.26.0058 0 .0417-.2734.0417-.3334.0309-.0534-.01-.1667-.0417-.2025.0308-.035.07-.1217.1217-.1709.1833-.025 0-.21.1033-.21.1017-.11 0-.1834.0667-.3334.0566-.0667-.0042-.1334-.0191-.2-.0191-.0392 0-.1867.01-.1867-.025-.0584 0-.03-.025-.0784-.025 0-.0291-.0942-.0333-.1167-.0391 0-.0192-.1584-.0767-.1834-.0767-.0333-.0642-.1275-.0684-.1692-.1317-.035-.0533-.08-.0625-.1392-.05-.06.0108-.1142.0017-.165.0017 0 .02-.1109.0458-.1442.0517 0 .0025-.275.065-.3108.0667-.0583.0042-.4225.05-.4225.075-.1475 0-.23.05-.3542.05-.0433 0-.3533.0458-.3533.0642-.0233 0-.3142.06-.3142.0766-.0417 0-.3142.0667-.3142.0892-.0217 0-.1042.0225-.1042.0375-.0933.01-.13.0334-.2058.0475-.0458.0083-.4625.0958-.4625.1066-.1567.015-.2433.065-.3917.0833-.0309.0033-.2234.0416-.2234.0583-.1 0-.2033.0225-.3.05-.05 0-.3417.0383-.3417.0642-.0667 0-.1209.0308-.2025.045-.1142.0208-.2134.0566-.3334.0833 0 .0392-.2234.0333-.2234.0775-.0333.005-.2083.035-.2083.0517-.0609 0-.1017.0383-.1584.0383 0 .0216-.2483.0916-.275.0916 0 .0141-.16.0375-.1833.0375-.0583.1142-.1892-.0109-.2025-.09-.0058-.0375-.075-.2167-.0975-.2167-.0333-.1334-.0975-.1951-.1167-.3334-.03915 0-.06915-.2442-.1058-.2442 0-.0358-.09-.2817-.105-.2817 0-.1-.0917-.1875-.0917-.2833-.01 0-.0391-.0942-.0391-.1142-.0167 0-.03586-.1292-.065-.1292 0-.0267-.0617-.2167-.0792-.2167 0-.035-.06667-.2442-.09167-.2442-.0167-.1309-.06667-.1851-.085-.2951-.0075-.0418-.0809-.2677-.11-.2677-.0192-.085-.0617-.1392-.0725-.2117-.0057-.04-.0207-.0892-.0582-.1083-.0132-.0892-.0432-.16-.0665-.2559-.05 0-.03338-.1417-.0642-.1417 0-.02-.1025-.3192-.11667-.3192C.127 8.6759.092 8.5826.0803 8.5826c0-.0525-.05163-.0917-.05163-.1525-.03834 0-.0375-.1542 0-.1542 0-.075.03332-.1.11-.0942.18665.0133.09665-.4059.1-.4059-.0068-.0776-.0418-.1684-.0168-.2309.01167-.035-.02667-.1083-.03333-.1625-.01166-.1225-.13-.2225-.13333-.3751.1083-.0167 1.0858.0533 1.0858-.0125.0567 0 .3667-.0125.3667-.0517.05 0 .275-.04.275-.0767.0209 0 .1034-.0216.1034-.0375.04-.0033.2225-.0083.2225-.0383.1917 0 .415-.04584.62088-.085.26914-.05.4558-.08.725-.0917.0733-.00416.78913-.02166.78913.00834.1083 0 .195.02667.31413.02667 0 .01.16.0617.1933.0559.0633-.0117.1108-.1667.1108-.2267 0-.04586-.0734-.0642.0083-.105.04-.0067.055-.0284.0442-.0667.0025-.02.025-.0942-.0042-.0942 0 .0375-.0275.06668-.065.07668-.0084-.01662-.0534-.0775-.0134-.0775 0-.08-.0417-.125-.0917-.05-.0225.0375-.0967.2667-.145.1267-.1267.00168-.0784-.09333-.0784-.1667-.0142 0-.025-.0083-.0392-.0133-.02-.075-.0692-.05417-.135-.02834-.0534.02085-.2834.15586-.2834.05418 0-.08335.1041-.0417.1041-.1167.0333 0 .0641-.05.1041-.05.0383-.075.1583-.075.1708-.1792-.1.00335-.1784.1025-.2625.1025-.025.04754-.0775.03337-.1109.0767-.0333.04418-.0767.03335-.0983.07668-.04.0083-.0567 0-.0784 0-.035 0-.0358-.0458-.0858-.0025-.0484.0417-.125.0667-.1892.0667-.0142-.0533-.06-.04-.105-.0383.005-.045-.005-.1142.0391-.1417.0216 0 .07-.0083.0916-.03.0459-.0533-.0266-.0808.055-.1058.0725-.0216.12-.045.1975-.0517.0834-.0083.1359-.0833.205-.1333.0334-.0358.0775-.1141.13-.1141 0-.0616.1-.0233.0709-.1083-.0084-.03-.165.09-.175.1084-.0475 0-.17.0984-.2025.1417-.025.0334-.0542.0367-.085.075-.08 0-.0934-.0816-.0134-.1016 0-.0916.0275-.0583.0666-.125.0267-.05.0867-.0733.1034-.1308-.0609 0-.1367-.0267-.0417-.0692.0817-.0358.0808-.0333.0808-.1233.1 0 .1133-.095.1917-.1308.115-.0533-.2167-.045-.2167-.05-.0558.0084-.0983.015-.1483.0417-.0883.045-.1025.0167-.1275-.0666-.0625.0208-.4333.0817-.4333.1025-.03 0-.3667.0417-.3667.0517-.1375 0-.2475.0334-.3942-.0125-.1025-.0333-.025-.0966.0283-.1416 0-.0233.1217-.05.1583-.05 0 .0917-.07.035-.0917.1142.1916.0375.3966-.025.575-.025 0-.0333.2708-.0358.315-.0775-.1025-.0083-.0942-.0441-.0525-.115-.085 0-.1667.0384-.2359.0384-.0784 0-.1892.0375-.2834.0317-.1183-.0083.0125-.1083.0608-.1083 0-.0217.1475-.0483.1767-.045.0883.0083.0458-.0333.1117-.0333 0-.025.145-.025.1733-.0275.1033-.0083.165-.0483.2466-.0483.0584 0 .0967-.0483.1542-.0392.0809.0125.125-.0108.2117-.025-.025-.0725-.195.0134-.2558.0134-.0225 0-.15.0142-.15.0383-.0417.0084-.1108 0-.15 0-.03 0-.2692.0375-.2692.05-.145-.015-.2167.0267-.3533.0267 0 .005-.2525.05-.2884.05 0 .0359-.1967.035-.1967.0784-.0383.0083-.2225.0584-.2225.0767-.0942 0-.1567.06-.275.0642 0-.1359.3942-.1.3942-.1917-.0292-.0033-.0584-.0067-.0875-.0083-.0584-.0067-.0734-.055-.01-.0667.0516-.0083.1016.0167.1566.015.0583-.0025.1167-.0108.175-.0167 0-.0809-.0975-.0725-.1692-.0525 0 .0316-.22.025-.2608.0391-.165 0-.2917.0184-.45.0234-.0784.0025-.1584-.0083-.2375-.0025-.0667.0033-.1375.0367-.2025.0167-.075-.0208-.1417-.0167-.145-.1017.0525-.0266.0975-.0641.1166.0125l.1058.0134c.0184-.0466.0267-.0583-.025-.0767 0-.0583-.1058.0309-.1058-.0125-.0683-.0166-.1116-.0641-.0108-.0917l.165-.04c.0692-.02.1084-.0041.1084-.0816-.0617.0033-.2034.0433-.23-.0225-.0275-.0684.0416-.0917.1-.0934.025.1059.12.0384.1891.0384.0333 0 .1641-.035.1641-.065-.0959 0-.1917.0134-.2875.0134-.0567-.1467.15-.09.2225-.1167-.0125-.025-.0275-.0683.005-.0884.055-.035.075.0184.1266.0167.05 0 .105-.0217.155-.0292.0233-.0458.0958-.0333.1442-.0392 0-.0667.0808-.0083.0525-.0892-.055.02-.1067.0384-.1584.0384-.0217.0442-.095.025-.1417.025 0 .0184-.0609.025-.08.025 0 .0467-.1959 0-.1959.0642-.0859 0-.1267.0225-.1309-.0716-.0042-.0667.0308-.07.09-.0558-.0167.0517 0 .0684.0533.0517v-.077c.0517-.0167.055-.025.1183-.025 0-.02.1333-.0334.1567-.065-.03.0033-.0433-.005-.0392-.025-.0084 0-.065.0108-.065.025-.075 0-.14.025-.225.0383 0 .0192-.12.0392-.1417.0392-.0217.0416-.05.025-.0917.025 0-.075.0125-.0117.0125-.05.0608 0 .0833 0 .1167-.0517.0375-.0067.1966-.03.1966-.05.0525 0 .0942-.0267.145-.0267 0-.035.145-.025.1833-.025.0633-.02.21-.0383.21-.1034.025 0 .1167.0083.1167-.0134.1125-.0367.14-.0667.25-.1025 0-.0067.1025-.05.1166-.05 0-.0392.1317-.0167.1317-.065.0583 0 .38-.11.38-.1792-.1583.005-.2967.1167-.4192.1167 0 .0208-.1583.055-.1966.0625 0 .025-.14.0666-.1692.0775-.0633.0208-.095.0383-.17.05 0 .0142-.0642-.03.0392-.05.0283-.0417.2483-.1.2483-.1417.025 0 .1183-.02.1183-.0383.0642 0 .15-.045.235-.065 0-.0451.275-.0526.275-.1017.0583-.0117.3542-.085.3542-.1284.0375-.0067.17-.0417.17-.0642.05 0 .205-.0625.2233-.1167-.065-.015-.1834 0-.25 0-.0192-.0392-.2084-.0117-.2084 0-.075 0-.1858.105-.1567-.0384-.015 0-.05-.02-.0791-.025 0-.0734.0317-.0601.1-.0601.0834 0 .0934.05.1834.04.0725-.0067.1167.0016.1358-.07.0209-.0067.0917.0066.0917-.0125.0767 0 .195-.0375.275-.0375.05 0 .1959.0116.2359-.025-.0217-.0167-.17-.0184-.17-.0392-.0625 0 .045-.0625.075-.0642.0642-.0033.1017 0 .1625-.0225.1141-.0392.1558.0267.26.02.0383-.0025.0691-.0133.08-.0484-.0767-.02 0-.0441 0-.09-.0834.0084-.1467.0517-.2367.0434-.0517-.0041-.05-.0166-.0308-.0616.0083-.0166.1367-.0166.1625-.0208.0208-.0617.1967-.0625.1967-.0633.0417-.0233.05-.0208.065.025.07 0 .025-.0383.0767-.0667.05-.0267.1716-.0458.1716.015.0583.0109.1142.0534.17.0334.135-.0475-.0683-.06-.0933-.065-.0567-.0109-.0583-.0059-.0533-.0584.0025-.0333-.0334-.0667-.0359-.1025.0583 0 .0725 0 .1033.0533.0333.0584.0892.0375.1583.0375.0234.0475.0584.0317.1042.025.0167-.0708.0834-.075.1559-.0767 0 .0433-.0167.0617.0317.07.0208.0042.06.0083.06-.0183.0633-.015.085.0317.105-.0642.09166-.0166.1833-.0233.275-.025.125-.0025.035.075-.0392.075 0 .0567.3792.035.3792.0917.0625.0142.185.1192.2233-.0133-.0783.0083-.1583.0358-.17-.0642.0917 0 .0233-.0633.0392-.1167.025 0 .0916-.1142.0141-.1142 0 .0067-.2516.0875-.3016.09.0042-.0366-.0083-.1125.035-.1192.0442-.0066.0892-.0133.1333-.0233.125-.0291.0417-.0358.0417-.1142.0359.0034.2359.0384.2359.025.0417 0 .2483-.0466.1167-.0891-.0166-.0867-.0416-.0583-.1283-.0417l-.23167.045c-.0667.0125-.1017-.0308-.0484-.075.0208-.0166.105-.0041.1333-.0041 0-.0083.2391-.0708.2666-.0775.0667-.015.1334-.02.2-.0225.0584-.0025.1625.0275.1625-.0417-.0808-.015-.1666-.0208-.2483-.02-.0967 0-.1792.0525-.275.0584 0-.0584.0208-.0625.0783-.0767.0417-.0917.0417-.0817.1392-.0975.1333-.0217.23-.0433.3583-.0433 0-.0459.22336.0308.22336-.0517-.1-.0142-.1317-.0542-.105-.1417-.0617-.01-.1225 0-.1833 0V.871c.0283 0 .0667-.005.0917.0125.0209.04334.1025.01334.15.01334.0417 0 .1717.0225.185-.0217.0109-.0375-.04-.0867-.0733-.1059 0-.0434-.0191-.0642.0334-.0642.0417 0 .0708.03.0708.0641.0625.0308.0484.1067.13.1283.0334.0083.0717 0 .1042-.0083.0218-.0058.0968-.0558.0251-.0558 0-.0725-.0883-.0875-.0667-.185.0092-.0567-.0133-.01-.0133-.065 0-.0892.0516.0058.0783.0058 0 .0208.025.0391 0 .0391 0 .075.0166.0784.0391.1417.03-.0083.0483-.0225.0791-.0266.0134.025.0292.0525.0525.0642.015.0725.13.2167.2084.2167 0-.0381-.0383-.0581-.0383-.08894-.058-.0383-.058-.125-.1163-.1541.00414-.0442.0333-.0917-.0142-.115-.01586-.06004-.0367-.0467-.045-.1017-.003-.01934-.043-.1285-.058-.1285 0-.05582-.04-.08833-.02165-.15.0275-.0942.08664-.02.08664.04167 0 .05335.0359.22504.1167.25004.0034-.025.0267-.1292 0-.1292-.015-.035-.0433-.09-.005-.115.06-.0366.0359.025.0734.025 0 .0267.0392.0867.0392.0517.0484 0-.0225-.0766.025-.0766.025-.0283.0334-.0216.04-.0641.0725 0 .0884.1667.1184.2309.075-.0366.0125-.1467.0125-.205C8.2326.2951 8.2593.05 8.2635 0"/>
</svg>
