<svg xmlns="http://www.w3.org/2000/svg" width="162.5" height="75" xmlns:xlink="http://www.w3.org/1999/xlink" viewBox="0 0 162.5 75">
  <path fill="#ebebeb" d="M181.764 22.231c-33.097-1.971-52.837 17.907-38.135 43.869 27.652 10.857 44.912-11.177 38.135-43.869z" clip-path="url(#b)" transform="matrix(.6268 0 0 .6266 -13.046 -13.845)"/>
  <path fill="#dcdcdc" d="M96.85152 4.72112C80.2536 3.26866 70.18367 13.39758 77.91632 26.4978c14.00054 5.78722 22.79756-5.44827 18.9353-21.77668z"/>
  <path fill="#f0f0f0" d="M9.42873 67.25216v-.3296H6.2967v.32896c.72017.12475 1.03356.5163 1.03356.81395 0 .15663 0 .43788-.17238.87713l-1.535 3.85038-1.75376-4.27338c-.12537-.31338-.17237-.48563-.17237-.76763 0-.235.26637-.45425.7835-.50063v-.329H1.3325v.32888l.29772.12475c.4068.17225.54845.34525.6732.65725l2.81927 6.9364c.4387-.48563.6104-.73688.7828-1.143l2.4275-5.58914c.2657-.62594.4694-.79825 1.0956-.98562zm8.28485 5.47895l-.32906-.094c-.73584 1.2375-1.23726 1.5508-2.50588 1.5508-1.34697 0-1.535-.1247-1.535-1.0954v-2.1774l1.12758.0639c.78348.0464 1.04925.2494 1.29995 1.1273h.32913v-2.866h-.329c-.235.8923-.45437 1.1122-1.29988 1.1429l-1.1275.0475v-3.0214l1.45675.0464c1.159.032 1.51876.2825 2.0985 1.3622l.3285-.1091-.21937-1.7858h-6.04577v.3289c.89252.1566 1.08056.406 1.08056 1.3929v4.5095c0 .8923-.2978 1.1737-1.347 1.2519v.3289h6.6401l.3773-2.0045zm10.7268-1.5652v-.3133h-3.78953v.3596c1.0649.1723 1.39396.4699 1.39396 1.3315v.438c0 .8603-.6731 1.3459-1.8634 1.3459-1.9888 0-3.3671-1.4406-3.3671-3.4914 0-2.0978 1.2215-3.4913 3.0067-3.4913 1.4097 0 2.0828.4235 3.0224 1.9888l.2978-.1723-.094-1.8308c-1.4096-.3916-2.0045-.5326-2.9597-.5326-3.0537 0-4.7297 1.6755-4.7297 4.133 0 1.2213.517 2.2858 1.4566 3.0534.8142.673 1.6754.923 3.1007.923.7202 0 1.3469-.0784 1.8634-.2194.9709-.2493 1.0805-.2976 1.2059-.2976h.1096c.141 0 .282.032.4388.0475l-.2037-1.2057v-.7832c0-.767.25-1.0483 1.1113-1.2833zm9.34914 3.5697v-.329c-.51647-.2031-.72018-.3597-.8612-.7206l-2.75597-6.8255H33.1702l-2.5685 6.2942c-.36038.8923-.53276 1.0327-1.34626 1.2519v.3289h3.13212v-.329c-.62678-.1091-.72018-.141-.89254-.2814-.10968-.094-.17238-.235-.17238-.376 0-.1724.0627-.3916.15672-.673l.31337-.94h3.19476l.5327 1.2995c.0784.203.1253.344.1253.4543 0 .2507-.2194.4224-.6575.5163v.3289h2.8017zm-3.0844-3.178h-2.6933l1.3156-3.6787 1.3777 3.6788zm14.2506-4.3054v-.3296h-3.67986v.3289c1.08056.141 1.36263.438 1.39395 1.3459l.1254 4.4157-5.1835-6.0911h-2.1612v.3289c1.1276.344 1.4404.7193 1.3777 1.9875l-.188 3.883c-.047.9243-.3284 1.2055-1.4096 1.2839v.329h3.8836v-.329c-1.1432-.0464-1.488-.376-1.503-1.2839l-.094-4.4926L46.9043 75l.53212-.438.2037-5.96518c.0318-.89103.282-1.18803 1.3155-1.34466zm11.2445 3.7959v-1.0308l-1.98.0414h-1.0599v-1.6448l.09775-1.1849-.9621.3339v2.4951h-2.92772l-.19555.9618 1.72868-.0977h1.3946v1.2544l-.09776 2.1198.9621-.1955v-3.178h1.21347l1.8264.1253zm11.3743-3.7959v-.3296h-3.13206v.3289c.7208.1248 1.03357.5163 1.03357.8139 0 .1567 0 .4379-.17238.8772l-1.53437 3.8504-1.75376-4.2733c-.12537-.3134-.17237-.4856-.17237-.7676 0-.235.26575-.4542.78287-.5006v-.329h-3.14776v.3289l.29763.1248c.4067.1723.5477.3453.6731.6573l2.8186 6.9364c.4387-.4856.6111-.7369.7835-1.143l2.4269-5.5891c.2664-.626.47-.79832 1.0962-.9856zm8.28485 5.4789l-.32908-.094c-.7359 1.2375-1.2373 1.5508-2.5059 1.5508-1.347 0-1.5344-.1247-1.5344-1.0952v-2.1774l1.1276.0639c.7828.0464 1.0492.2494 1.2993 1.1273h.3291v-2.866h-.329c-.2344.8923-.4538 1.1121-1.2993 1.1429l-1.1275.0475v-3.0214l1.456.0464c1.159.032 1.5194.2825 2.0985 1.3621l.3291-.1091-.2194-1.7859h-6.0447v.3289c.8926.1566 1.0806.406 1.0806 1.3929v4.5095c0 .8923-.2978 1.1737-1.347 1.2519v.3289h6.6401l.3761-2.0045zm10.72806-1.5652v-.3132H86.796v.3596c1.0649.1723 1.3946.4699 1.3946 1.3315v.438c0 .8603-.67313 1.3459-1.86338 1.3459-1.98938 0-3.36638-1.4406-3.36638-3.4914 0-2.0978 1.22038-3.4913 3.00675-3.4913 1.409 0 2.0822.4235 3.0211 1.9888l.299-.1723-.094-1.8308c-1.4103-.3916-2.005-.5326-2.9603-.5326-3.0543 0-4.729 1.6755-4.729 4.133 0 1.22128.5171 2.28578 1.4573 3.0534.8142.673 1.6747.923 3.0995.923.7209 0 1.3476-.0784 1.8647-.2194.9708-.2494 1.0798-.2976 1.2058-.2976h.1091c.1411 0 .2827.032.4381.0475l-.203-1.20562v-.7831c-.0022-.767.2501-1.0484 1.1119-1.2834zm8.8151 1.5653l-.3278-.094c-.73713 1.2375-1.238 1.5508-2.506 1.5508-1.3464 0-1.535-.1247-1.535-1.0952v-2.1774l1.1275.0639c.7835.0464 1.04924.2494 1.29986 1.1273h.329v-2.866h-.329c-.2352.8923-.4544 1.1121-1.3 1.1429l-1.1277.0475v-3.0214l1.4566.0464c1.1595.032 1.5192.2825 2.0985 1.3621l.329-.1091-.2194-1.7859h-6.0452v.3289c.8925.1566 1.0798.406 1.0798 1.3929v4.5095c0 .89223-.2965 1.1736-1.3451 1.2519v.32883h6.6401l.3742-2.0045zm8.98935-3.7734l-.42246-2.1442c-1.26798.312-1.59765.344-3.63346.344-1.94178 0-2.27085-.032-3.49246-.344l-.438 2.1443.267.1567c.6255-1.0646 1.08-1.393 2.11414-1.393h.971v5.1193c0 1.0645-.376 1.4243-1.62963 1.5653v.3289h4.6521v-.329c-1.3306-.109-1.7224-.47-1.7224-1.5652v-5.1192h.971c1.1277 0 1.4567.31207 2.1142 1.4393l.2495-.203zm8.53497 5.7778v-.329c-.5165-.2031-.71957-.3597-.86186-.7206l-2.7554-6.8255h-1.0029l-2.5686 6.2942c-.3598.8923-.5328 1.0326-1.3464 1.2519v.3289h3.1314v-.3288c-.6256-.1091-.7196-.141-.8926-.2814-.1092-.094-.1724-.235-.1724-.376 0-.1724.064-.3916.1566-.673l.3134-.94h3.1953l.5328 1.2996c.0784.203.1247.3439.1247.4543 0 .25067-.2194.4223-.6575.5163v.3289h2.803zm-3.08508-3.1778h-2.6933l1.315-3.6787 1.37832 3.6788zm13.42075 3.1624v-.2042c-.9546-.1554-1.315-.2812-1.73807-.6572-.57915-.5006-1.09687-1.1272-2.27086-2.6925.6894-.5789.9401-.8459 1.1595-1.2375.2031-.3596.3134-.7976.3134-1.1892 0-1.1736-.8926-1.8785-2.3492-1.8785-.5008 0-.8462.0307-1.7381.1724l-2.1618-.1259v.329c.9401.2506 1.1909.5639 1.1909 1.5189v4.3994c0 .876-.2827 1.158-1.3 1.252v.329h3.8829v-.329c-.9866-.12473-1.2831-.4223-1.2831-1.2519v-1.661c.2657.01578.4688.0319.6098.0319.1259 0 .329-.01564.5791-.0319.7835 1.3779 1.2216 2.0045 1.802 2.5208.6732.62654 1.3306.90787 2.0822.90787.4074.00063.6261-.03012 1.221-.2024zm-3.7112-5.3862c0 .673-.28143 1.1592-.86057 1.5509-.32908.094-.43938.1091-.7835.1091-.45442 0-.5948-.0926-.9389-.235v-3.2714c1.33065 0 1.55003.1248 2.02012.5007.40615.329.56287.8453.56287 1.346zm8.95866 5.4019v-.3289c-1.09687-.0625-1.41025-.3441-1.41025-1.252v-4.603c0-.908.31338-1.1906 1.41025-1.2996v-.3295h-3.9945v.3289c1.0185.141 1.29993.406 1.29993 1.2995v4.6029c0 .8759-.329 1.1735-1.409 1.2519v.3289h4.1036v.0006zm7.73515-1.9261c0-.5326-.26576-1.0953-.6732-1.4242-.28274-.2193-.68948-.4844-1.206-.7513-.86186-.4543-1.3476-.7833-1.70674-1.111-.2828-.2826-.4702-.6892-.4702-1.0646 0-.6266.5471-1.0966 1.2842-1.0966.6098 0 1.1896.3133 1.644.8773.203.235.4223.5326.6575.876l.329-.1091-.3291-1.7539c-.9867-.329-1.4247-.4224-2.0358-.4224-1.5658 0-2.6307.8603-2.6307 2.1135 0 .5789.235 1.1109.7039 1.5495.267.2507.5483.4699.8311.6267.171.0926.5471.2964 1.1432.6096.8925.4857 1.1883.8153 1.1883 1.3472 0 .73567-.5792 1.26767-1.3934 1.26767-.4702 0-1.0493-.235-1.503-.64227-.4238-.39037-.6413-.673-.939-1.455l-.329.171.203 1.98876c1.1595.39163 1.676.50063 2.4431.50063 1.6446 0 2.7878-.86037 2.7878-2.09787zm9.34914-.4073l-.3134-.0783c-.73575 1.4099-1.70675 2.0045-2.77163 2.0045-1.51926 0-2.944-1.5345-2.944-3.6324 0-1.9725 1.08124-3.3347 2.835-3.3347.57913 0 1.22038.1724 1.55.47.32976.2977.6575.814.971 1.5027l.2815-.094v-1.831c-1.14324-.46994-1.644-.59463-2.58425-.59463-2.8181 0-4.5097 1.6592-4.5097 4.0547 0 1.2375.5948 2.44245 1.5657 3.2088.7678.59463 1.5514.8296 2.882.8296.9082 0 1.3464-.0625 2.4595-.344l.5785-2.16114zm11.65194 2.3335v-.3289c-.9558-.1566-1.1896-.4222-1.1896-1.2839v-4.571c0-.8458.2495-1.1284 1.1897-1.2995v-.3295h-3.4605v.3453c.7822.2194.9709.5007.9709 1.4405v1.346l-.3291.2194h-4.2126v-1.7219c0-.8458.2658-1.1285 1.1896-1.2995v-.3296h-3.4448v.3453c.7823.2194.9709.5007.9709 1.4405v4.4144c0 .876-.267 1.143-1.2536 1.2839v.329h3.7275v-.3288c-.9402-.1566-1.1896-.4224-1.1896-1.2839V71.136l.329-.20427h4.2127v2.19185c0 .8923-.267 1.1748-1.3 1.2838v.329h3.7895zM83.187 26.2686c4.3236.9612 8.67347-1.7877 9.7152-6.14 1.0417-4.3524-1.61962-8.6608-5.94193-9.62207-4.3235-.9618-8.67277 1.7876-9.71452 6.1407-1.04162 4.3523 1.619 8.6602 5.9414 9.6214zm77.0583 13.32262c.15667-2.5164.2093-3.7747.99655-7.1294-7.07953 0-10.69794.3671-13.63382 2.5164-3.72375 2.7263-6.71226 7.9677-6.71226 14.1015 0 6.3944 2.2025 9.2253 4.98103 9.2253 1.88787 0 5.139-1.6241 7.65614-5.2941l.20938.1052-.262 4.8755h2.88438c2.83177 0 5.97765-1.3635 6.13565-5.348l-2.83187.4197-.262-.2618.83862-13.21055zm-5.61103-3.0929l-.78723 14.678-6.13434 2.569c-.52524-1.0489-.94392-3.1982-.94392-5.2415 0-4.9809 1.78256-9.2793 4.03586-12.0049h3.8296v-.0007zm-18.3529-7.6013c.20938-3.5121.262-4.6656.83863-8.1777l-.7333-.7864-9.17677 1.7294 3.6172 4.351-.4187 6.7095c-.26325-.10468-1.15456-.1574-1.67855-.1574-4.82434 0-12.3226 6.39624-12.3226 16.3554 0 8.17763 3.09383 9.38313 5.03375 9.38313 2.14983 0 5.34833-2.09666 7.6035-5.29417l.20934.10524-.262 4.8755h2.98978c2.8318 0 5.97764-1.7834 6.0303-5.348l-2.8318.4198-.262-.262 1.36325-23.9039zm-6.13557 7.6012l-.786 14.678-6.1356 2.569c-.52398-1.0489-.94394-3.1982-.94394-5.2415 0-4.9809 1.78388-9.2793 4.03842-12.005h3.82713v-.0006zm-16.2024 16.1449l-2.93712.4198-.1567-.2093.8913-17.2471c.10525-1.9919-1.31125-3.4594-3.46048-3.4594-3.25048 0-5.97764 2.20186-8.4948 6.239l-.10526-.10523.36734-5.8192h-2.8845c-3.46052 0-5.92502 1.5728-6.55428 5.6099l3.30376-.3672.15677.2093-.99663 19.6582h6.13568c-.1579-2.4124-.2094-4.6136-.2094-4.6136l.6294-12.7374 4.92838-2.7789 1.102.839c.10413 1.9926.20938 1.94.10413 3.6688l-.8387 16.0421h2.8845c3.1985-.0007 6.031-1.7307 6.135-5.3487zm-26.0605 0l-2.7265.4198-.31462-.5238.68194-12.9481.6819-7.1294h-3.25175c-3.82776 0-6.0829 1.9399-6.5549 5.6099l3.04126-.3673.26265.2619c.15737.7858.052 1.5728 0 3.0929l-.83928 16.9324h2.88512c3.14653-.0006 6.08178-1.7834 6.1344-5.3486zM73.62038 38.123c0-2.20122-.1047-4.665-.20937-5.6613h-2.1498c-2.0978 0-4.6143 1.8347-4.6143 4.71765v.57647l2.5692-.36656.262.26194c.0528.36716.3146.99628.3146 2.67303 0 4.61364-1.1532 12.73868-6.5022 13.36778l-1.1532-.7857c-.3146-1.3108-.3146-2.3071-.3146-3.7226 0-1.2055 0-2.3059.1048-3.616l.8388-13.1059h-3.3039c-3.0417 0-5.8202 1.5728-6.2929 5.61l3.3039-.3671.052 1.2056-.5766 11.4805c0 .4186-.0521.7332-.0521 1.1003 0 4.6124 2.3599 6.5009 5.611 6.5009 8.0236-.0006 12.1133-12.1102 12.1133-19.8688zM50.9683 41.58243c0-7.12877-2.62183-9.27797-8.12752-9.27797-6.97427 0-11.53598 7.4433-11.53598 16.30276 0 6.60493 2.09722 9.6978 7.86552 9.6978 6.5543-.00062 11.798-6.5529 11.798-16.72258zm-5.82032.68175c0 3.0415-.262 8.59752-1.88788 11.95168h-2.0452c-3.40846 0-4.08976-1.83466-4.08976-6.3944 0-3.66997.36666-8.23034 1.93988-11.63774h1.94054c3.3558 0 4.14242 2.04394 4.14242 6.08046zM28.36832 40.4295H15.1018l.73394 1.52012 3.9851 1.93994-.52463 9.90778-.7866.891c-.524.31463-1.5205.68175-2.7791.68175-6.3449 0-8.7041-3.9319-8.7041-11.7951 0-11.6898 3.6178-18.1374 10.0154-18.1374 1.206 0 2.4646.3666 3.0412.7337l.734.9436 1.7306 4.5084 3.0418 1.4155.524-5.5047.6293-3.512c-4.1951-.7864-6.9742-.9437-9.5435-.9437C5.715 23.0785 0 32.567 0 43.8895c0 9.2793 5.29634 14.25884 12.63724 14.25884 3.04117 0 7.1836-.10525 13.42387-1.78205l-.262-2.6743.6293-10.3789 1.8879-1.6254.052-1.2582z"/>
  <path fill="#b4b4b4" d="M87.9004 15.00542c-8.11375-1.69808-11.93716 5.24084-7.95077 8.82934 3.89233 3.504 10.47358-1.07387 7.95077-8.82927z"/>
</svg>
