<?xml version="1.0" encoding="UTF-8" standalone="no"?>
<svg
   xmlns:dc="http://purl.org/dc/elements/1.1/"
   xmlns:cc="http://creativecommons.org/ns#"
   xmlns:rdf="http://www.w3.org/1999/02/22-rdf-syntax-ns#"
   xmlns:svg="http://www.w3.org/2000/svg"
   xmlns="http://www.w3.org/2000/svg"
   xmlns:sodipodi="http://sodipodi.sourceforge.net/DTD/sodipodi-0.dtd"
   xmlns:inkscape="http://www.inkscape.org/namespaces/inkscape"
   viewBox="0 0 165 165"
   id="svg2"
   version="1.1"
   inkscape:version="0.91 r13725"
   sodipodi:docname="blueprint-bg.svg">
  <metadata
     id="metadata14">
    <rdf:RDF>
      <cc:Work
         rdf:about="">
        <dc:format>image/svg+xml</dc:format>
        <dc:type
           rdf:resource="http://purl.org/dc/dcmitype/StillImage" />
      </cc:Work>
    </rdf:RDF>
  </metadata>
  <defs
     id="defs12" />
  <sodipodi:namedview
     pagecolor="#ffffff"
     bordercolor="#666666"
     borderopacity="1"
     objecttolerance="10"
     gridtolerance="10"
     guidetolerance="10"
     inkscape:pageopacity="0"
     inkscape:pageshadow="2"
     inkscape:window-width="970"
     inkscape:window-height="795"
     id="namedview10"
     showgrid="false"
     inkscape:zoom="1.430303"
     inkscape:cx="82.5"
     inkscape:cy="82.5"
     inkscape:window-x="75"
     inkscape:window-y="34"
     inkscape:window-maximized="0"
     inkscape:current-layer="svg2" />
  <path
     d="m 0,115 50,0 0,50 -50,0 z"
     id="path4"
     inkscape:connector-curvature="0"
     style="fill:#3779dd" />
  <path
     d="m 3.4242424,115 0,50 m 3.2727273,-50 0,50 m 3.2727273,-50 0,50 m 3.272727,-50 0,50 m 6.848485,-50 0,50 m 3.272727,-50 0,50 m 3.272728,-50 0,50 m 3.272727,-50 0,50 m 6.545454,-50 0,50 m 3.272728,-50 0,50 M 43,115 l 0,50 m 3.272727,-50 0,50 M 0,161.27273 l 50,0 M 0,158 l 50,0 m -50,-3.27273 50,0 m -50,-3.27272 50,0 m -50,-6.84849 50,0 m -50,-3.27273 50,0 m -50,-3.27272 50,0 m -50,-3.27273 50,0 m -50,-6.54546 50,0 m -50,-3.27272 50,0 m -50,-3.27273 50,0 m -50,-3.27273 50,0"
     id="path6"
     inkscape:connector-curvature="0"
     style="fill:none;stroke:#278beb;stroke-width:0.30303031" />
  <path
     d="m 16.515152,115 0,50 m 16.666666,-50 0,50 m 16.666667,-50 0,50 M 50,131.51515 l -50,0 m 50,33.33333 -50,0 m 50,-16.66666 -50,0"
     id="path8"
     inkscape:connector-curvature="0"
     style="fill:none;stroke:#59a5f1;stroke-width:0.30303031" />
</svg>
