<svg style="position: absolute; width: 0; height: 0;" width="0" height="0" version="1.1" xmlns="http://www.w3.org/2000/svg" xmlns:xlink="http://www.w3.org/1999/xlink">
<defs>
<symbol id="icon-bug" viewBox="0 0 23 32">
<title>bug</title>
<path class="path1" d="M7.613 4.892c-1.652 1.774-1.196 4.608-1.196 4.608s1.686 2 5 2c3.313 0 5.001-2 5.001-2s0.449-2.796-1.168-4.572c1.012-0.563 1.607-1.378 1.361-1.932-0.279-0.624-1.512-0.68-2.758-0.124-0.463 0.206-0.857 0.468-1.164 0.746-0.389-0.070-0.801-0.118-1.273-0.118-0.439 0-0.83 0.042-1.198 0.102-0.302-0.273-0.689-0.527-1.142-0.73-1.246-0.554-2.48-0.498-2.758 0.124-0.242 0.542 0.321 1.334 1.294 1.895zM20.148 17.805c-0.258-0.055-0.504-0.086-0.742-0.109 0-0.066 0.012-0.129 0.012-0.197 0-1.050-0.148-2.052-0.389-3.004 0.514 0.044 1.168-0.074 1.83-0.368 1.246-0.556 2.031-1.512 1.754-2.132-0.277-0.624-1.512-0.68-2.758-0.124-0.582 0.26-1.057 0.608-1.375 0.966-0.242-0.57-0.516-1.118-0.838-1.616-0.943 0.786-2.729 1.96-5.221 2.221v10.056c0 0-0.008 1-1.001 1s-1-1-1-1v-10.052c-2.494-0.261-4.28-1.437-5.222-2.221-0.309 0.479-0.574 1-0.811 1.542-0.321-0.332-0.77-0.651-1.312-0.894-1.246-0.554-2.48-0.498-2.758 0.124s0.508 1.576 1.754 2.132c0.62 0.276 1.235 0.4 1.733 0.378-0.239 0.95-0.39 1.948-0.39 2.994 0 0.068 0.012 0.133 0.014 0.203-0.21 0.023-0.428 0.055-0.649 0.102-1.624 0.336-2.868 1.176-2.776 1.869 0.092 0.697 1.484 0.984 3.112 0.646 0.212-0.043 0.42-0.098 0.618-0.158 0.286 1.275 0.744 2.459 1.378 3.478-0.376 0.189-0.767 0.469-1.126 0.832-0.996 0.996-1.4 2.207-0.902 2.705s1.708 0.094 2.704-0.9c0.292-0.293 0.526-0.602 0.708-0.906 1.36 1.332 3.064 2.129 4.924 2.129 1.886 0 3.618-0.82 4.985-2.186 0.184 0.322 0.43 0.65 0.738 0.959 0.994 0.996 2.207 1.4 2.705 0.902s0.094-1.707-0.902-2.703c-0.385-0.387-0.803-0.68-1.201-0.873 0.629-1.016 1.082-2.199 1.365-3.471 0.225 0.070 0.459 0.137 0.705 0.189 1.627 0.338 3.020 0.049 3.113-0.646 0.088-0.691-1.156-1.531-2.781-1.867z"></path>
</symbol>
<symbol id="icon-key" viewBox="0 0 28 32">
<title>key</title>
<path class="path1" d="M20.028 1.997c-4.419 0-8 3.581-8 8 0 0.613 0.069 1.206 0.2 1.778l-12.228 12.225v2l2 2h4l2-2v-2h2v-2h2v-2h4l2.213-2.212c0.584 0.134 1.191 0.206 1.816 0.206 4.419 0 8-3.581 8-8s-3.584-7.997-8-7.997zM12 16l-10 10v-2l10-10v2zM22 10c-1.103 0-2-0.897-2-2s0.897-2 2-2 2 0.897 2 2c0 1.103-0.897 2-2 2z"></path>
</symbol>
<symbol id="icon-law" viewBox="0 0 32 32">
<title>law</title>
<path class="path1" d="M16.063 6c1.063-0.031 1.906-0.875 1.938-1.938 0.031-1.156-0.906-2.094-2.063-2.063-1.063 0.031-1.906 0.875-1.938 1.938-0.031 1.156 0.906 2.094 2.063 2.063zM30.563 18h-0.563l-3.969-7.688c0.563-0.063 1.125-0.281 1.625-0.5 0.75-0.344 0.906-1.344 0.344-1.938l-0.031-0.031c-0.344-0.344-0.875-0.469-1.344-0.25-0.438 0.188-1.063 0.406-1.656 0.406-1.75 0-2.531-2-8.969-2s-7.219 2-8.969 2c-0.625 0-1.219-0.188-1.656-0.406-0.469-0.188-1-0.094-1.344 0.25l-0.031 0.031c-0.563 0.594-0.406 1.563 0.344 1.938 0.5 0.25 1.063 0.438 1.625 0.5l-3.969 7.688h-0.563c-0.25 0-0.438 0.219-0.406 0.469 0.344 2 2.875 3.531 5.969 3.531s5.625-1.531 5.969-3.531c0.031-0.25-0.156-0.469-0.406-0.469h-0.563l-3.969-7.656c2.594-0.219 3.969-1.531 5.969-1.531v15.188c-1.094 0-2 0.906-2 2h-2.219c-0.875 0-1.781 0.906-1.781 2h16c0-1.094-0.906-2-2.219-2h-1.781c0-1.094-0.906-2-2-2v-15.188c2 0 3.375 1.313 5.969 1.531l-3.969 7.656h-0.563c-0.25 0-0.438 0.219-0.406 0.469 0.344 2 2.875 3.531 5.969 3.531s5.625-1.531 5.969-3.531c0.031-0.25-0.156-0.469-0.406-0.469zM10 18h-6l3-5.625 3 5.625zM22 18l3-5.625 3 5.625h-6z"></path>
</symbol>
<symbol id="icon-mail" viewBox="0 0 28 32">
<title>mail</title>
<path class="path1" d="M0 6v20h28v-20h-28zM24 8l-10 8.25-10-8.25h20zM2 10l7.876 5.988-7.876 6.012v-12zM4 24l7.938-6.445 2.063 1.57 2.059-1.566 7.941 6.441h-20zM26 22l-7.887-6.002 7.887-5.998v12z"></path>
</symbol>
<symbol id="icon-mail-read" viewBox="0 0 28 32">
<title>mail-read</title>
<path class="path1" d="M18 12h-10v2h10v-2zM12 8h-4v2h4v-2zM24 7.142v-3.142h-4.4l-5.6-4-5.6 4h-4.4v3.142l-4 2.858v20h28v-20l-4-2.858zM6 6h16v7.65l-8 6.6-8-6.6v-7.65zM2 14l7.876 5.988-7.876 6.012v-12zM4 28l7.938-6.445 2.063 1.57 2.059-1.566 7.941 6.441h-20zM26 26l-7.887-6.002 7.887-5.998v12z"></path>
</symbol>
<symbol id="icon-mark-github" viewBox="0 0 32 32">
<title>mark-github</title>
<path class="path1" d="M16 0c-8.836 0-16 7.164-16 16 0 7.070 4.584 13.066 10.942 15.182 0.8 0.146 1.092-0.348 1.092-0.77 0-0.381-0.015-1.643-0.022-2.979-4.449 0.967-5.39-1.887-5.39-1.887-0.729-1.848-1.776-2.34-1.776-2.34-1.454-0.992 0.11-0.973 0.11-0.973 1.606 0.111 2.452 1.648 2.452 1.648 1.428 2.445 3.746 1.738 4.656 1.328 0.145-1.031 0.559-1.738 1.016-2.137-3.552-0.404-7.288-1.777-7.288-7.908 0-1.748 0.624-3.174 1.646-4.294-0.163-0.406-0.714-2.034 0.158-4.236 0 0 1.342-0.43 4.4 1.641 1.275-0.356 2.644-0.532 4.004-0.538 1.359 0.006 2.729 0.184 4.006 0.54 3.053-2.072 4.396-1.641 4.396-1.641 0.875 2.204 0.324 3.83 0.16 4.234 1.025 1.12 1.645 2.546 1.645 4.294 0 6.146-3.742 7.5-7.307 7.896 0.576 0.496 1.086 1.469 1.086 2.961 0 2.139-0.021 3.863-0.021 4.391 0 0.426 0.291 0.924 1.102 0.768 6.354-2.119 10.934-8.115 10.934-15.182 0-8.836-7.164-16-16-16z"></path>
</symbol>
<symbol id="icon-rss" viewBox="0 0 24 32">
<title>rss</title>
<path class="path1" d="M4 20c-2.208 0-4 1.793-4 4s1.792 4 4 4 4-1.793 4-4-1.792-4-4-4zM4 12c0 0-2 0.063-2 2s2 2 2 2c4.418 0 8 3.582 8 8 0 0 0 2 2 2s2-2 2-2c0-6.625-5.374-12-12-12zM4 4c0 0-2 0-2 2s2 2 2 2c8.836 0 16 7.164 16 16 0 0 0 2 2 2s2-2 2-2c0-11.044-8.953-20-20-20z"></path>
</symbol>
<symbol id="icon-section" viewBox="0 0 32 32">
<title>section</title>
<path class="path1" d="M15.499 32c-1.543 0-2.847-0.45-3.878-1.338-1.038-0.894-1.565-1.939-1.565-3.104 0-0.567 0.206-1.055 0.613-1.452 0.414-0.404 0.931-0.617 1.495-0.617 0.563 0 1.069 0.2 1.463 0.579 0.39 0.374 0.587 0.869 0.587 1.472 0 0.354-0.058 0.744-0.172 1.161-0.113 0.412-0.137 0.623-0.137 0.728 0 0.115 0.029 0.252 0.243 0.399 0.399 0.276 0.877 0.409 1.465 0.409 0.706 0 1.335-0.246 1.924-0.751 0.581-0.498 0.863-1.010 0.863-1.564 0-0.617-0.165-1.151-0.504-1.633-0.573-0.805-1.652-1.749-3.207-2.802-2.496-1.67-4.158-3.118-5.081-4.422-0.715-1.021-1.077-2.122-1.077-3.272 0-1.158 0.379-2.311 1.128-3.426 0.641-0.955 1.588-1.816 2.82-2.567-0.659-0.709-1.153-1.377-1.472-1.99-0.402-0.774-0.606-1.574-0.606-2.379 0-1.494 0.591-2.786 1.756-3.84s2.621-1.59 4.323-1.59c1.565 0 2.881 0.44 3.912 1.308 1.041 0.878 1.569 1.903 1.569 3.048 0 0.583-0.218 1.105-0.649 1.552l-0.009 0.009c-0.249 0.248-0.707 0.543-1.47 0.543-0.598 0-1.123-0.196-1.517-0.567-0.392-0.369-0.592-0.81-0.592-1.311 0-0.217 0.053-0.544 0.167-1.031 0.056-0.23 0.083-0.442 0.083-0.633 0-0.323-0.116-0.571-0.366-0.78-0.259-0.217-0.628-0.322-1.129-0.322-0.777 0-1.415 0.236-1.95 0.722-0.537 0.488-0.798 1.065-0.798 1.766 0 0.63 0.143 1.149 0.424 1.543 0.535 0.748 1.462 1.556 2.757 2.401 2.63 1.706 4.466 3.271 5.454 4.651 0.73 1.035 1.099 2.136 1.099 3.275 0 1.144-0.371 2.297-1.104 3.427-0.631 0.974-1.585 1.852-2.84 2.616 0.693 0.733 1.182 1.376 1.486 1.954 0.378 0.718 0.569 1.502 0.569 2.329 0 1.552-0.591 2.871-1.758 3.919s-2.621 1.58-4.322 1.58zM13.95 11.136c-1.507 0.905-2.241 1.943-2.241 3.166 0 0.711 0.203 1.348 0.621 1.946 0.623 0.873 1.852 1.939 3.65 3.165 0.761 0.518 1.449 1.022 2.050 1.502 1.533-0.922 2.28-1.949 2.28-3.131 0-0.644-0.254-1.337-0.756-2.060-0.525-0.756-1.652-1.744-3.348-2.935-0.885-0.611-1.642-1.167-2.255-1.654z"></path>
</symbol>
</defs>
</svg>
