<svg xmlns="http://www.w3.org/2000/svg" class="logo logo--two-brain-with-brand" viewBox="0 0 385 100">
  <circle cx="50" cy="50" r="47.953" fill="#fff" stroke="#404640" stroke-width="4.093"/>
  <path fill="#d32f2f" d="M59.855 69.285l-4.308 4.307.004.004h-3.28v1.334h6.79l1.72 1.715.94-.944-2.11-2.1h-2.17l3.37-3.36-.94-.94zm12.627-4.847v5.494h1.334v-5.495h-1.334zm1.694-16.063v7.002l-3.602-3.602-.943.942 4.55 4.545v4.068h1.34V48.375h-1.34zm-14.352-2.093v10.864l-2.832 2.83-2.443-2.443-.95.944 4.99 4.988h7.22V62.13h-6.67l-1.21-1.21 5.94-5.94-.94-.945-1.78 1.778V46.28h-1.33zm1.49-27.27v9.504l-5.052 5.052v6.44h1.332V34.12l3.72-3.72v4.27h1.332v-8.727l4.95 4.948.94-.94-5.89-5.89v-5.05h-1.332zm140.974 20.726h27.843v7.497h-27.84v-7.497z"/>
  <path fill="#404640" d="M62.15 76.33c.43 0 .77.342.77.772s-.34.77-.77.77-.77-.34-.77-.77.34-.772.77-.772zm0-.85c-.89 0-1.62.732-1.62 1.622 0 .89.73 1.62 1.62 1.62.887 0 1.618-.73 1.618-1.61 0-.89-.73-1.622-1.62-1.622v-.01zm17.32-1.143c.73 0 1.32.582 1.32 1.32 0 .737-.59 1.32-1.32 1.32-.74 0-1.33-.583-1.33-1.32 0-.738.58-1.32 1.32-1.32zm-6.3-3.88c.19 0 .39.077.54.23.3.303.3.783 0 1.088-.31.303-.79.303-1.09 0-.31-.305-.31-.785 0-1.09.15-.15.35-.228.54-.228zm0-.845c-.42 0-.83.16-1.15.472-.63.63-.63 1.66 0 2.29.63.626 1.66.626 2.28 0 .63-.63.63-1.66 0-2.29-.31-.313-.72-.47-1.14-.47h-.01zm-11.99-1.5c.43 0 .77.34.77.77s-.34.768-.77.768-.78-.34-.78-.77.34-.77.77-.77zm0-.85c-.88 0-1.62.73-1.62 1.62 0 .89.73 1.62 1.62 1.62.89 0 1.62-.73 1.62-1.61 0-.89-.73-1.62-1.62-1.62l-.01-.01zm19.38-1.345c.73 0 1.32.58 1.32 1.318 0 .738-.59 1.32-1.32 1.32-.74 0-1.33-.582-1.33-1.32 0-.737.58-1.318 1.32-1.318zM27.894 64.03c.185.002.408.017.685.04 3.73.29 7.03 2.61 9.04 6.35 1.38 2.57 1.95 5.4 1.22 6.05-.62.55-1.06.64-1.65.33l-.03-.016c-.57-.297-.9-.74-.91-1.24-.02-.715-.95-3.126-1.63-4.223-.92-1.48-2.59-3.09-3.74-3.6-.54-.24-1.58-.52-2.31-.63-1.63-.24-1.95-.4-2.2-1.08-.22-.62-.07-1.16.49-1.67.27-.23.47-.31 1.03-.3zm39.235-1.99c.43 0 .77.34.77.77s-.34.767-.77.767-.77-.34-.77-.77.34-.77.77-.77zm0-.85c-.89 0-1.62.73-1.62 1.62 0 .89.73 1.62 1.62 1.62.89 0 1.62-.73 1.62-1.62 0-.89-.73-1.62-1.62-1.62zm-15.14-5.55c.73 0 1.32.58 1.32 1.316 0 .73-.59 1.32-1.32 1.32-.74 0-1.32-.59-1.32-1.32 0-.74.58-1.32 1.32-1.32zm11.99-2.43c.43 0 .77.34.77.77s-.34.77-.77.77-.77-.34-.77-.77.34-.77.77-.77zm0-.86c-.89 0-1.62.74-1.62 1.62 0 .89.73 1.62 1.62 1.62.89 0 1.62-.73 1.62-1.62 0-.88-.73-1.62-1.62-1.62zm5.37-1.57c.2 0 .38.08.54.23.31.3.31.78 0 1.09-.3.3-.78.3-1.09 0-.3-.31-.3-.79 0-1.09.15-.15.34-.22.54-.22zm0-.86c-.41 0-.83.16-1.14.48-.63.63-.63 1.67 0 2.3.63.63 1.67.63 2.3 0 .63-.63.63-1.66 0-2.28-.31-.32-.73-.48-1.14-.48l-.01-.002zm-29.06-1.68c.27 0 .47.09.66.28.43.44.55 1.31.26 1.81-.13.22-1 .92-1.93 1.56-1.94 1.33-2.31 1.82-2.62 3.42-.36 1.88-.87 2.31-2.19 1.82-.78-.29-.94-.79-.67-2.16.52-2.58 1.84-4.34 4.39-5.84 1.02-.6 1.66-.88 2.11-.88zm34.58-1.71c.2 0 .39.08.54.23.31.31.31.79 0 1.09-.3.31-.78.31-1.09 0-.3-.3-.3-.78 0-1.09.16-.15.35-.22.54-.22zm-.01-.86c-.41 0-.83.16-1.14.48-.63.63-.63 1.67 0 2.3.63.63 1.66.63 2.29 0 .63-.63.63-1.66 0-2.29-.31-.31-.73-.47-1.14-.47l-.01-.01zm-14.4-.94c.43 0 .77.34.77.77s-.34.78-.77.78-.77-.34-.77-.77.34-.77.77-.77zm0-.85c-.89 0-1.62.73-1.62 1.62 0 .89.73 1.63 1.62 1.63.89 0 1.62-.73 1.62-1.62 0-.89-.73-1.62-1.62-1.62zm7.29-3.12c.74 0 1.32.59 1.32 1.32 0 .74-.58 1.32-1.32 1.32-.73 0-1.32-.58-1.32-1.32 0-.73.59-1.32 1.32-1.32zm-10.84-.68c.43 0 .77.34.77.77s-.34.77-.77.77-.77-.34-.77-.77.34-.77.77-.77zm0-.85c-.89 0-1.62.73-1.62 1.62 0 .89.73 1.62 1.62 1.62.89 0 1.62-.73 1.62-1.61 0-.88-.72-1.61-1.61-1.61zm-31.59-.06c.28 0 .69.06 1.37.19 2.54.48 4.37 1.94 5.45 4.34.27.61.28.83.05 1.24-.35.62-1.2.88-1.75.53h-.02c-.23-.14-.66-.66-.94-1.14-.86-1.46-1.56-1.87-3.98-2.35-.69-.13-.98-.3-1.12-.64-.28-.68-.14-1.52.32-1.91.18-.14.33-.22.62-.23zM62 35.14c.43 0 .77.34.77.77s-.34.77-.77.77-.77-.34-.77-.77.34-.77.77-.77zm0-.85c-.89 0-1.616.73-1.616 1.62 0 .89.73 1.62 1.617 1.62.89 0 1.62-.73 1.62-1.61 0-.89-.73-1.62-1.62-1.62zm7.08-3.67c.43 0 .77.34.77.77s-.34.77-.77.77-.77-.34-.77-.77.34-.77.77-.77zm0-.85c-.89 0-1.618.73-1.618 1.62 0 .89.73 1.62 1.617 1.62s1.61-.73 1.61-1.61c0-.89-.73-1.62-1.62-1.62zM37.57 23.3c.316-.05.65.07 1.024.36 2.076 1.6-2.464 7.72-6.455 8.7-1.34.33-1.98.27-2.49-.23-.89-.86-.47-1.78 1.14-2.51 2.46-1.11 4.43-2.8 5.23-4.48.55-1.14 1.03-1.73 1.56-1.82zM70 19.81c.74 0 1.318.59 1.318 1.32 0 .74-.578 1.32-1.318 1.32-.73 0-1.32-.58-1.32-1.32 0-.73.59-1.32 1.32-1.32zm-14.697-.356H66.31l1.01 1.01c-.05.216-.09.438-.09.67 0 1.523 1.252 2.772 2.782 2.772.23 0 .46-.037.67-.092l3.11 3.11v7.084l-4.86 4.857-.51.512c-.21-.05-.42-.086-.64-.086-1.52 0-2.77 1.25-2.77 2.78 0 1.53 1.25 2.79 2.78 2.79 1.52 0 2.77-1.25 2.77-2.77 0-.25-.04-.49-.11-.73l.48-.48 2.69-2.68 5.583 5.59v12.57L67.31 68.18v12.37H55.26l-1.883-1.882V59.332c.822-.483 1.385-1.368 1.385-2.383 0-1.02-.563-1.9-1.385-2.39V21.38l1.928-1.927zm-14.312-2.77c-4.58.065-7.39 1.29-9.05 3.945-.69 1.09-1.13 1.38-2.68 1.76-2.21.53-4.73 2.06-5.73 3.46-2.01 2.82-2.86 5.54-2.35 7.41.15.56.21 1.12.13 1.26-.08.13-.56.53-1.09.89-1.19.81-1.82 2.03-2.47 4.71-.79 3.27-.55 7.41.61 10.37 1.07 2.75 4.36 5.46 6.59 5.43.78-.01 1.72.36 1.93.75.61 1.11-.17 2.3-1.5 2.3-1.88 0-4.35-.94-6.08-2.31-.62-.5-1.21-.85-1.31-.78-.29.18-1.09 3.14-1.31 4.81-.44 3.43.78 7.12 3.17 9.58 1 1.03 3.07 1.98 4.96 2.28 1.17.19 1.37.36 2.55 2.15 2.76 4.19 7.29 7.29 11.86 8.11 1.76.31 4.45.28 5.72-.08l.04.04c.59-.17 1.14-.49 1.46-.85l.5-.58.06-5.66c.03-3.12.04-16.99.01-30.83L47 19.71l-.47-.924c-.83-1.64-2.215-2.17-5.55-2.12zm13.14-.044l.01.014-3.57 3.567v34.36c-.81.49-1.36 1.37-1.36 2.37 0 1.01.54 1.89 1.35 2.38v20.5l3.52 3.53h19.68l5.01-5.01c.22.06.45.1.69.1 1.52 0 2.76-1.25 2.76-2.77s-1.25-2.77-2.78-2.77c-1.53 0-2.78 1.26-2.78 2.78 0 .25.04.47.1.7l-4.19 4.19H69.4v-11.5l9.72-9.72v5.52c-.82.49-1.38 1.37-1.38 2.38 0 1.53 1.25 2.78 2.77 2.78s2.77-1.24 2.77-2.76c0-1.01-.55-1.88-1.37-2.37V42.6l-6.406-6.4 1.02-1.018v-9.41l-3.914-3.91c.06-.23.106-.47.106-.72 0-1.52-1.25-2.774-2.775-2.774-.25 0-.49.04-.72.1l-1.81-1.82h-13.3zm330.7 54.925h-2.4v-2.437l-1.66.334v2.103l-1.66.167v1.084h1.66v5.258c0 1.87.92 2.42 1.91 2.42.83 0 1.58-.284 2.33-.834l-.45-.885c-.43.234-.89.417-1.29.417-.46 0-.83-.25-.83-1.018v-5.358h2.41v-1.25zm-14.07-.084l-2.73.09v.92l1.41.34V79l-1.41.416v.918h4.15v-.917l-1.08-.42V74.07s1-1.336 2.41-1.336c1.08 0 1.5.584 1.5 1.753v4.506l-1.08.42v.916h3.99v-.92l-1.24-.42v-4.67c0-1.84-.83-3.01-2.65-3.01-1.38 0-2.69 1-3.09 1.35l-.15-1.19zm-10.27 3.43c.1-1.25.85-2.28 2.18-2.28s1.81 1.04 1.81 2.29h-3.98zm5.67 1.22s.09-.46.09-.88c0-2.5-1.08-3.92-3.48-3.92s-4.07 2-4.07 4.68c0 2.76 1.33 4.51 3.99 4.51 1.99 0 3.54-1.38 3.54-1.38l-.58-.87s-1.13.92-2.79.92c-1.42 0-2.4-1.17-2.4-3l5.73-.03zm-21.4-4.64l-2.74.09v.92l1.41.34V79l-1.41.416v.918h4.15v-.917L345.09 79v-4.93s.913-1.335 2.325-1.335c1.08 0 1.41.584 1.41 1.753v4.506l-1.077.417v.92h3.818v-.92l-1.08-.42v-4.92s.915-1.33 2.326-1.33c1.08 0 1.41.59 1.41 1.76V79l-1.08.416v.915h3.987v-.91l-1.25-.42v-4.67c0-1.84-.75-3.01-2.57-3.01-1.53 0-2.87 1.22-3.09 1.44-.39-.87-1.12-1.43-2.32-1.43-1.36 0-2.63.99-3.01 1.36l-.16-1.18zm-10.52 2.34s.58-1.16 2.08-1.16 2.16 1.34 2.16 3.17c0 1.84-.56 3.34-2.49 3.34-1.24 0-1.74-.33-1.74-.33v-5.01zm-.25-2.33l-2.82.09v.92l1.41.34v10.09l-1.33.34v.92h4.73v-.92l-1.74-.33v-2.66c.45.14.95.24 1.5.24 3.07 0 4.48-2 4.48-4.84 0-2.58-1.16-4.34-3.57-4.34-1.14 0-2.02.64-2.52 1.1l-.13-.94zm-8.28 1.17c1.66 0 2.24 1.34 2.24 3.17 0 2.17-.66 3.34-2.32 3.34s-2.32-1.25-2.32-3.25c0-2.17.75-3.25 2.41-3.25zm.09-1.33c-2.49 0-4.23 1.84-4.23 4.68 0 3.01 1.5 4.51 3.99 4.51s4.15-1.92 4.15-4.75c0-2.67-1.41-4.42-3.9-4.42zm-5.36 8.1l-1.5-.42V67.48l-3.1.085v.916l1.41.34V79l-1.41.416v.916h4.6v-.92zm-11.88-4.51c.1-1.25.85-2.28 2.18-2.28s1.82 1.04 1.82 2.29h-3.98zm5.66 1.22s.09-.46.09-.88c0-2.5-1.08-3.92-3.48-3.92s-4.06 2.01-4.06 4.68c0 2.75 1.33 4.51 3.99 4.51 1.99 0 3.54-1.38 3.54-1.38l-.58-.87s-1.13.92-2.79.92c-1.43 0-2.41-1.17-2.41-3l5.73-.03zm-14.72-3.47l1.17-.17V71.5l-3.73.087v.92l.83.25 2.72 7.595h1.83l2.82-7.675.92-.167V71.5l-3.72.086v.916l1.15.25-1.99 6.09-1.98-6.18zm-9.26 2.25c.1-1.25.85-2.28 2.18-2.28s1.81 1.04 1.81 2.29h-3.98zm5.67 1.22s.08-.46.08-.88c0-2.5-1.08-3.92-3.48-3.92-2.41 0-4.07 2.01-4.07 4.68 0 2.76 1.33 4.51 3.99 4.51 2 0 3.54-1.38 3.54-1.38l-.58-.87s-1.13.92-2.79.92c-1.42 0-2.4-1.17-2.4-3l5.73-.03zm-12.01 1.79s-.74 1.26-2.15 1.26c-1.49 0-2.07-1.33-2.07-3.17s.57-3.33 2.49-3.33c1.16 0 1.75.34 1.75.34v4.93zm3.08 1.42l-1.44-.36V67.48l-3.07.083v.917l1.41.334v2.77c-.43-.15-.96-.265-1.57-.265-2.98 0-4.39 2-4.39 4.84 0 2.58 1.08 4.34 3.49 4.34 1.26 0 2.13-.64 2.61-1.12l.14.95 2.83-.08v-.92zm-18.07-4.52v2.09c0 1.42-.83 2.17-2.24 2.17-1.41 0-2.32-.67-2.32-2.08 0-1.25 1.08-2.17 2.33-2.17h2.24zm1.66 0l1.33-.33V73.5h-5.15c-1.16 0-2.15-.75-2.15-1.92 0-1 .67-1.668 1.99-1.668 1.17 0 1.83.25 1.83.25l.35 1.332h1.06l.08-2.336s-1.69-.67-3.15-.67c-2.35 0-3.86.94-3.86 3.01 0 1.987 1.96 2.505 1.96 2.505s-2.24 1.086-2.24 3.09 1.16 3.42 3.9 3.42c2.49 0 4.07-1.335 4.07-3.67v-2.01zM249.2 71.5l-2.74.09v.92l1.413.333V79l-1.412.416v.917h4.15v-.92l-1.08-.417V74.07s1-1.336 2.41-1.336c1.08 0 1.5.584 1.5 1.753v4.506l-1.07.417v.917h3.98v-.918l-1.24-.42v-4.67c0-1.84-.83-3.01-2.65-3.01-1.38 0-2.69 1-3.09 1.35l-.15-1.19zm-8.206 8.85c1.328 0 2.158.25 2.158 1.338s-.83 1.585-2.49 1.585c-1.576 0-2.572-.25-2.572-1.42 0-1 1.08-1.5 1.08-1.5h1.826zm-.664-7.842c1.245 0 1.826.75 1.826 2.003 0 1.42-.58 2-1.91 2-1.246 0-1.827-.83-1.827-2 0-1.33.58-2 1.91-2zm4.648 0v-.918l-2.9.064s-.584-.317-1.66-.317c-2.16 0-3.655 1.085-3.655 3.255 0 2.004 1.275 2.588 1.275 2.588s-.86 1.334-.86 1.885c0 .863.995.95.995.95s-1.745.58-1.745 2.083c0 1.837 1.66 2.42 3.984 2.42 2.903 0 4.314-1.17 4.314-3.003 0-1.586-1.17-2.42-3.32-2.42h-2.58l.084-1.57s.495.15 1.242.15c2.16 0 3.655-1 3.655-3.254 0-1.08-.45-1.68-.45-1.68l1.61-.23zm-10.28 6.922l-1.25-.42V71.5l-3.07.08v.92l1.41.332V79l-1.41.417v.917h4.317v-.92zm-3.235-10.685c0 .75.414 1.17 1.08 1.17.496 0 1.08-.42 1.08-1.17 0-.834-.42-1.17-1.08-1.17-.583 0-1.08.416-1.08 1.167zm-7.99 8.93h-1.16v2.47s1.093.367 2.62.367c1.993 0 3.653-.934 3.653-2.854 0-2.853-4.632-2.17-4.632-3.955 0-.85.63-1.115 1.48-1.115.83 0 1.344.2 1.344.2l.266 1.3h1.08l.05-2.253s-1.53-.5-2.84-.5c-1.71 0-3.04.868-3.04 2.604 0 3.03 4.63 2.2 4.63 4 0 1.03-.88 1.32-1.88 1.32-.896 0-1.394-.15-1.394-.15l-.183-1.44zm-8.79-2.754c.1-1.25.845-2.28 2.173-2.28s1.816 1.04 1.816 2.29h-3.985zm5.66 1.22s.08-.46.08-.88c0-2.5-1.08-3.92-3.485-3.92-2.407 0-4.07 2-4.07 4.68 0 2.76 1.33 4.51 3.987 4.51 1.993 0 3.54-1.38 3.54-1.38l-.58-.87s-1.133.92-2.793.92c-1.424 0-2.404-1.17-2.404-3l5.726-.03zm-12.017 1.79s-.747 1.25-2.16 1.25c-1.493 0-2.074-1.33-2.074-3.17s.566-3.34 2.49-3.34c1.163 0 1.744.34 1.744.34v4.93zm3.07 1.42L209.97 79V67.48l-3.07.085v.917l1.41.334v2.77c-.43-.15-.963-.265-1.578-.265-2.99 0-4.4 2.01-4.4 4.84 0 2.59 1.077 4.34 3.484 4.34 1.263 0 2.128-.63 2.608-1.11l.135.95 2.82-.08v-.91zm-17.89-1.42s-.75 1.25-2.16 1.25c-1.493 0-2.074-1.33-2.074-3.17s.566-3.34 2.49-3.34c1.162 0 1.744.34 1.744.34v4.93zm3.07 1.42L195.15 79V67.48l-3.073.085v.917l1.412.334v2.77c-.43-.15-.97-.265-1.58-.265-2.99 0-4.4 2.01-4.4 4.84 0 2.59 1.08 4.34 3.48 4.34 1.26 0 2.12-.63 2.61-1.11l.13.95 2.82-.08v-.91zm-17.804-7.85l-2.737.09v.92l1.41.33V79l-1.41.418v.918h4.15v-.918L179.09 79v-4.93s.998-1.335 2.41-1.335c1.08 0 1.494.584 1.494 1.753v4.506l-1.08.417v.92h3.986v-.92l-1.245-.42v-4.67c0-1.83-.83-3-2.655-3-1.38 0-2.69 1-3.09 1.35l-.143-1.18zm-10.267 3.42c.1-1.25.847-2.28 2.175-2.28 1.33 0 1.81 1.04 1.81 2.29h-3.99zm5.66 1.22s.085-.47.085-.89c0-2.5-1.08-3.92-3.487-3.92s-4.07 2-4.07 4.67c0 2.76 1.33 4.51 3.987 4.51 1.994 0 3.538-1.38 3.538-1.38l-.58-.87s-1.13.92-2.79.92c-1.428 0-2.407-1.17-2.407-3l5.73-.03zm-9.437-1.05H160.4v1.41h4.315v-1.42zm-6.196-3.51h-2.406v-2.44l-1.66.34v2.1l-1.66.17v1.09h1.66v5.26c0 1.87.914 2.42 1.91 2.42.83 0 1.577-.28 2.324-.83l-.446-.88c-.433.24-.898.42-1.297.42-.466 0-.83-.25-.83-1.01v-5.36h2.405V71.6zm-14.07-.08l-2.738.09v.92l1.41.34V79l-1.41.416v.92h4.15v-.92l-1.08-.417v-4.92s.995-1.34 2.406-1.34c1.08 0 1.493.58 1.493 1.75V79l-1.08.416v.92h3.987v-.92l-1.246-.414V74.32c0-1.837-.83-3.006-2.655-3.006-1.38 0-2.69 1.002-3.09 1.352l-.15-1.185zm-8.45 1.17c1.66 0 2.24 1.34 2.24 3.17 0 2.17-.663 3.34-2.323 3.34s-2.33-1.25-2.33-3.25c0-2.17.75-3.25 2.41-3.25zm.083-1.33c-2.49 0-4.232 1.84-4.232 4.68 0 3.01 1.497 4.51 3.988 4.51 2.49 0 4.15-1.92 4.15-4.76 0-2.67-1.41-4.42-3.9-4.42zm-9.6.17l-2.74.09v.92l1.42.34V79l-1.41.416v.917h4.73v-.917l-1.66-.418V74.04c.365-.483 1.16-1.3 2.406-1.3l.25 1.25h1.08l.08-2.42s-.66-.25-1.49-.25c-1.12 0-2.09.918-2.5 1.386l-.15-1.22zm-8.42.09l-1.49.17v1.09h1.494V79l-1.42.416v.917h4.73v-.917l-1.66-.418V72.82h2.14l.04-1.25h-2.19v-1.34c0-1.002.33-1.67 1.49-1.67.58 0 .99.084.99.084l.25 1.335h1.16v-2.09s-.91-.59-2.49-.59c-1.99 0-3.07 1.25-3.07 3.25v1zM377.83 31q3.324 0 5.375 3.345.75 1.24 1.12 2.87.4 1.61.434 2.71.06 1.05.06 3.023v20.53h-7.96V42.95q0-2.53-.47-3.405-.59-1.064-1.52-1.064t-1.52 1.07q-.47.88-.47 3.4v20.53h-7.95V31.49h7.95v1.936h.22q.87-1.124 2.15-1.78 1.27-.655 2.58-.655zm-38.66-9.715q1.553-1.56 3.977-1.56 2.423 0 3.946 1.56 1.553 1.53 1.553 3.973 0 2.44-1.545 4.005-1.51 1.533-3.94 1.533t-3.97-1.526q-1.51-1.56-1.51-3.99t1.53-3.96zm1.987 42.204v-20.5h-7.65V35.5h15.6v27.99h-7.956zM312.407 31q2.673 0 4.694.84 2.02.81 3.33 3.12.94 1.65.94 5.12v23.4h-7.96v-1.65h-.31q-1.74 2.15-4.41 2.15-3.29 0-5.74-2.85-2.45-2.843-2.45-7.06 0-4.59 2.74-7.56 1-1.064 2.12-1.72 1.15-.69 2.33-.94 1.21-.25 1.93-.313.75-.066 1.77-.066h2.048v-3.24q0-.62-.53-1.16-.52-.56-1.37-.56-2.86 0-8.05.6v-7.53q5.13-.6 8.95-.6zm.996 19.34h-2.112q-1.52 0-2.2.9-.65.87-.65 2.78 0 1.06.5 1.78.5.69 1.43.69 1.06 0 1.71-.54.69-.54.94-1.5.28-1 .34-1.69.07-.69.07-1.72v-.71zm-29.37-11.84q-2.577 0-4.132 1.65-.77.86-1.27 1.93-.47 1.03-.65 2.33-.18 1.28-.24 2.09-.03.77-.03 2.12v14.84h-7.96V31.48h7.96v3.406h.31q1.24-1.904 2.71-2.903 1.49-1 3.64-1 2.18 0 5.3.405v7.496q-3.29-.407-5.59-.407zm-34.215.96q-.56-.97-1.367-.97-.81 0-1.36.96-.56.94-.81 2.372-.31 1.69-.31 5.654 0 3.966.31 5.654.25 1.44.81 2.408.55.94 1.36.94t1.37-.94q.56-.97.81-2.4.31-1.69.31-5.65 0-3.967-.31-5.655-.25-1.432-.81-2.37zm1.585-8.47q2.36 0 4.16 1.97 1.836 1.94 2.675 5.44.655 2.816.655 9.096t-.655 9.1q-.83 3.503-2.67 5.464-1.796 1.94-4.16 1.94-3.6 0-5.19-2.524h-.25v2.03h-7.956v-44h7.95v14.02h.25q1.585-2.53 5.19-2.53zm-64.55 9.65q-.778-2.156-2.364-2.156-1.59 0-2.37 2.153-.62 1.72-.62 6.84t.62 6.84q.78 2.16 2.36 2.16 1.58 0 2.36-2.156.62-1.72.62-6.84t-.62-6.84zm-7.55-8.31q2.296-1.34 5.185-1.34 2.895 0 5.16 1.343 2.3 1.31 3.76 3.655 1.216 2 1.62 4.75.406 2.72.406 6.75 0 4.03-.403 6.78-.4 2.717-1.61 4.717-1.45 2.34-3.75 3.68-2.26 1.31-5.15 1.31-2.88 0-5.19-1.31-2.27-1.345-3.72-3.69-1.2-2-1.6-4.716-.4-2.75-.4-6.78t.4-6.75q.41-2.75 1.62-4.75 1.47-2.34 3.74-3.66zm-23.69 11.15l2.61 12.183h.312q1.022-10.716 1.022-24.18h7.706q0 15.964-3.384 31.99h-8.51l-2.45-10.932h-.31l-2.45 10.94h-8.51q-3.39-16.02-3.39-31.99h7.71q0 13.47 1.02 24.18h.31l2.61-12.18h5.71zm-22.66 20.02q-3.326.47-5.968.47-2.486 0-4.536-.908-2.02-.905-3.3-2.47-.99-1.19-1.49-2.78-.5-1.594-.55-2.656-.06-1.06-.06-2.935V39.16h-7.95v-7.67h7.96v-7.998h7.95v7.998h7.96v7.685h-7.96v12.748q0 2.316.46 3.442.5 1.127 1.83 1.127 2.21 0 5.65-.47v7.5z"/>
</svg>
