<svg xmlns="http://www.w3.org/2000/svg" class="logo logo--two-brain-only" viewBox="0 0 100 100">
  <circle cx="50" cy="50" r="47.953392" fill="#fff" stroke="#404640" stroke-width="4.0932188"/>
  <path fill="#d32f2f" d="M61.314 19.012v9.504l-5.052 5.052v6.44h1.332V34.12l3.72-3.72v4.27h1.332v-8.727l4.95 4.948.94-.94-5.89-5.89v-5.05h-1.332zm-1.49 27.27v10.864l-2.832 2.83-2.443-2.443-.95.944 4.99 4.988h7.22V62.13h-6.67l-1.21-1.21 5.94-5.94-.94-.945-1.78 1.778V46.28h-1.33zm14.352 2.093v7.002l-3.602-3.602-.943.942 4.55 4.545v4.068h1.34V48.375h-1.34zm-1.694 16.063v5.494h1.334v-5.495h-1.334zm-12.627 4.847l-4.308 4.307.004.004h-3.28v1.334h6.79l1.72 1.715.94-.944-2.11-2.1h-2.17l3.37-3.36-.94-.94z" style="line-height:normal;text-indent:0;text-align:start;text-decoration-line:none;text-decoration-style:solid;text-decoration-color:#000000;text-transform:none;block-progression:tb;isolation:auto;mix-blend-mode:normal" color="#000" font-family="sans-serif" white-space="normal" overflow="visible" solid-color="#000000"/>
  <g fill="#404640">
    <path d="M33.794 54.947c.52-2.587 1.84-4.346 4.39-5.844 1.63-.96 2.28-1.1 2.77-.607.43.435.555 1.31.256 1.802-.135.223-1.007.928-1.937 1.567-1.938 1.33-2.31 1.82-2.62 3.425-.36 1.876-.876 2.305-2.19 1.817-.786-.292-.942-.798-.67-2.16zm-4.147-22.83c-.89-.868-.475-1.782 1.14-2.517 2.46-1.118 4.423-2.803 5.228-4.483.88-1.833 1.583-2.234 2.58-1.467 2.076 1.597-2.464 7.718-6.455 8.7-1.343.33-1.98.272-2.493-.232zm.787 13.335c-.23-.145-.652-.662-.938-1.15-.856-1.46-1.557-1.874-3.975-2.35-.69-.137-.98-.306-1.12-.644-.28-.684-.14-1.525.32-1.91.35-.297.62-.304 1.98-.048 2.54.48 4.37 1.937 5.45 4.333.27.603.28.826.05 1.236-.35.62-1.2.88-1.75.53zm6.734 31.333c-.57-.297-.897-.74-.91-1.24-.018-.715-.947-3.125-1.627-4.222-.92-1.484-2.59-3.094-3.74-3.605-.54-.24-1.58-.523-2.31-.63-1.63-.24-1.95-.402-2.2-1.084-.22-.625-.07-1.16.49-1.673.35-.31.6-.35 1.71-.26 3.73.29 7.03 2.61 9.04 6.35 1.38 2.57 1.95 5.4 1.22 6.05-.62.55-1.06.64-1.65.33zm7.858 6.013c.595-.166 1.144-.484 1.458-.843l.504-.577.062-5.66c.034-3.113.04-16.986.012-30.828l-.05-25.168-.47-.924c-.834-1.636-2.217-2.163-5.55-2.115-4.58.065-7.388 1.29-9.053 3.945-.69 1.093-1.13 1.384-2.68 1.76-2.21.538-4.73 2.068-5.73 3.47-2.01 2.827-2.86 5.538-2.35 7.407.15.56.22 1.128.14 1.26-.08.133-.56.536-1.09.895-1.19.81-1.82 2.03-2.47 4.713-.79 3.272-.55 7.408.61 10.376 1.072 2.75 4.36 5.46 6.59 5.43.78-.01 1.73.36 1.942.75.612 1.11-.163 2.31-1.498 2.31-1.88 0-4.35-.94-6.078-2.31-.617-.5-1.204-.85-1.304-.78-.29.18-1.09 3.14-1.304 4.81-.438 3.43.784 7.12 3.17 9.58 1.002 1.03 3.07 1.98 4.96 2.28 1.174.19 1.38.36 2.56 2.15 2.766 4.19 7.292 7.29 11.86 8.11 1.764.313 4.45.28 5.72-.076z"/>
    <path d="M54.143 16.654l-3.57 3.567v34.36c-.812.49-1.364 1.37-1.364 2.37 0 1.01.55 1.89 1.36 2.38v20.5l3.52 3.52h19.68l5.01-5.01c.22.06.45.1.69.1 1.52 0 2.77-1.25 2.77-2.77s-1.25-2.77-2.78-2.77-2.78 1.25-2.78 2.77c0 .25.04.47.1.7l-4.19 4.19h-3.17v-11.5l9.72-9.72v5.52c-.82.49-1.38 1.37-1.38 2.38 0 1.53 1.25 2.78 2.77 2.78s2.77-1.25 2.77-2.77c0-1.01-.55-1.883-1.364-2.37V42.59l-6.404-6.4 1.02-1.018v-9.406l-3.914-3.912c.06-.23.105-.47.105-.72 0-1.522-1.25-2.773-2.774-2.773-.25 0-.49.04-.72.1l-1.81-1.82h-13.3zm1.158 2.8h11.01l1.01 1.01c-.05.215-.09.437-.09.67 0 1.522 1.25 2.772 2.78 2.772.23 0 .46-.037.67-.092l3.11 3.11v7.084l-4.86 4.857-.51.512c-.21-.05-.42-.086-.64-.086-1.52 0-2.77 1.25-2.77 2.78 0 1.53 1.25 2.78 2.78 2.78 1.52 0 2.77-1.25 2.77-2.77 0-.25-.043-.5-.11-.74l.48-.48 2.686-2.68 5.583 5.59v12.57L67.31 68.18v12.37H55.26l-1.883-1.882V59.332c.822-.483 1.385-1.368 1.385-2.383 0-1.02-.564-1.9-1.386-2.39V21.38l1.928-1.927zm14.7.356c.74 0 1.32.583 1.32 1.32 0 .738-.58 1.32-1.32 1.32-.73 0-1.32-.582-1.32-1.32 0-.737.59-1.32 1.32-1.32zm-2.24 20.932c.74 0 1.32.583 1.32 1.32 0 .738-.58 1.32-1.32 1.32-.73 0-1.32-.582-1.32-1.32 0-.737.59-1.32 1.32-1.32zM51.99 55.63c.738 0 1.32.582 1.32 1.32 0 .737-.582 1.32-1.32 1.32-.737 0-1.32-.583-1.32-1.32 0-.738.583-1.32 1.32-1.32zm28.57 10.287c.736 0 1.32.583 1.32 1.32 0 .738-.584 1.32-1.32 1.32-.74 0-1.322-.582-1.322-1.32 0-.737.583-1.32 1.32-1.32zm-1.08 8.42c.736 0 1.32.583 1.32 1.32 0 .738-.584 1.32-1.32 1.32-.74 0-1.322-.582-1.322-1.32 0-.737.583-1.32 1.32-1.32zm-6.303-4.723c-.415 0-.83.157-1.144.47-.63.63-.63 1.66 0 2.29.628.627 1.66.627 2.288 0 .63-.63.63-1.66 0-2.29-.31-.313-.72-.47-1.14-.47zm0 .843c.196 0 .392.076.545.228.304.304.304.785 0 1.09-.305.303-.785.303-1.09 0-.304-.305-.304-.786 0-1.09.152-.152.35-.228.545-.228zm-4.097-40.69c-.89 0-1.618.73-1.618 1.62 0 .887.73 1.617 1.618 1.617.888 0 1.618-.73 1.618-1.618 0-.89-.73-1.618-1.618-1.618zm0 .85c.43 0 .77.34.77.77s-.34.77-.77.77-.77-.34-.77-.77.34-.77.77-.77zM56.92 39.22c-.888 0-1.617.73-1.617 1.618 0 .89.73 1.618 1.618 1.618.89 0 1.62-.73 1.62-1.618 0-.888-.73-1.617-1.62-1.617zm0 .848c.43 0 .77.34.77.77s-.34.77-.77.77-.77-.34-.77-.77.34-.77.77-.77zm5.082-5.78c-.89 0-1.618.73-1.618 1.618 0 .888.73 1.617 1.618 1.617.888 0 1.618-.73 1.618-1.617 0-.89-.73-1.618-1.618-1.618zm0 .848c.43 0 .77.34.77.77s-.34.77-.77.77-.77-.34-.77-.77.34-.77.77-.77zm-1.53 8.725c-.89 0-1.62.73-1.62 1.62 0 .89.73 1.62 1.62 1.62.888 0 1.618-.73 1.618-1.62 0-.89-.73-1.62-1.618-1.62zm0 .85c.43 0 .77.34.77.77s-.34.77-.77.77-.77-.34-.77-.77.34-.77.77-.77zm3.51 7.62c-.89 0-1.62.73-1.62 1.62 0 .89.73 1.62 1.62 1.62.888 0 1.618-.73 1.618-1.62 0-.89-.73-1.62-1.62-1.62zm0 .85c.43 0 .77.34.77.77s-.34.77-.77.77-.77-.34-.77-.77.34-.77.77-.77zm-1.835 22.3c-.89 0-1.62.73-1.62 1.62 0 .89.73 1.62 1.62 1.62.888 0 1.618-.73 1.618-1.61 0-.89-.73-1.62-1.618-1.62zm0 .85c.43 0 .77.34.77.77s-.34.77-.77.77-.77-.34-.77-.77.34-.77.77-.77zm-.966-9.07c-.88 0-1.61.73-1.61 1.62s.73 1.62 1.62 1.62c.89 0 1.62-.73 1.62-1.61 0-.89-.73-1.62-1.62-1.62zm0 .85c.43 0 .77.34.77.77s-.34.77-.77.77-.77-.34-.77-.77.34-.77.77-.77zm5.95-6.93c-.89 0-1.62.73-1.62 1.62 0 .89.73 1.62 1.62 1.62.89 0 1.62-.73 1.62-1.62 0-.89-.73-1.62-1.62-1.62zm0 .85c.43 0 .77.34.77.77s-.34.77-.77.77-.77-.34-.77-.77.34-.77.77-.77zm7.74-16.38c-.41 0-.83.16-1.14.48-.63.63-.63 1.66 0 2.29.63.63 1.66.63 2.29 0 .63-.63.63-1.66 0-2.29-.31-.31-.73-.47-1.14-.47zm0 .85c.2 0 .4.08.55.23.31.31.31.79 0 1.09-.3.31-.78.31-1.09 0-.3-.3-.3-.78 0-1.09.16-.15.35-.23.55-.23zm-5.52 3.4c-.41 0-.83.16-1.14.48-.63.628-.63 1.66 0 2.287.63.63 1.66.63 2.29 0 .63-.63.63-1.66 0-2.287-.31-.32-.73-.48-1.14-.48zm0 .85c.2 0 .39.078.55.23.31.3.31.78 0 1.09-.3.3-.78.3-1.09 0-.3-.31-.3-.79 0-1.09.15-.16.35-.23.55-.23z" style="line-height:normal;text-indent:0;text-align:start;text-decoration-line:none;text-decoration-style:solid;text-decoration-color:#000000;text-transform:none;block-progression:tb;isolation:auto;mix-blend-mode:normal" color="#000" font-family="sans-serif" white-space="normal" overflow="visible" solid-color="#000000"/>
  </g>
</svg>
