<svg xmlns="http://www.w3.org/2000/svg" class="logo logo--two-brain-with-brand" viewBox="0 0 375 100">
  <circle cx="50" cy="50" r="47.953392" fill="#fff" stroke="#404640" stroke-width="4.0932188"/>
  <path fill="#d32f2f" d="M198.91 39.09h26.834v7.187H198.91V39.09zM61.314 19.012v9.504l-5.052 5.052v6.44h1.332V34.12l3.72-3.72v4.27h1.332v-8.727l4.95 4.948.94-.94-5.89-5.89v-5.05h-1.332zm-1.49 27.27v10.864l-2.832 2.83-2.443-2.443-.95.944 4.99 4.988h7.22V62.13h-6.67l-1.21-1.21 5.94-5.94-.94-.945-1.78 1.778V46.28h-1.33zm14.352 2.093v7.002l-3.602-3.602-.943.942 4.55 4.545v4.068h1.34V48.375h-1.34zm-1.694 16.063v5.494h1.334v-5.495h-1.334zm-12.627 4.847l-4.308 4.307.004.004h-3.28v1.334h6.79l1.72 1.715.94-.944-2.11-2.1h-2.17l3.37-3.36-.94-.94z"/>
  <path fill="#404640" d="M132.085 61.88q-3.204.45-5.75.45-2.396 0-4.372-.87-1.947-.867-3.175-2.365-.958-1.138-1.437-2.665-.48-1.528-.53-2.546-.06-1.018-.06-2.815V38.55h-7.66v-7.366h7.67v-7.667h7.67v7.667h7.67v7.367h-7.67v12.22q0 2.22.45 3.3.48 1.08 1.77 1.08 2.13 0 5.45-.45v7.19zm21.835-19.196l2.517 11.68h.3q.987-10.273.987-23.18h7.427q0 15.303-3.26 30.666h-8.2l-2.36-10.48h-.3l-2.36 10.48h-8.2q-3.27-15.363-3.27-30.666h7.43q0 12.907.99 23.18h.3l2.52-11.68h5.51zm22.825-10.692q2.216-1.287 5-1.287 2.787 0 4.973 1.287 2.216 1.258 3.623 3.504 1.17 1.917 1.56 4.552.39 2.606.39 6.47 0 3.862-.39 6.498-.39 2.605-1.55 4.522-1.4 2.246-3.62 3.534-2.18 1.258-4.97 1.258-2.78 0-5-1.258-2.19-1.288-3.59-3.534-1.16-1.917-1.55-4.522-.39-2.636-.39-6.5 0-3.862.39-6.468.39-2.635 1.56-4.552 1.41-2.246 3.6-3.504zm7.277 7.966q-.748-2.066-2.276-2.066-1.527 0-2.276 2.066-.6 1.648-.6 6.56 0 4.91.6 6.558.75 2.066 2.276 2.066 1.528 0 2.276-2.066.6-1.648.6-6.56 0-4.91-.6-6.558zm62.21-9.253q2.276 0 4.013 1.886 1.767 1.86 2.576 5.22.63 2.7.63 8.72 0 6.02-.63 8.72-.8 3.36-2.57 5.24-1.73 1.86-4.01 1.86-3.47 0-5-2.42H241v1.95h-7.668V19.69h7.666v13.44h.24q1.528-2.425 5.002-2.425zm-1.527 8.115q-.54-.928-1.318-.928-.78 0-1.318.928-.54.9-.78 2.276-.3 1.618-.3 5.42 0 3.804.3 5.422.24 1.377.78 2.306.53.898 1.31.898t1.32-.898q.54-.93.78-2.306.3-1.618.3-5.42 0-3.804-.3-5.422-.24-1.377-.78-2.276zm32.975-.928q-2.484 0-3.982 1.587-.748.83-1.228 1.85-.45.99-.63 2.24-.178 1.23-.238 2-.03.74-.03 2.03v14.23h-7.667V31.18h7.667v3.265h.3q1.197-1.827 2.605-2.785 1.437-.957 3.504-.957 2.1 0 5.1.39v7.186q-3.17-.39-5.39-.39zm28.306 11.35h-2.036q-1.468 0-2.127.87-.63.837-.63 2.664 0 1.018.48 1.707.48.66 1.378.66 1.02 0 1.65-.51.66-.51.9-1.438.27-.958.33-1.617.06-.66.06-1.647v-.68zm-.958-18.537q2.575 0 4.522.808 1.946.78 3.204 2.995.9 1.587.9 4.91V61.85h-7.668v-1.587h-.3q-1.677 2.067-4.252 2.067-3.175 0-5.54-2.726-2.366-2.725-2.366-6.768 0-4.402 2.635-7.247.958-1.02 2.037-1.65 1.108-.66 2.246-.9 1.168-.24 1.856-.3.72-.06 1.707-.06h1.97v-3.11q0-.6-.51-1.11-.51-.54-1.32-.54-2.76 0-7.76.57v-7.22q4.94-.57 8.62-.57zm27.705 31.145V42.205h-7.367v-7.188H340.4V61.85h-7.667zm-1.916-40.46q1.497-1.497 3.833-1.497 2.336 0 3.803 1.498 1.498 1.47 1.498 3.81t-1.49 3.84q-1.46 1.47-3.8 1.47t-3.83-1.46q-1.46-1.5-1.46-3.83t1.47-3.8zm37.26 9.315q3.203 0 5.18 3.204.72 1.19 1.08 2.75.387 1.55.417 2.6.06 1.01.06 2.9v19.68h-7.667V42.17q0-2.426-.45-3.265-.568-1.02-1.466-1.02-.89 0-1.46 1.02-.45.84-.45 3.26v19.68h-7.66v-30.66h7.67v1.855h.21q.84-1.078 2.07-1.707 1.23-.628 2.49-.628zM117.725 69.6l-1.44.16v1.04h1.44v5.92l-1.36.4V78h4.56v-.88l-1.6-.4V70.8h2.064l.04-1.2h-2.11v-1.28c0-.96.32-1.6 1.44-1.6.56 0 .96.08.96.08l.24 1.28h1.12v-2s-.88-.56-2.4-.56c-1.92 0-2.96 1.2-2.96 3.12v.96zm8.12-.08l-2.64.08v.88l1.36.32v5.92l-1.36.4V78h4.56v-.88l-1.6-.4v-4.752c.353-.464 1.12-1.248 2.32-1.248l.24 1.2h1.04l.08-2.32s-.64-.24-1.44-.24c-1.087 0-2.015.88-2.415 1.328l-.144-1.168zm9.255-.16c-2.4 0-4.08 1.76-4.08 4.48 0 2.88 1.44 4.32 3.84 4.32s4-1.84 4-4.56c0-2.56-1.36-4.24-3.76-4.24zm-.08 1.28c1.6 0 2.16 1.28 2.16 3.04 0 2.08-.64 3.2-2.24 3.2s-2.24-1.2-2.24-3.12c0-2.08.72-3.12 2.32-3.12zm8.14-1.12l-2.64.08v.88l1.36.32v5.92l-1.36.4V78h4v-.88l-1.04-.4V72s.96-1.28 2.32-1.28c1.04 0 1.44.56 1.44 1.68v4.32l-1.04.4V78h3.84v-.88l-1.2-.4v-4.48c0-1.76-.8-2.88-2.56-2.88-1.328 0-2.592.96-2.976 1.296l-.144-1.136zm13.56.08h-2.32v-2.336l-1.6.32V69.6l-1.6.16v1.04h1.6v5.04c0 1.792.88 2.32 1.84 2.32.8 0 1.52-.272 2.24-.8l-.43-.848c-.417.224-.865.4-1.25.4-.447 0-.8-.24-.8-.976V70.8h2.32v-1.2zm5.97 3.36h-4.16v1.36h4.16v-1.36zm9.096 1.008s.08-.448.08-.848c0-2.4-1.04-3.76-3.36-3.76s-3.92 1.92-3.92 4.48c0 2.64 1.28 4.32 3.84 4.32 1.92 0 3.408-1.328 3.408-1.328l-.56-.832s-1.088.88-2.688.88c-1.376 0-2.32-1.12-2.32-2.88l5.52-.032zM166.33 72.8c.096-1.2.816-2.192 2.096-2.192 1.28 0 1.744.992 1.744 2.192h-3.84zm9.897-3.28l-2.64.08v.88l1.36.32v5.92l-1.36.4V78h4v-.88l-1.04-.4V72s.96-1.28 2.32-1.28c1.04 0 1.44.56 1.44 1.68v4.32l-1.04.4V78h3.84v-.88l-1.2-.4v-4.48c0-1.76-.8-2.88-2.56-2.88-1.328 0-2.592.96-2.976 1.296l-.14-1.136zm17.16 7.52l-1.36-.32V65.68l-2.96.08v.88l1.36.32v2.656c-.415-.144-.927-.256-1.52-.256-2.88 0-4.24 1.92-4.24 4.64 0 2.48 1.04 4.16 3.36 4.16 1.217 0 2.05-.608 2.513-1.072l.128.912 2.72-.08v-.88zm-2.96-1.36s-.72 1.2-2.08 1.2c-1.44 0-2-1.28-2-3.04s.545-3.2 2.4-3.2c1.12 0 1.68.32 1.68.32v4.72zm17.243 1.36l-1.36-.32V65.68l-2.96.08v.88l1.36.32v2.656c-.415-.144-.927-.256-1.52-.256-2.88 0-4.24 1.92-4.24 4.64 0 2.48 1.04 4.16 3.36 4.16 1.217 0 2.05-.608 2.513-1.072l.128.912 2.72-.08v-.88zm-2.96-1.36s-.72 1.2-2.08 1.2c-1.44 0-2-1.28-2-3.04s.545-3.2 2.4-3.2c1.12 0 1.68.32 1.68.32v4.72zm11.58-1.712s.08-.448.08-.848c0-2.4-1.04-3.76-3.36-3.76s-3.92 1.92-3.92 4.48c0 2.64 1.28 4.32 3.84 4.32 1.92 0 3.41-1.328 3.41-1.328l-.56-.832s-1.09.88-2.69.88c-1.375 0-2.32-1.12-2.32-2.88l5.52-.032zm-5.455-1.168c.096-1.2.816-2.192 2.096-2.192 1.28 0 1.75.992 1.75 2.192h-3.84zm8.473 2.64h-1.12v2.368s1.056.352 2.528.352c1.92 0 3.52-.896 3.52-2.736 0-2.736-4.464-2.08-4.464-3.792 0-.816.608-1.072 1.424-1.072.8 0 1.296.192 1.296.192l.256 1.248h1.04l.048-2.16s-1.472-.48-2.736-.48c-1.648 0-2.928.832-2.928 2.496 0 2.912 4.464 2.112 4.464 3.84 0 .992-.848 1.264-1.808 1.264-.864 0-1.344-.144-1.344-.144l-.176-1.376zm7.7-8.56c0 .72.4 1.12 1.04 1.12.48 0 1.04-.4 1.04-1.12 0-.8-.4-1.12-1.04-1.12-.56 0-1.04.4-1.04 1.12zm3.12 10.24l-1.2-.4v-7.2l-2.96.08v.88l1.36.32v5.92l-1.36.4V78h4.16v-.88zm9.912-6.64v-.88l-2.8.064s-.56-.304-1.6-.304c-2.08 0-3.52 1.04-3.52 3.12 0 1.92 1.23 2.48 1.23 2.48s-.83 1.28-.83 1.808c0 .832.96.912.96.912s-1.68.56-1.68 2c0 1.76 1.6 2.32 3.84 2.32 2.8 0 4.16-1.12 4.16-2.88 0-1.52-1.12-2.32-3.2-2.32h-2.48l.08-1.504s.48.144 1.2.144c2.08 0 3.52-.96 3.52-3.12 0-1.04-.433-1.616-.433-1.616l1.552-.224zm-4.48 0c1.2 0 1.76.72 1.76 1.92 0 1.36-.56 1.92-1.84 1.92-1.2 0-1.76-.8-1.76-1.92 0-1.28.56-1.92 1.84-1.92zm.64 7.52c1.28 0 2.08.24 2.08 1.28s-.8 1.52-2.4 1.52c-1.52 0-2.48-.24-2.48-1.36 0-.96 1.04-1.44 1.04-1.44h1.76zm7.91-8.48l-2.64.08v.88l1.36.32v5.92l-1.36.4V78h4v-.88l-1.04-.4V72s.96-1.28 2.32-1.28c1.04 0 1.44.56 1.44 1.68v4.32l-1.04.4V78h3.84v-.88l-1.2-.4v-4.48c0-1.76-.8-2.88-2.56-2.88-1.328 0-2.592.96-2.976 1.296l-.144-1.136zm20.584 3.2l1.28-.32v-.96h-4.96c-1.12 0-2.08-.72-2.08-1.84 0-.96.64-1.6 1.92-1.6 1.12 0 1.76.24 1.76.24l.336 1.28h1.024l.08-2.24s-1.632-.64-3.04-.64c-2.272 0-3.728.896-3.728 2.88 0 1.904 1.888 2.4 1.888 2.4s-2.16 1.04-2.16 2.96 1.12 3.28 3.76 3.28c2.4 0 3.92-1.28 3.92-3.52v-1.92zm-1.6 0v2c0 1.36-.8 2.08-2.16 2.08s-2.24-.64-2.24-2c0-1.2 1.04-2.08 2.24-2.08h2.16zm17.4 4.32l-1.36-.32V65.68l-2.96.08v.88l1.36.32v2.656c-.417-.144-.93-.256-1.52-.256-2.88 0-4.24 1.92-4.24 4.64 0 2.48 1.04 4.16 3.36 4.16 1.215 0 2.047-.608 2.51-1.072l.13.912 2.72-.08v-.88zm-2.96-1.36s-.72 1.2-2.08 1.2c-1.44 0-2-1.28-2-3.04s.543-3.2 2.4-3.2c1.12 0 1.68.32 1.68.32v4.72zm11.578-1.712s.08-.448.08-.848c0-2.4-1.04-3.76-3.36-3.76s-3.92 1.92-3.92 4.48c0 2.64 1.28 4.32 3.84 4.32 1.92 0 3.408-1.328 3.408-1.328L288.6 76s-1.088.88-2.688.88c-1.376 0-2.32-1.12-2.32-2.88l5.52-.032zm-5.456-1.168c.096-1.2.816-2.192 2.096-2.192 1.28 0 1.744.992 1.744 2.192h-3.84zm8.927-2.16l1.12-.16v-.96l-3.6.08v.88l.8.24 2.624 7.28h1.76l2.72-7.36.88-.16v-.96l-3.584.08v.88l1.104.24-1.92 5.84-1.904-5.92zm14.187 3.328s.08-.448.08-.848c0-2.4-1.04-3.76-3.36-3.76s-3.92 1.92-3.92 4.48c0 2.64 1.28 4.32 3.84 4.32 1.92 0 3.41-1.328 3.41-1.328l-.56-.832s-1.09.88-2.69.88c-1.375 0-2.32-1.12-2.32-2.88l5.52-.032zm-5.455-1.168c.096-1.2.816-2.192 2.096-2.192 1.28 0 1.75.992 1.75 2.192h-3.84zm11.45 4.32l-1.44-.4V65.68l-2.993.08v.88l1.36.32v9.76l-1.36.4V78h4.432v-.88zm5.17-7.76c-2.4 0-4.08 1.76-4.08 4.48 0 2.88 1.44 4.32 3.84 4.32s4-1.84 4-4.56c0-2.56-1.36-4.24-3.76-4.24zm-.08 1.28c1.6 0 2.16 1.28 2.16 3.04 0 2.08-.64 3.2-2.24 3.2s-2.24-1.2-2.24-3.12c0-2.08.72-3.12 2.32-3.12zm7.98-1.12l-2.72.08v.88l1.36.32v9.68l-1.28.32v.88h4.56v-.88l-1.68-.32v-2.544c.432.128.912.224 1.44.224 2.96 0 4.32-1.92 4.32-4.64 0-2.48-1.12-4.16-3.44-4.16-1.104 0-1.952.608-2.432 1.056l-.128-.896zm.24 2.24s.56-1.12 2-1.12 2.08 1.28 2.08 3.04-.544 3.2-2.4 3.2c-1.2 0-1.68-.32-1.68-.32v-4.8zm10.14-2.24l-2.64.08v.88l1.36.32v5.92l-1.36.4V78h4v-.88l-1.04-.4V72s.88-1.28 2.24-1.28c1.04 0 1.36.56 1.36 1.68v4.32l-1.04.4V78h3.68v-.88l-1.04-.4V72s.88-1.28 2.24-1.28c1.04 0 1.36.56 1.36 1.68v4.32l-1.04.4V78h3.84v-.88l-1.2-.4v-4.48c0-1.76-.72-2.88-2.48-2.88-1.472 0-2.768 1.168-2.976 1.376-.37-.832-1.08-1.376-2.23-1.376-1.31 0-2.53.944-2.9 1.296l-.15-1.136zm20.623 4.448s.08-.448.08-.848c0-2.4-1.04-3.76-3.36-3.76s-3.92 1.92-3.92 4.48c0 2.64 1.28 4.32 3.84 4.32 1.92 0 3.408-1.328 3.408-1.328l-.56-.832s-1.088.88-2.688.88c-1.376 0-2.32-1.12-2.32-2.88l5.52-.032zm-5.456-1.168c.096-1.2.816-2.192 2.096-2.192 1.28 0 1.744.992 1.744 2.192h-3.84zm9.898-3.28l-2.64.08v.88l1.36.32v5.92l-1.36.4V78h4v-.88l-1.04-.4V72s.96-1.28 2.32-1.28c1.04 0 1.44.56 1.44 1.68v4.32l-1.04.4V78h3.84v-.88l-1.2-.4v-4.48c0-1.76-.8-2.88-2.56-2.88-1.33 0-2.593.96-2.977 1.296l-.144-1.136zm13.56.08h-2.32v-2.336l-1.6.32V69.6l-1.6.16v1.04h1.6v5.04c0 1.792.88 2.32 1.84 2.32.8 0 1.52-.272 2.24-.8l-.432-.848c-.416.224-.864.4-1.248.4-.448 0-.8-.24-.8-.976V70.8h2.32v-1.2zM54.133 16.64l.01.014-3.57 3.567v34.36c-.813.49-1.364 1.37-1.364 2.37 0 1.01.54 1.89 1.35 2.38v20.5l3.52 3.53h19.68l5.01-5.01c.22.06.45.1.69.1 1.52 0 2.76-1.25 2.76-2.77s-1.25-2.77-2.78-2.77c-1.53 0-2.78 1.26-2.78 2.78 0 .25.04.47.1.7l-4.19 4.19H69.4v-11.5l9.72-9.72v5.52c-.82.49-1.38 1.37-1.38 2.38 0 1.53 1.25 2.78 2.77 2.78s2.77-1.24 2.77-2.76c0-1.01-.55-1.88-1.37-2.37V42.6l-6.406-6.4 1.02-1.018v-9.41l-3.914-3.91c.06-.23.106-.47.106-.72 0-1.52-1.25-2.774-2.775-2.774-.25 0-.49.04-.72.1l-1.81-1.82h-13.3zm-13.14.044c-4.58.065-7.39 1.29-9.054 3.945-.69 1.09-1.13 1.38-2.68 1.76-2.21.53-4.73 2.06-5.73 3.46-2.01 2.82-2.86 5.54-2.35 7.41.15.56.21 1.12.13 1.26-.08.13-.56.53-1.09.89-1.19.81-1.82 2.03-2.47 4.71-.79 3.27-.55 7.41.61 10.37 1.07 2.75 4.36 5.46 6.59 5.43.78-.01 1.72.36 1.93.75.61 1.11-.17 2.3-1.5 2.3-1.88 0-4.35-.94-6.08-2.31-.62-.5-1.21-.85-1.31-.78-.29.18-1.09 3.14-1.31 4.81-.44 3.43.78 7.12 3.17 9.58 1 1.03 3.07 1.98 4.96 2.28 1.17.19 1.37.36 2.55 2.15 2.76 4.19 7.29 7.29 11.86 8.11 1.76.31 4.45.28 5.72-.08l.04.04c.59-.17 1.14-.49 1.46-.85l.5-.58.06-5.66c.032-3.12.04-16.99.01-30.83L47 19.71l-.47-.924c-.83-1.64-2.215-2.17-5.55-2.12zm14.312 2.77H66.31l1.01 1.01c-.05.216-.09.438-.09.67 0 1.523 1.252 2.772 2.782 2.772.23 0 .46-.037.67-.092l3.11 3.11v7.084l-4.86 4.857-.51.512c-.21-.05-.42-.086-.64-.086-1.52 0-2.77 1.25-2.77 2.78 0 1.53 1.25 2.79 2.78 2.79 1.52 0 2.77-1.25 2.77-2.77 0-.25-.04-.49-.11-.73l.48-.48 2.69-2.68 5.583 5.59v12.57L67.31 68.18v12.37H55.26l-1.883-1.882V59.332c.822-.483 1.385-1.368 1.385-2.383 0-1.02-.563-1.9-1.385-2.39V21.38l1.928-1.927zm14.697.357c.74 0 1.318.59 1.318 1.32 0 .74-.578 1.32-1.318 1.32-.73 0-1.32-.58-1.32-1.32 0-.73.59-1.32 1.32-1.32zm-32.43 3.49c.316-.05.65.07 1.024.36 2.076 1.6-2.464 7.72-6.455 8.7-1.34.33-1.98.27-2.49-.23-.89-.86-.47-1.78 1.14-2.51 2.46-1.11 4.43-2.8 5.23-4.48.55-1.14 1.03-1.73 1.56-1.82zm31.508 6.47c-.89 0-1.617.73-1.617 1.62 0 .89.73 1.62 1.617 1.62.888 0 1.617-.73 1.617-1.61 0-.89-.73-1.62-1.617-1.62zm0 .85c.43 0 .77.34.77.77s-.34.77-.77.77-.77-.34-.77-.77.34-.77.77-.77zm-7.078 3.67c-.89 0-1.617.73-1.617 1.62 0 .89.73 1.62 1.617 1.62.888 0 1.617-.73 1.617-1.61 0-.89-.73-1.62-1.62-1.62zm0 .85c.43 0 .77.34.77.77s-.34.77-.77.77-.77-.34-.77-.77.34-.77.77-.77zm-36.67 4.03c.28 0 .69.06 1.37.19 2.54.48 4.368 1.94 5.448 4.34.27.61.28.83.05 1.24-.35.62-1.2.88-1.75.53h-.016c-.23-.14-.652-.66-.938-1.14-.856-1.46-1.557-1.87-3.975-2.35-.69-.13-.98-.3-1.12-.64-.28-.68-.14-1.52.32-1.91.18-.14.33-.22.62-.23zm31.588.06c-.888 0-1.617.73-1.617 1.62 0 .89.73 1.62 1.62 1.62.89 0 1.618-.73 1.618-1.61s-.72-1.61-1.61-1.61zm0 .85c.43 0 .77.34.77.77s-.34.77-.77.77-.77-.34-.77-.77.34-.77.77-.77zm10.842.68c.74 0 1.318.59 1.318 1.32 0 .74-.578 1.32-1.318 1.32-.73 0-1.32-.58-1.32-1.32 0-.73.59-1.32 1.32-1.32zm-7.29 3.12c-.89 0-1.62.73-1.62 1.62s.73 1.63 1.62 1.63c.89 0 1.618-.73 1.618-1.62s-.73-1.62-1.617-1.62zm0 .85c.43 0 .77.34.77.77s-.34.78-.77.78-.77-.34-.77-.77.34-.77.77-.77zm14.4.94c-.41 0-.832.16-1.142.48-.63.63-.63 1.67 0 2.3.63.63 1.66.63 2.29 0 .63-.63.63-1.66 0-2.29-.31-.31-.73-.47-1.14-.47l-.01-.01zm.005.86c.198 0 .396.08.545.23.31.31.31.79 0 1.09-.3.31-.782.31-1.092 0-.3-.3-.3-.78 0-1.09.16-.15.35-.22.547-.22zm-34.584 1.71c.272 0 .476.09.66.28.43.44.557 1.31.258 1.81-.13.22-1 .92-1.93 1.56-1.94 1.33-2.31 1.82-2.62 3.42-.36 1.88-.87 2.31-2.19 1.82-.78-.29-.94-.79-.67-2.16.52-2.58 1.84-4.34 4.39-5.84 1.02-.6 1.66-.88 2.11-.88zm29.06 1.68c-.41 0-.832.16-1.142.48-.63.63-.63 1.67 0 2.3.63.63 1.67.63 2.3 0 .63-.63.63-1.66 0-2.28-.31-.32-.73-.48-1.14-.48l-.01-.003zm.002.86c.2 0 .386.08.545.23.31.3.31.78 0 1.09-.3.3-.78.3-1.09 0-.3-.31-.3-.79 0-1.09.15-.15.347-.22.545-.22zm-5.375 1.57c-.89 0-1.62.74-1.62 1.62 0 .89.732 1.62 1.622 1.62.888 0 1.618-.73 1.618-1.62 0-.88-.728-1.62-1.618-1.62h-.002zm.002.86c.43 0 .77.34.77.77s-.34.77-.77.77-.77-.34-.77-.77.34-.77.77-.77zM51.99 55.64c.738 0 1.32.58 1.32 1.316 0 .73-.582 1.32-1.32 1.32-.737 0-1.32-.59-1.32-1.32 0-.74.583-1.32 1.32-1.32zm15.14 5.55c-.89 0-1.618.73-1.618 1.62 0 .89.73 1.62 1.62 1.62.89 0 1.62-.73 1.62-1.62 0-.89-.73-1.62-1.62-1.62zm0 .85c.43 0 .77.34.77.77s-.34.767-.77.767-.77-.34-.77-.77.34-.77.77-.77zm-39.235 1.99c.185.002.408.017.685.04 3.73.29 7.03 2.61 9.04 6.35 1.38 2.57 1.952 5.4 1.222 6.05-.62.55-1.06.64-1.65.33l-.024-.016c-.57-.297-.897-.74-.91-1.24-.018-.715-.947-3.126-1.627-4.223-.92-1.48-2.59-3.09-3.74-3.6-.54-.24-1.58-.52-2.31-.63-1.63-.24-1.95-.4-2.2-1.08-.22-.62-.07-1.16.49-1.67.27-.23.47-.31 1.03-.3zm52.664 1.887c.73 0 1.32.58 1.32 1.318 0 .738-.59 1.32-1.32 1.32-.74 0-1.33-.582-1.33-1.32 0-.737.58-1.318 1.32-1.318zm-19.38 1.345c-.88 0-1.62.73-1.62 1.62 0 .89.73 1.62 1.62 1.62.89 0 1.62-.73 1.62-1.61 0-.89-.73-1.62-1.62-1.62l-.01-.01zm0 .85c.43 0 .77.34.77.77s-.34.768-.77.768-.78-.34-.78-.77.34-.77.77-.77zm11.99 1.5c-.42 0-.83.16-1.15.472-.63.63-.63 1.66 0 2.29.63.626 1.66.626 2.28 0 .63-.63.63-1.66 0-2.29-.31-.313-.72-.47-1.14-.47h-.01zm0 .845c.19 0 .39.077.54.23.3.303.3.783 0 1.088-.31.303-.79.303-1.09 0-.31-.305-.31-.785 0-1.09.15-.15.35-.228.54-.228zm6.3 3.88c.73 0 1.32.582 1.32 1.32 0 .737-.59 1.32-1.32 1.32-.74 0-1.33-.583-1.33-1.32 0-.738.58-1.32 1.32-1.32zM62.15 75.48c-.89 0-1.62.732-1.62 1.622 0 .89.73 1.62 1.62 1.62.887 0 1.618-.73 1.618-1.61 0-.89-.73-1.622-1.62-1.622v-.01zm0 .85c.43 0 .77.342.77.772s-.34.77-.77.77-.77-.34-.77-.77.34-.772.77-.772z"/>
</svg>
