<svg xmlns="http://www.w3.org/2000/svg" class="logo logo--two-brain-with-brand" viewBox="0 0 375 100">
  <circle cx="50" cy="50" r="47.998" fill="#fff" stroke="#404640" stroke-width="4.004"/>
  <path fill="#d32f2f" d="M61.325 18.98v9.516l-5.058 5.057V40h1.34v-5.895l3.725-3.72v4.27h1.34v-8.733l4.946 4.95.95-.94-5.895-5.896V18.98h-1.34zm-1.492 27.296v10.877L57 59.985l-2.45-2.445-.944.944L58.6 63.48h7.233v-1.34h-6.68l-1.214-1.21 5.95-5.948-.95-.944-1.78 1.778v-9.54h-1.33zM74.2 48.373v7.007l-3.607-3.603-.944.944 4.55 4.55v4.08h1.34V48.38H74.2zm-1.695 16.08v5.496h1.334v-5.5H72.5zm-12.642 4.85l-4.312 4.31.01.005h-3.29v1.335h6.8l1.71 1.717.94-.944-2.11-2.108h-2.18l3.38-3.37-.95-.945z"/>
  <path fill="#404640" d="M33.78 54.952c.52-2.59 1.84-4.35 4.393-5.85 1.63-.96 2.282-1.1 2.772-.607.43.435.556 1.31.257 1.803-.135.223-1.008.93-1.94 1.57-1.94 1.33-2.31 1.82-2.622 3.427-.36 1.878-.876 2.307-2.192 1.82-.786-.294-.943-.8-.67-2.163zM29.627 32.1c-.89-.87-.476-1.784 1.14-2.52 2.463-1.118 4.428-2.805 5.234-4.486.88-1.835 1.59-2.237 2.59-1.47 2.08 1.6-2.46 7.726-6.46 8.71-1.34.33-1.98.272-2.49-.233zm.788 13.348c-.23-.145-.653-.663-.94-1.15-.856-1.463-1.558-1.877-3.978-2.354-.69-.137-.98-.306-1.12-.644-.28-.685-.14-1.527.32-1.912.35-.297.62-.304 1.98-.048 2.543.48 4.375 1.94 5.456 4.337.27.604.28.827.05 1.237-.35.62-1.2.88-1.75.53zm6.74 31.362c-.57-.297-.898-.74-.91-1.24-.02-.717-.95-3.13-1.63-4.227-.92-1.485-2.592-3.097-3.743-3.608-.54-.24-1.58-.524-2.312-.63-1.63-.24-1.95-.403-2.2-1.086-.22-.63-.07-1.17.49-1.68.35-.31.6-.35 1.71-.26 3.734.29 7.037 2.61 9.05 6.35 1.38 2.57 1.95 5.4 1.22 6.05-.62.55-1.06.64-1.65.33zm7.865 6.02c.597-.167 1.146-.486 1.46-.845l.505-.577.062-5.666c.034-3.116.04-17.002.012-30.857l-.05-25.19-.47-.926c-.84-1.64-2.22-2.17-5.56-2.12-4.59.06-7.4 1.29-9.06 3.95-.69 1.09-1.13 1.38-2.69 1.76-2.22.54-4.74 2.07-5.74 3.47-2.01 2.83-2.87 5.54-2.35 7.41.15.56.22 1.13.14 1.26-.08.13-.56.53-1.09.89-1.2.81-1.83 2.03-2.48 4.72-.79 3.27-.55 7.41.61 10.38 1.07 2.75 4.36 5.46 6.59 5.43.78-.01 1.733.36 1.943.75.61 1.11-.17 2.312-1.5 2.312-1.883 0-4.355-.94-6.087-2.314-.62-.5-1.21-.85-1.31-.78-.29.18-1.09 3.145-1.304 4.816-.44 3.43.787 7.125 3.176 9.587 1 1.03 3.07 1.986 4.962 2.286 1.18.19 1.383.36 2.564 2.15 2.77 4.19 7.3 7.293 11.87 8.114 1.765.31 4.453.28 5.724-.08zm9.126-66.208l-3.573 3.57v34.383c-.813.49-1.365 1.382-1.365 2.383 0 1.01.55 1.9 1.362 2.392v20.51l3.523 3.532H73.79l5.016-5.014c.22.06.45.1.7.1 1.522 0 2.773-1.25 2.773-2.773 0-1.52-1.26-2.772-2.79-2.772s-2.79 1.25-2.79 2.772c0 .25.03.48.09.7L72.61 80.6h-3.173V69.09l9.73-9.73v5.515c-.83.49-1.382 1.38-1.382 2.392 0 1.532 1.25 2.783 2.773 2.783 1.52 0 2.772-1.25 2.772-2.773 0-1.02-.55-1.902-1.37-2.392V42.573l-6.417-6.406 1.01-1.016v-9.41l-3.903-3.9c.06-.23.1-.48.1-.73 0-1.52-1.25-2.77-2.78-2.77-.25 0-.49.04-.725.1l-1.812-1.81H54.12zm1.16 2.802H66.32l1.01 1.007c-.055.21-.09.45-.09.68 0 1.52 1.253 2.77 2.778 2.77.233 0 .458-.03.674-.09l3.11 3.11V34l-4.862 4.86-.51.51c-.21-.05-.43-.08-.653-.08-1.525 0-2.777 1.25-2.777 2.777 0 1.524 1.25 2.776 2.777 2.776 1.524 0 2.776-1.25 2.776-2.775 0-.26-.04-.51-.105-.745l.474-.48 2.68-2.69 5.586 5.59v12.59L67.328 68.2v12.38h-12.07l-1.883-1.884V59.35c.827-.484 1.386-1.38 1.386-2.396 0-1.02-.56-1.912-1.38-2.403V21.36l1.93-1.93zm14.71.36c.74 0 1.324.583 1.324 1.322 0 .738-.584 1.32-1.323 1.32-.74 0-1.32-.582-1.32-1.32 0-.74.58-1.32 1.32-1.32zM69.1 29.75c-.89 0-1.62.72-1.62 1.61 0 .892.73 1.623 1.62 1.623.89 0 1.62-.73 1.62-1.622 0-.89-.73-1.62-1.62-1.62zm0 .84c.43 0 .77.34.77.77 0 .432-.34.772-.77.772s-.77-.34-.77-.77.34-.77.77-.77zm-7.085 3.674c-.89 0-1.62.73-1.62 1.622 0 .89.73 1.62 1.62 1.62.89 0 1.62-.73 1.62-1.62 0-.89-.73-1.622-1.62-1.622zm0 .85c.43 0 .77.34.77.772 0 .43-.34.77-.77.77s-.77-.34-.77-.77.34-.77.77-.77zM56.93 39.2c-.892 0-1.623.73-1.623 1.61 0 .89.73 1.622 1.622 1.622.88 0 1.61-.73 1.61-1.622 0-.89-.73-1.62-1.62-1.62zm0 .84c.43 0 .77.34.77.77s-.34.77-.77.77c-.432 0-.772-.34-.772-.77s.34-.77.77-.77zm10.845.67c.738 0 1.32.58 1.32 1.322 0 .74-.582 1.32-1.32 1.32-.74 0-1.322-.58-1.322-1.32 0-.74.583-1.322 1.322-1.322zm-7.293 3.113c-.89 0-1.622.73-1.622 1.622 0 .88.73 1.61 1.622 1.61.89 0 1.62-.73 1.62-1.62 0-.89-.73-1.622-1.62-1.622zm0 .85c.43 0 .77.34.77.772 0 .43-.34.77-.77.77s-.77-.34-.77-.77.34-.77.77-.77zm14.403.922c-.414 0-.83.16-1.145.47-.628.63-.628 1.662 0 2.292.63.63 1.662.63 2.29 0 .63-.63.63-1.66 0-2.292-.314-.31-.73-.47-1.145-.47zm0 .84c.198 0 .394.08.546.23.31.3.31.782 0 1.092-.3.3-.78.3-1.09 0-.3-.31-.3-.79 0-1.09.16-.15.35-.23.55-.23zM69.36 49.84c-.416 0-.83.158-1.146.47-.63.633-.63 1.664 0 2.294.63.628 1.662.628 2.29 0 .63-.63.63-1.66 0-2.292-.314-.313-.73-.47-1.145-.47zm0 .843c.195 0 .393.08.545.23.304.306.304.788 0 1.09-.305.306-.787.306-1.09 0-.306-.302-.306-.784 0-1.09.15-.15.347-.226.544-.226zm-5.365 1.608c-.89 0-1.62.73-1.62 1.63 0 .89.73 1.62 1.62 1.62.89 0 1.62-.73 1.62-1.62 0-.89-.732-1.62-1.623-1.62zm0 .85c.43 0 .77.34.77.78 0 .43-.34.77-.77.77s-.77-.34-.77-.77.34-.77.77-.77zm-12.01 2.46c.74 0 1.32.59 1.32 1.32 0 .75-.58 1.33-1.32 1.33-.74 0-1.322-.58-1.322-1.32 0-.74.583-1.32 1.32-1.32zm15.16 5.55c-.89 0-1.62.73-1.62 1.62 0 .89.73 1.63 1.62 1.63.89 0 1.62-.73 1.62-1.62 0-.89-.73-1.62-1.62-1.62zm0 .85c.432 0 .772.34.772.77s-.34.77-.77.77-.772-.34-.772-.77.34-.77.77-.77zm13.445 3.91c.73 0 1.32.58 1.32 1.32 0 .74-.59 1.33-1.32 1.33-.748 0-1.328-.59-1.328-1.32 0-.74.58-1.32 1.32-1.32zm-19.4 1.33c-.89 0-1.62.74-1.62 1.63 0 .89.73 1.62 1.62 1.62.89 0 1.62-.73 1.62-1.61 0-.89-.73-1.623-1.62-1.623zm0 .86c.43 0 .77.34.77.77s-.34.77-.77.77-.77-.34-.77-.77.34-.77.77-.77zm12.01 1.52c-.42 0-.838.16-1.15.47-.63.63-.63 1.66 0 2.29.63.63 1.66.63 2.29 0 .63-.63.63-1.66 0-2.29-.31-.31-.72-.47-1.14-.47zm0 .85c.19 0 .39.075.54.227.303.31.303.79 0 1.09-.306.31-.788.31-1.09 0-.307-.3-.307-.78 0-1.09.15-.15.35-.22.543-.22zm6.3 3.885c.73 0 1.32.58 1.32 1.32 0 .736-.59 1.323-1.32 1.323-.74 0-1.322-.59-1.322-1.32 0-.744.58-1.324 1.323-1.324zm-17.357 1.13c-.89 0-1.62.733-1.62 1.623s.73 1.613 1.62 1.613c.89 0 1.62-.73 1.62-1.62 0-.89-.73-1.62-1.62-1.62zm0 .853c.43 0 .77.34.77.77s-.34.77-.77.77-.77-.34-.77-.77.34-.77.77-.77z"/>
  <path fill="#d32f2f" d="M198.91 39.09h26.834v7.187H198.91V39.09z"/>
  <path fill="#404640" d="M132.085 61.88q-3.204.45-5.75.45-2.396 0-4.372-.87-1.947-.867-3.175-2.365-.958-1.138-1.437-2.665-.48-1.528-.53-2.546-.06-1.018-.06-2.815V38.55h-7.66v-7.366h7.67v-7.667h7.67v7.667h7.67v7.367h-7.67v12.22q0 2.22.45 3.3.48 1.08 1.77 1.08 2.13 0 5.45-.45v7.19zm21.835-19.196l2.517 11.68h.3q.987-10.273.987-23.18h7.427q0 15.303-3.26 30.666h-8.2l-2.36-10.48h-.3l-2.36 10.48h-8.2q-3.27-15.363-3.27-30.666h7.43q0 12.907.99 23.18h.3l2.52-11.68h5.51zm22.825-10.692q2.216-1.287 5-1.287 2.787 0 4.973 1.287 2.216 1.258 3.623 3.504 1.17 1.917 1.56 4.552.39 2.606.39 6.47 0 3.862-.39 6.498-.39 2.605-1.55 4.522-1.4 2.246-3.62 3.534-2.18 1.258-4.97 1.258-2.78 0-5-1.258-2.19-1.288-3.59-3.534-1.16-1.917-1.55-4.522-.39-2.636-.39-6.5 0-3.862.39-6.468.39-2.635 1.56-4.552 1.41-2.246 3.6-3.504zm7.277 7.966q-.748-2.066-2.276-2.066-1.527 0-2.276 2.066-.6 1.648-.6 6.56 0 4.91.6 6.558.75 2.066 2.276 2.066 1.528 0 2.276-2.066.6-1.648.6-6.56 0-4.91-.6-6.558zm62.21-9.253q2.276 0 4.013 1.886 1.767 1.86 2.576 5.22.63 2.7.63 8.72t-.63 8.72q-.8 3.36-2.57 5.24-1.73 1.86-4.01 1.86-3.47 0-5-2.42H241v1.95h-7.668V19.69h7.666v13.44h.24q1.528-2.425 5.002-2.425zm-1.527 8.115q-.54-.928-1.318-.928-.78 0-1.318.928-.54.9-.78 2.276-.3 1.618-.3 5.42 0 3.804.3 5.422.24 1.377.78 2.306.53.898 1.31.898t1.32-.898q.54-.93.78-2.306.3-1.618.3-5.42 0-3.804-.3-5.422-.24-1.377-.78-2.276zm32.975-.928q-2.484 0-3.982 1.587-.748.83-1.228 1.85-.45.99-.63 2.24-.178 1.23-.238 2-.03.74-.03 2.03v14.23h-7.667V31.18h7.667v3.265h.3q1.197-1.827 2.605-2.785 1.437-.957 3.504-.957 2.1 0 5.1.39v7.186q-3.17-.39-5.39-.39zm28.306 11.35h-2.036q-1.468 0-2.127.87-.63.837-.63 2.664 0 1.018.48 1.707.48.66 1.378.66 1.02 0 1.65-.51.66-.51.9-1.438.27-.958.33-1.617.06-.66.06-1.647v-.68zm-.958-18.537q2.575 0 4.522.808 1.946.78 3.204 2.995.9 1.587.9 4.91V61.85h-7.668v-1.587h-.3q-1.677 2.067-4.252 2.067-3.175 0-5.54-2.726-2.366-2.725-2.366-6.768 0-4.402 2.635-7.247.958-1.02 2.037-1.65 1.108-.66 2.246-.9 1.168-.24 1.856-.3.72-.06 1.707-.06h1.97v-3.11q0-.6-.51-1.11-.51-.54-1.32-.54-2.76 0-7.76.57v-7.22q4.94-.57 8.62-.57zm27.705 31.145V42.205h-7.367v-7.188H340.4V61.85h-7.667zm-1.916-40.46q1.497-1.497 3.833-1.497 2.336 0 3.803 1.498 1.498 1.47 1.498 3.81t-1.49 3.84q-1.46 1.47-3.8 1.47t-3.83-1.46q-1.46-1.5-1.46-3.83t1.47-3.8zm37.26 9.315q3.203 0 5.18 3.204.72 1.19 1.08 2.75.387 1.55.417 2.6.06 1.01.06 2.9v19.68h-7.667V42.17q0-2.426-.45-3.265-.568-1.02-1.466-1.02t-1.46 1.02q-.45.84-.45 3.26v19.68h-7.66v-30.66h7.67v1.855h.21q.84-1.078 2.07-1.707 1.23-.628 2.49-.628zM117.725 69.6l-1.44.16v1.04h1.44v5.92l-1.36.4V78h4.56v-.88l-1.6-.4V70.8h2.064l.04-1.2h-2.11v-1.28c0-.96.32-1.6 1.44-1.6.56 0 .96.08.96.08l.24 1.28h1.12v-2s-.88-.56-2.4-.56c-1.92 0-2.96 1.2-2.96 3.12v.96zm8.12-.08l-2.64.08v.88l1.36.32v5.92l-1.36.4V78h4.56v-.88l-1.6-.4v-4.752c.353-.464 1.12-1.248 2.32-1.248l.24 1.2h1.04l.08-2.32s-.64-.24-1.44-.24c-1.087 0-2.015.88-2.415 1.328l-.144-1.168zm9.255-.16c-2.4 0-4.08 1.76-4.08 4.48 0 2.88 1.44 4.32 3.84 4.32s4-1.84 4-4.56c0-2.56-1.36-4.24-3.76-4.24zm-.08 1.28c1.6 0 2.16 1.28 2.16 3.04 0 2.08-.64 3.2-2.24 3.2s-2.24-1.2-2.24-3.12c0-2.08.72-3.12 2.32-3.12zm8.14-1.12l-2.64.08v.88l1.36.32v5.92l-1.36.4V78h4v-.88l-1.04-.4V72s.96-1.28 2.32-1.28c1.04 0 1.44.56 1.44 1.68v4.32l-1.04.4V78h3.84v-.88l-1.2-.4v-4.48c0-1.76-.8-2.88-2.56-2.88-1.328 0-2.592.96-2.976 1.296l-.144-1.136zm13.56.08h-2.32v-2.336l-1.6.32V69.6l-1.6.16v1.04h1.6v5.04c0 1.792.88 2.32 1.84 2.32.8 0 1.52-.272 2.24-.8l-.43-.848c-.417.224-.865.4-1.25.4-.447 0-.8-.24-.8-.976V70.8h2.32v-1.2zm5.97 3.36h-4.16v1.36h4.16v-1.36zm9.096 1.008s.08-.448.08-.848c0-2.4-1.04-3.76-3.36-3.76s-3.92 1.92-3.92 4.48c0 2.64 1.28 4.32 3.84 4.32 1.92 0 3.408-1.328 3.408-1.328l-.56-.832s-1.088.88-2.688.88c-1.376 0-2.32-1.12-2.32-2.88l5.52-.032zM166.33 72.8c.096-1.2.816-2.192 2.096-2.192 1.28 0 1.744.992 1.744 2.192h-3.84zm9.897-3.28l-2.64.08v.88l1.36.32v5.92l-1.36.4V78h4v-.88l-1.04-.4V72s.96-1.28 2.32-1.28c1.04 0 1.44.56 1.44 1.68v4.32l-1.04.4V78h3.84v-.88l-1.2-.4v-4.48c0-1.76-.8-2.88-2.56-2.88-1.328 0-2.592.96-2.976 1.296l-.14-1.136zm17.16 7.52l-1.36-.32V65.68l-2.96.08v.88l1.36.32v2.656c-.415-.144-.927-.256-1.52-.256-2.88 0-4.24 1.92-4.24 4.64 0 2.48 1.04 4.16 3.36 4.16 1.217 0 2.05-.608 2.513-1.072l.128.912 2.72-.08v-.88zm-2.96-1.36s-.72 1.2-2.08 1.2c-1.44 0-2-1.28-2-3.04s.545-3.2 2.4-3.2c1.12 0 1.68.32 1.68.32v4.72zm17.243 1.36l-1.36-.32V65.68l-2.96.08v.88l1.36.32v2.656c-.415-.144-.927-.256-1.52-.256-2.88 0-4.24 1.92-4.24 4.64 0 2.48 1.04 4.16 3.36 4.16 1.217 0 2.05-.608 2.513-1.072l.128.912 2.72-.08v-.88zm-2.96-1.36s-.72 1.2-2.08 1.2c-1.44 0-2-1.28-2-3.04s.545-3.2 2.4-3.2c1.12 0 1.68.32 1.68.32v4.72zm11.58-1.712s.08-.448.08-.848c0-2.4-1.04-3.76-3.36-3.76s-3.92 1.92-3.92 4.48c0 2.64 1.28 4.32 3.84 4.32 1.92 0 3.41-1.328 3.41-1.328l-.56-.832s-1.09.88-2.69.88c-1.375 0-2.32-1.12-2.32-2.88l5.52-.032zm-5.455-1.168c.096-1.2.816-2.192 2.096-2.192 1.28 0 1.75.992 1.75 2.192h-3.84zm8.473 2.64h-1.12v2.368s1.056.352 2.528.352c1.92 0 3.52-.896 3.52-2.736 0-2.736-4.464-2.08-4.464-3.792 0-.816.608-1.072 1.424-1.072.8 0 1.296.192 1.296.192l.256 1.248h1.04l.048-2.16s-1.472-.48-2.736-.48c-1.648 0-2.928.832-2.928 2.496 0 2.912 4.464 2.112 4.464 3.84 0 .992-.848 1.264-1.808 1.264-.864 0-1.344-.144-1.344-.144l-.176-1.376zm7.7-8.56c0 .72.4 1.12 1.04 1.12.48 0 1.04-.4 1.04-1.12 0-.8-.4-1.12-1.04-1.12-.56 0-1.04.4-1.04 1.12zm3.12 10.24l-1.2-.4v-7.2l-2.96.08v.88l1.36.32v5.92l-1.36.4V78h4.16v-.88zm9.912-6.64v-.88l-2.8.064s-.56-.304-1.6-.304c-2.08 0-3.52 1.04-3.52 3.12 0 1.92 1.23 2.48 1.23 2.48s-.83 1.28-.83 1.808c0 .832.96.912.96.912s-1.68.56-1.68 2c0 1.76 1.6 2.32 3.84 2.32 2.8 0 4.16-1.12 4.16-2.88 0-1.52-1.12-2.32-3.2-2.32h-2.48l.08-1.504s.48.144 1.2.144c2.08 0 3.52-.96 3.52-3.12 0-1.04-.433-1.616-.433-1.616l1.552-.224zm-4.48 0c1.2 0 1.76.72 1.76 1.92 0 1.36-.56 1.92-1.84 1.92-1.2 0-1.76-.8-1.76-1.92 0-1.28.56-1.92 1.84-1.92zm.64 7.52c1.28 0 2.08.24 2.08 1.28s-.8 1.52-2.4 1.52c-1.52 0-2.48-.24-2.48-1.36 0-.96 1.04-1.44 1.04-1.44h1.76zm7.91-8.48l-2.64.08v.88l1.36.32v5.92l-1.36.4V78h4v-.88l-1.04-.4V72s.96-1.28 2.32-1.28c1.04 0 1.44.56 1.44 1.68v4.32l-1.04.4V78h3.84v-.88l-1.2-.4v-4.48c0-1.76-.8-2.88-2.56-2.88-1.328 0-2.592.96-2.976 1.296l-.144-1.136zm20.584 3.2l1.28-.32v-.96h-4.96c-1.12 0-2.08-.72-2.08-1.84 0-.96.64-1.6 1.92-1.6 1.12 0 1.76.24 1.76.24l.336 1.28h1.024l.08-2.24s-1.632-.64-3.04-.64c-2.272 0-3.728.896-3.728 2.88 0 1.904 1.888 2.4 1.888 2.4s-2.16 1.04-2.16 2.96 1.12 3.28 3.76 3.28c2.4 0 3.92-1.28 3.92-3.52v-1.92zm-1.6 0v2c0 1.36-.8 2.08-2.16 2.08s-2.24-.64-2.24-2c0-1.2 1.04-2.08 2.24-2.08h2.16zm17.4 4.32l-1.36-.32V65.68l-2.96.08v.88l1.36.32v2.656c-.417-.144-.93-.256-1.52-.256-2.88 0-4.24 1.92-4.24 4.64 0 2.48 1.04 4.16 3.36 4.16 1.215 0 2.047-.608 2.51-1.072l.13.912 2.72-.08v-.88zm-2.96-1.36s-.72 1.2-2.08 1.2c-1.44 0-2-1.28-2-3.04s.543-3.2 2.4-3.2c1.12 0 1.68.32 1.68.32v4.72zm11.578-1.712s.08-.448.08-.848c0-2.4-1.04-3.76-3.36-3.76s-3.92 1.92-3.92 4.48c0 2.64 1.28 4.32 3.84 4.32 1.92 0 3.408-1.328 3.408-1.328L288.6 76s-1.088.88-2.688.88c-1.376 0-2.32-1.12-2.32-2.88l5.52-.032zm-5.456-1.168c.096-1.2.816-2.192 2.096-2.192 1.28 0 1.744.992 1.744 2.192h-3.84zm8.927-2.16l1.12-.16v-.96l-3.6.08v.88l.8.24 2.624 7.28h1.76l2.72-7.36.88-.16v-.96l-3.584.08v.88l1.104.24-1.92 5.84-1.904-5.92zm14.187 3.328s.08-.448.08-.848c0-2.4-1.04-3.76-3.36-3.76s-3.92 1.92-3.92 4.48c0 2.64 1.28 4.32 3.84 4.32 1.92 0 3.41-1.328 3.41-1.328l-.56-.832s-1.09.88-2.69.88c-1.375 0-2.32-1.12-2.32-2.88l5.52-.032zm-5.455-1.168c.096-1.2.816-2.192 2.096-2.192 1.28 0 1.75.992 1.75 2.192h-3.84zm11.45 4.32l-1.44-.4V65.68l-2.993.08v.88l1.36.32v9.76l-1.36.4V78h4.432v-.88zm5.17-7.76c-2.4 0-4.08 1.76-4.08 4.48 0 2.88 1.44 4.32 3.84 4.32s4-1.84 4-4.56c0-2.56-1.36-4.24-3.76-4.24zm-.08 1.28c1.6 0 2.16 1.28 2.16 3.04 0 2.08-.64 3.2-2.24 3.2s-2.24-1.2-2.24-3.12c0-2.08.72-3.12 2.32-3.12zm7.98-1.12l-2.72.08v.88l1.36.32v9.68l-1.28.32v.88h4.56v-.88l-1.68-.32v-2.544c.432.128.912.224 1.44.224 2.96 0 4.32-1.92 4.32-4.64 0-2.48-1.12-4.16-3.44-4.16-1.104 0-1.952.608-2.432 1.056l-.128-.896zm.24 2.24s.56-1.12 2-1.12 2.08 1.28 2.08 3.04-.544 3.2-2.4 3.2c-1.2 0-1.68-.32-1.68-.32v-4.8zm10.14-2.24l-2.64.08v.88l1.36.32v5.92l-1.36.4V78h4v-.88l-1.04-.4V72s.88-1.28 2.24-1.28c1.04 0 1.36.56 1.36 1.68v4.32l-1.04.4V78h3.68v-.88l-1.04-.4V72s.88-1.28 2.24-1.28c1.04 0 1.36.56 1.36 1.68v4.32l-1.04.4V78h3.84v-.88l-1.2-.4v-4.48c0-1.76-.72-2.88-2.48-2.88-1.472 0-2.768 1.168-2.976 1.376-.37-.832-1.08-1.376-2.23-1.376-1.31 0-2.53.944-2.9 1.296l-.15-1.136zm20.623 4.448s.08-.448.08-.848c0-2.4-1.04-3.76-3.36-3.76s-3.92 1.92-3.92 4.48c0 2.64 1.28 4.32 3.84 4.32 1.92 0 3.408-1.328 3.408-1.328l-.56-.832s-1.088.88-2.688.88c-1.376 0-2.32-1.12-2.32-2.88l5.52-.032zm-5.456-1.168c.096-1.2.816-2.192 2.096-2.192 1.28 0 1.744.992 1.744 2.192h-3.84zm9.898-3.28l-2.64.08v.88l1.36.32v5.92l-1.36.4V78h4v-.88l-1.04-.4V72s.96-1.28 2.32-1.28c1.04 0 1.44.56 1.44 1.68v4.32l-1.04.4V78h3.84v-.88l-1.2-.4v-4.48c0-1.76-.8-2.88-2.56-2.88-1.33 0-2.593.96-2.977 1.296l-.144-1.136zm13.56.08h-2.32v-2.336l-1.6.32V69.6l-1.6.16v1.04h1.6v5.04c0 1.792.88 2.32 1.84 2.32.8 0 1.52-.272 2.24-.8l-.432-.848c-.416.224-.864.4-1.248.4-.448 0-.8-.24-.8-.976V70.8h2.32v-1.2z"/>
</svg>
