<svg class="logo logo--two-brain-only" xmlns="http://www.w3.org/2000/svg" viewBox="0 0 100 100">
  <circle cx="50" cy="50" r="47.953" fill="#fff" stroke="#404640" stroke-width="4"/>
  <path fill="#d32f2f" d="M61.314 19.01v9.506l-5.053 5.052v6.44h1.34V34.12l3.72-3.718v4.268h1.34v-8.725l4.94 4.945.95-.94-5.89-5.89v-5.05h-1.34zm-1.49 27.27v10.866l-2.832 2.83-2.444-2.443-.943.943 4.99 4.99h7.225V62.13h-6.673l-1.213-1.21 5.943-5.942-.942-.943-1.777 1.778V46.28h-1.334zm14.352 2.095v7l-3.602-3.6-.943.943 4.55 4.543v4.07h1.34V48.38h-1.34zm-1.692 16.063v5.492h1.333v-5.492h-1.333zm-12.63 4.847l-4.308 4.307.004.004h-3.288v1.334h6.786l1.717 1.715.942-.943-2.106-2.106h-2.17l3.37-3.368-.94-.943z"/>
  <g fill="#404640">
    <path d="M33.794 54.947c.52-2.587 1.84-4.346 4.39-5.844 1.63-.96 2.28-1.1 2.77-.607.43.435.555 1.31.256 1.802-.135.223-1.007.928-1.937 1.567-1.938 1.33-2.31 1.82-2.62 3.425-.36 1.876-.876 2.305-2.19 1.817-.786-.292-.942-.798-.67-2.16zm-4.147-22.83c-.89-.868-.475-1.782 1.14-2.517 2.46-1.118 4.423-2.803 5.228-4.483.88-1.833 1.583-2.234 2.58-1.467 2.076 1.597-2.464 7.718-6.455 8.7-1.343.33-1.98.272-2.493-.232zm.787 13.335c-.23-.145-.652-.662-.938-1.15-.856-1.46-1.557-1.874-3.975-2.35-.69-.137-.98-.306-1.12-.644-.28-.684-.14-1.525.32-1.91.35-.297.62-.304 1.98-.048 2.54.48 4.37 1.937 5.45 4.333.27.603.28.826.05 1.236-.35.62-1.2.88-1.75.53zm6.734 31.333c-.57-.297-.897-.74-.91-1.24-.018-.715-.947-3.125-1.627-4.222-.92-1.484-2.59-3.094-3.74-3.605-.54-.24-1.58-.523-2.31-.63-1.63-.24-1.95-.402-2.2-1.084-.22-.625-.07-1.16.49-1.673.35-.31.6-.35 1.71-.26 3.73.29 7.03 2.61 9.04 6.35 1.38 2.57 1.95 5.4 1.22 6.05-.62.55-1.06.64-1.65.33zm7.858 6.013c.595-.166 1.144-.484 1.458-.843l.504-.577.062-5.66c.034-3.113.04-16.986.012-30.828l-.05-25.168-.47-.924c-.834-1.636-2.217-2.163-5.55-2.115-4.58.065-7.388 1.29-9.053 3.945-.69 1.093-1.13 1.384-2.68 1.76-2.21.538-4.73 2.068-5.73 3.47-2.01 2.827-2.86 5.538-2.35 7.407.15.56.22 1.128.14 1.26-.08.133-.56.536-1.09.895-1.187.81-1.82 2.03-2.47 4.713-.79 3.272-.546 7.408.612 10.376 1.076 2.75 4.36 5.46 6.59 5.43.78-.01 1.73.36 1.946.75.612 1.11-.163 2.31-1.498 2.31-1.88 0-4.35-.94-6.077-2.31-.616-.5-1.203-.85-1.303-.78-.29.18-1.09 3.14-1.303 4.81-.437 3.43.785 7.12 3.17 9.58 1.003 1.03 3.07 1.98 4.96 2.28 1.175.19 1.38.36 2.56 2.15 2.767 4.194 7.293 7.29 11.86 8.113 1.765.316 4.45.283 5.72-.073z"/>
    <path d="M54.142 16.653l-3.57 3.568v34.35c-.812.49-1.363 1.38-1.363 2.38 0 1.01.55 1.9 1.36 2.39v20.49l3.52 3.53h19.68l5.01-5.01c.22.06.45.1.7.1 1.52 0 2.77-1.25 2.77-2.77s-1.25-2.77-2.78-2.77-2.78 1.25-2.78 2.77c0 .246.03.48.09.7l-4.19 4.19h-3.17v-11.5l9.72-9.72v5.51c-.827.484-1.38 1.375-1.38 2.39 0 1.524 1.25 2.775 2.77 2.775s2.77-1.25 2.77-2.774c0-1.02-.55-1.9-1.368-2.39V42.58l-6.405-6.4 1.015-1.015V25.76l-3.9-3.9c.063-.235.1-.478.1-.73 0-1.522-1.25-2.772-2.775-2.772-.25 0-.492.036-.724.1l-1.81-1.808h-13.3zm1.16 2.8h11.004l1.007 1.006c-.055.21-.088.44-.088.67 0 1.52 1.25 2.77 2.773 2.77.233 0 .458-.03.674-.09l3.106 3.1V34l-4.858 4.86-.508.508c-.21-.05-.43-.08-.654-.08-1.523 0-2.774 1.25-2.774 2.774 0 1.523 1.25 2.774 2.774 2.774 1.523 0 2.774-1.25 2.774-2.774 0-.258-.04-.508-.106-.745l.473-.478 2.68-2.69 5.58 5.58v12.58L67.31 68.17v12.37H55.25l-1.88-1.88V59.34c.826-.482 1.385-1.376 1.385-2.393 0-1.02-.56-1.91-1.384-2.4V21.38l1.93-1.927zm14.696.36c.738 0 1.322.582 1.322 1.32 0 .737-.584 1.32-1.322 1.32-.738 0-1.32-.583-1.32-1.32 0-.738.582-1.32 1.32-1.32zm-.918 9.956c-.89 0-1.618.72-1.618 1.61 0 .89.73 1.62 1.618 1.62.888 0 1.618-.73 1.618-1.62 0-.89-.73-1.62-1.618-1.62zm0 .84c.43 0 .77.34.77.77s-.34.77-.77.77-.77-.34-.77-.77.34-.77.77-.77zm-7.078 3.67c-.89 0-1.618.73-1.618 1.62 0 .89.73 1.62 1.618 1.62.888 0 1.618-.73 1.618-1.62 0-.89-.73-1.62-1.618-1.62zm0 .85c.43 0 .77.34.77.77s-.34.77-.77.77-.77-.34-.77-.77.34-.77.77-.77zm-5.08 4.08c-.89 0-1.62.73-1.62 1.61 0 .89.73 1.62 1.62 1.62.888 0 1.617-.73 1.617-1.62 0-.89-.73-1.62-1.62-1.62zm0 .84c.43 0 .77.34.77.77s-.34.77-.77.77-.77-.34-.77-.77.34-.77.77-.77zm10.836.67c.738 0 1.32.58 1.32 1.32 0 .74-.582 1.32-1.32 1.32-.738 0-1.32-.58-1.32-1.32 0-.74.582-1.32 1.32-1.32zm-7.286 3.113c-.89 0-1.62.73-1.62 1.62 0 .886.73 1.616 1.62 1.616.888 0 1.618-.73 1.618-1.62 0-.89-.73-1.62-1.618-1.62zm0 .85c.43 0 .77.34.77.77s-.34.77-.77.77-.77-.34-.77-.77.34-.77.77-.77zm14.39.923c-.414 0-.83.16-1.144.47-.628.63-.628 1.66 0 2.29.628.63 1.66.63 2.288 0 .63-.63.63-1.66 0-2.29-.314-.31-.73-.47-1.144-.47zm0 .844c.197 0 .393.08.545.23.304.305.304.785 0 1.09-.304.304-.785.304-1.09 0-.303-.305-.303-.785 0-1.09.153-.15.35-.23.546-.23zm-5.52 3.408c-.416 0-.83.156-1.145.47-.63.63-.63 1.66 0 2.29.628.627 1.66.627 2.288 0 .63-.63.63-1.66 0-2.29-.314-.314-.73-.47-1.144-.47zm0 .84c.195 0 .392.08.544.23.304.306.304.787 0 1.09-.304.305-.786.305-1.09 0-.304-.303-.304-.784 0-1.09.152-.15.348-.226.545-.226zm-5.36 1.607c-.89 0-1.62.73-1.62 1.62 0 .89.73 1.62 1.62 1.62.888 0 1.617-.73 1.617-1.62 0-.887-.73-1.617-1.62-1.617zm0 .85c.43 0 .77.34.77.77s-.34.77-.77.77-.77-.34-.77-.77.34-.77.77-.77zm-12 2.45c.74 0 1.32.585 1.32 1.32 0 .74-.58 1.323-1.32 1.323-.737 0-1.32-.583-1.32-1.32 0-.74.583-1.32 1.32-1.32zm15.148 5.54c-.89 0-1.62.73-1.62 1.62 0 .89.73 1.62 1.62 1.62.888 0 1.618-.73 1.618-1.617 0-.89-.73-1.62-1.618-1.62zm0 .85c.43 0 .77.34.77.77s-.34.77-.77.77-.77-.34-.77-.77.34-.77.77-.77zm13.43 3.91c.737 0 1.32.58 1.32 1.32 0 .733-.583 1.32-1.32 1.32-.74 0-1.32-.587-1.32-1.32 0-.74.58-1.32 1.32-1.32zm-19.38 1.33c-.888 0-1.618.73-1.618 1.62 0 .89.73 1.62 1.618 1.62.89 0 1.618-.73 1.618-1.618 0-.89-.73-1.62-1.618-1.62zm0 .85c.43 0 .77.34.77.77s-.34.77-.77.77-.77-.34-.77-.77.34-.77.77-.77zm11.997 1.52c-.415 0-.83.16-1.144.47-.63.63-.63 1.66 0 2.29.628.63 1.66.63 2.288 0 .63-.63.63-1.66 0-2.29-.31-.31-.72-.47-1.14-.47zm0 .844c.196 0 .393.072.545.224.304.31.304.79 0 1.09-.304.31-.786.31-1.09 0-.304-.3-.304-.78 0-1.09.152-.15.348-.22.545-.22zm6.302 3.88c.73 0 1.32.58 1.32 1.32 0 .733-.59 1.32-1.32 1.32-.74 0-1.32-.587-1.32-1.32 0-.74.58-1.32 1.32-1.32zm-17.34 1.13c-.89 0-1.62.73-1.62 1.62 0 .89.73 1.613 1.62 1.613.89 0 1.62-.73 1.62-1.616 0-.89-.73-1.62-1.62-1.62zm0 .85c.43 0 .77.34.77.77s-.34.77-.77.77-.77-.34-.77-.77.34-.77.77-.77z"/>
  </g>
</svg>
